<?xml version="1.0" encoding="UTF-8"?><svg width="1028" height="599" xmlns="http://www.w3.org/2000/svg"><g id="Page-1" stroke="none" stroke-width="1" fill="none" fill-rule="evenodd"><g id="undraw_open_source_1qxw" fill-rule="nonzero"><circle id="Oval" fill="#fff" cx="332" cy="292" r="292"/><path d="M1028 518c0 .7 0 1.4-.2 2.1C1020.7 564 793.4 599 514 599S7.3 563.9.2 520.1L0 518v-.6-.3-.2l.2-1.3c3.3-17.9 43.4-34.3 108.8-47.5a1630.6 1630.6 0 01204.9-24.7 3125.6 3125.6 0 01363.5-2.2c10.7.5 21.3 1.2 31.7 1.8 71.4 4.7 134.7 11.7 185.7 20.6a630.8 630.8 0 0179.2 18.2c32.4 10.2 51.6 21.7 53.8 33.8a14.5 14.5 0 01.2 1.5V518z" id="Shape" fill="#3F3D56"/><ellipse id="Oval" fill="#000" opacity=".1" cx="501" cy="572" rx="165" ry="24"/><path d="M974 481.8c-5.8 1.6-12.3 3.2-19.4 4.6a616.6 616.6 0 01-113.6 9.3c-49.2 0-93.4-4.4-123.3-11.4-24.9-5.9-40-13.4-40-21.7 0-7.3 11.7-14 31.4-19.6 71.4 4.7 134.7 11.7 185.7 20.6a630.8 630.8 0 0179.2 18.2zM532 470.7c0 15.2-95 27.4-212 27.4S108 486 108 470.7c0-1 .4-1.8 1-2.6a1630.6 1630.6 0 01204.9-24.7h6.1c117 0 212 12.2 212 27.3z" id="Shape" fill="#000" opacity=".1"/><path id="Rectangle-path" fill="#3BB8D7" d="M416.5 335h41.7v134.6h-41.7zM279.5 271.9h41.7v197.7h-41.7zM143.7 271.9h41.7v197.7h-41.7zM211.6 271.9h41.7v134.6h-41.7zM347.4 271.9h41.7v39.3h-41.7z"/><path id="Rectangle-path" fill="#8A8B8C" d="M347.4 335h41.7v134.6h-41.7z"/><path id="Rectangle-path" fill="#3BB8D7" d="M416.5 271.9h109.6v39.3H416.5z"/><path d="M753.4 510.3c0 48.8-68 33.7-151.1 33.7-83.2 0-150.1 15-150.1-33.7s68-59.3 151.1-59.3c83.2 0 150.1 10.6 150.1 59.3z" id="Shape" fill="#000" opacity=".1"/><path d="M753.4 498.3c0 48.8-68 33.7-151.1 33.7-83.2 0-150.1 15-150.1-33.7s68-59.3 151.1-59.3c83.2 0 150.1 10.6 150.1 59.3z" id="Shape" fill="#3F3D56"/><path d="M739.5 410.8L743 425v.5l-15.6 48.7a.9.9 0 01-1.7-.2l-2.2-19v-.3l14.3-44a.9.9 0 011.7.1z" id="Shape" fill="#2F2E41"/><path id="Shape" fill="#F2F2F2" d="M738.3 412l3.1 12.2-13.7 44.4-3.2-13.8z"/><path d="M669 478c.6 1.7 55-.4 55.5-1s.9-1.3 1.2-2l1-2.2-2.2-17.1-53.9-2s-1.3 14.6-1.6 21.2v3.2z" id="Shape" fill="#2F2E41"/><path id="Shape" fill="#000" opacity=".1" d="M717.7 458l1 14.8H695V458zM687 462.8h.2l-.7 6.3h-13.2v-6.3zM669 478c.6 1.7 55-.4 55.5-1s.9-1.3 1.2-2H669v3z"/><path d="M585 422.6h14.8l36.5-14.3s25.9-10.5 23.8 9.6c-2.1 20-5.8 47-5.8 47s-11.7-5.3-18-3.7c-6.3 1.6-2.1-32.3-2.1-32.3s-51.8 24.9-56.5 21.7c-4.8-3.2-5.9-25.4-5.9-25.4l13.3-2.6z" id="Shape" fill="#2F2E41"/><path d="M585 422.6h14.8l36.5-14.3s25.9-10.5 23.8 9.6c-2.1 20-5.8 47-5.8 47s-11.7-5.3-18-3.7c-6.3 1.6-2.1-32.3-2.1-32.3s-51.8 24.9-56.5 21.7c-4.8-3.2-5.9-25.4-5.9-25.4l13.3-2.6z" id="Shape" fill="#000" opacity=".1"/><path d="M608.4 376.3l17.9 25.7 41.7 34.9s38.6 9 33.3 15.3c-5.3 6.3-37.5-6.3-37.5-6.3s-48.1-35-49.7-37.6c-1.6-2.6-19-27.4-19-27.4l13.3-4.6z" id="Shape" fill="#A0616A"/><path d="M608.4 376.3l17.9 25.7 41.7 34.9s38.6 9 33.3 15.3c-5.3 6.3-37.5-6.3-37.5-6.3s-48.1-35-49.7-37.6c-1.6-2.6-19-27.4-19-27.4l13.3-4.6z" id="Shape" fill="#000" opacity=".1"/><circle id="Oval" fill="#A0616A" cx="605.7" cy="324.3" r="23.8"/><path d="M604 345.5s-7.8 13.7-9.4 21.1c-1.6 7.4-23.8-14.8-23.8-14.8l-3-7.7s21-9.7 19.4-17.7c-1.6-7.9 16.9 19 16.9 19z" id="Shape" fill="#A0616A"/><path d="M597.7 355.5l11.7 22.7s-2.7 11.1-7 12.2c-4.1 1-22.1-13.8-22.1-13.8l17.4-21.1z" id="Shape" fill="#D0CDE1"/><path d="M608.3 386.7l21.7 28.5 51.7 38.6s37.6 7.9 29.1 13.7c-8.4 5.8-32.8-5.3-32.8-5.3s-52.3-28-63.4-39.6c-11-11.6-31.7-31.2-31.7-31.2l25.4-4.7z" id="Shape" fill="#A0616A"/><path d="M579.2 431l6.4 10.1 37.8-12a29.8 29.8 0 0124.8 3c6.6 4.2 10.8 10.8 1.3 20.6-19 19.6-31.7 9-31.7 9s-64 30.1-74.5 15.3c-10.6-14.8-11-22.2-11-22.2s40.6-25.3 47-23.7z" id="Shape" fill="#2F2E41"/><path d="M658.5 466s16.9 11-3.2 16.3c-20 5.3-34.8-2.1-34.8-2.1s-17.5 0-17.5-9 5.8-10 5.8-10l18 2.6s21.7-5.8 31.7 2.1z" id="Shape" fill="#D0CDE1"/><path d="M625.2 318.4c1.5.8 3.2 1.4 5 1.7 1.7.4 3.5-.4 4.5-2 .4-.8.6-1.8.6-2.7 0-3-.2-6-2-8.3-1.2-1.4-2.9-2.3-4.1-3.7-.8-1-1.5-2.2-2-3.4-2.4-4.4-6-8.7-10.8-10-2-.4-4.1-.6-6.2-.4l-12.2.1c-2 0-4 .2-5.9.7-4 1.1-6.8 4.5-9.4 7.6-2 2.3-3.8 4.8-5.4 7.5-2.1 3.9-3.2 8.3-3 12.8-.1 1.1 0 2.3.4 3.4.3 1 .8 2 1.3 2.9 2.3 4.5 3.6 10 1 14.4 4.5-1.8 9-4.2 12-8 1.2-1.7 2.3-3.8 4-5 1.8-1.3 4.7-1.4 5.8.5.4.7.6 1.5.6 2.4 0 1.4.2 2.8.6 4a3 3 0 003.4 2c2.3-.7 2-4.2 3.8-5.8 1.4-1.2 3.4-1 5.2-1.6 2-.7 3.6-2.3 4.4-4.3.6-1.4.6-5.3 1.8-6 1.6-1 5.1.5 6.6 1.2z" id="Shape" fill="#2F2E41"/><path d="M566 341.6c1-.2 2.2-.2 3.3 0 3.4 1 11 3.4 12.6 7 2.1 4.8 9.5 12.2 9.5 12.2s10 10 8 16.9c-2.2 6.9-10.1 14.8-10.1 14.8s2.1 32.7-8.5 41.2c-10.5 8.5-14.8 2.6-14.8 10.6 0 7.9-32.7 32.7-39 17.4 0 0 3.1-28.5 2-38.6-1-9.9.5-71.6 37-81.5z" id="Shape" fill="#D0CDE1"/><path d="M583 355s32.2 23.8 26.4 33.8c0 0-19.6 9.5-23.8 9-4.2-.6-20.6-19-24.8-20.6-4.3-1.6-6.4-30.1 22.1-22.2z" id="Shape" fill="#D0CDE1"/><path d="M493.8 376.3c-5 1.7-9.5 5.6-10.6 10.8-.4 2.4-.2 5-.6 7.4-.9 5.6-5.3 9.8-9.4 13.8-4 4-8.2 8.6-8.5 14.3-.3 6.2 4.2 12 3.4 18.2-1 7.2-8.5 11.9-10.4 18.9-1.2 4.6.3 9.7 2.8 13.8 4.9 7.8 13 13.2 21.8 16 8.8 2.9 18.1 3.5 27.3 3.6 11.2 0 23.4-.9 31.8-8.3a25.5 25.5 0 008.5-16.6c.8-8.5-2.8-17.4-.3-25.6 1.5-5.2 5.4-10 4.8-15.3-.5-5.3-5.1-9-8.3-13.3-3-4-4.7-8.7-6.5-13.3l-6-15.8a18.4 18.4 0 00-5-8.4c-5-3.9-12.9-3.1-18.6-2.3-5.4.7-11 .3-16.2 2z" id="Shape" fill="#2F2E41"/><path d="M495.7 422.4s2.6 8.6-17.3 18.6c-20 10 2 20.6 2 20.6l23.3 5.3s23.9-3.3 26.5-7.3c2.7-4 7.3-17.3 6-19.3a31 31 0 00-3.3-4s-16-2.6-15.3-10c.7-7.2-22-4-22-4z" id="Shape" fill="#FFB9B9"/><path d="M495.7 422.4s2.6 8.6-17.3 18.6c-20 10 2 20.6 2 20.6l23.3 5.3s23.9-3.3 26.5-7.3c2.7-4 7.3-17.3 6-19.3a31 31 0 00-3.3-4s-16-2.6-15.3-10c.7-7.2-22-4-22-4z" id="Shape" fill="#000" opacity=".1"/><circle id="Oval" fill="#FFB9B9" cx="508.6" cy="414.7" r="21.3"/><path d="M506.3 459.6s-25.6-1.9-26-19.6c0 0-9.2-1-11.9 1.6-2.6 2.7-11.2 4.7-11.2 11.3 0 6.7 14.6 26.6 14.6 26.6s8 26.6 4.6 31.2c-3.3 4.7-4 16.6-4 16.6s33.3-2.6 38.6 0c5.3 2.7 26.5 2.7 27.9 0 1.3-2.6-1.4-35.8-1.4-35.8s6-8 4.7-17.3l16-18.6s-6-18-15.3-18c0 0-12.7-3.3-13-1.6-.3 1.7 6.3 20.3-23.6 23.6z" id="Shape" fill="#FF6584"/><path d="M446.5 518s6 9.3 21.3 11.3 18-3.3 16.6-4.6c-1.3-1.3-17.3-7.3-17.3-7.3l-9.3-7.3-11.3 8zM555.5 510l-17.3 10s-22.6-1.3-14 5.4c8.7 6.6 24.6 4 24.6 4l15.3-7.4-8.6-12z" id="Shape" fill="#FFB9B9"/><path d="M469.1 527.3s-16 39.2 3.3 45.2 72.5 4.7 84.4-3.3c12-8 15.3-18.6 13.3-22a45 45 0 00-24.6-13.2c-9.3-.7-76.4-6.7-76.4-6.7z" id="Shape" fill="#2F2E41"/><path d="M469.1 527.3s-16 39.2 3.3 45.2 72.5 4.7 84.4-3.3c12-8 15.3-18.6 13.3-22a45 45 0 00-24.6-13.2c-9.3-.7-76.4-6.7-76.4-6.7z" id="Shape" fill="#000" opacity=".1"/><path d="M544.4 529.8s56.3-20.4 55.6 4.2c-.7 24.6-35.9 31.2-35.9 31.2l-10.6 1.3-58.5 2s2-10.6-2.6-12c0 0 15.2-4 16-4.6.6-.6 38.4-14 41.1-14.6 2.7-.7 10.6-6 16.6-5.3 0 0 6.7-5.3 14-4l-20.6 1.3-15.1.5z" id="Shape" fill="#2F2E41"/><path d="M544.4 529.8s56.3-20.4 55.6 4.2c-.7 24.6-35.9 31.2-35.9 31.2l-10.6 1.3-58.5 2s2-10.6-2.6-12c0 0 15.2-4 16-4.6.6-.6 38.4-14 41.1-14.6 2.7-.7 10.6-6 16.6-5.3 0 0 6.7-5.3 14-4l-20.6 1.3-15.1.5z" id="Shape" fill="#000" opacity=".1"/><path id="Shape" fill="#2F2E41" d="M534.4 533l7.1 16.3 43.2-15.3 3.3-8.6-11.3-2-22.7 4-9.8 2.6z"/><path id="Shape" fill="#000" opacity=".1" d="M534.4 533l7.1 16.3 43.2-15.3 3.3-8.6-11.3-2-22.7 4-9.8 2.6z"/><path d="M442.5 552.6s12.7 16 27.3 20c14.6 4 22.6-1.4 22.6-1.4l-4.7-18.6-2-12-8.6-6-17.3-8-20.6-6.6s-8.6-1.3-8.6 0c0 1.4 8 21.3 8 21.3l4 11.3z" id="Shape" fill="#2F2E41"/><path d="M457.8 561.2s2.7 19.3 6 20.6c3.3 1.4 13.3-1.3 16-2.6 2.6-1.4 11.6-7.5 11.6-7.5s-31.6-11.8-33.6-10.5z" id="Shape" fill="#F2F2F2"/><path id="Shape" fill="#FFB9B9" d="M518.3 563.2l12.6 2-1.3 15.3-17.6-4.3z"/><path d="M526.2 567.5s-6 7 0 11l4 3.3s13.3 2.7 14.7 4c1.3 1.3 6.6-2 6.6-2s.7-20 0-21.2c-.7-1.4-8.6-2.7-9.3-1.4-.7 1.4-8.6 3.4-13.3 2l-2.7 4.3z" id="Shape" fill="#F2F2F2"/><path d="M473.1 532s-46.5-27.2-53.8-17.3c-7.3 10-15.3 24 6 34.6 21.2 10.6 87.7 32.5 87.7 32.5s10-15.3 10-19.2c0 0-35.3-16-41.3-17.3-6-1.3-29.9-16.6-33.2-18-3.3-1.3-8-5.3-8-5.3l32.6 10z" id="Shape" fill="#2F2E41"/><path d="M459.8 449.6l-2.6 2s-6 15.3-6.7 24c-.7 8.6-8.6 35.1-8 38.5.7 3.3 1.4 6 5.4 9.3 0 0 5.3-12 14.6-10l11.3-41.2-14-22.6zM552.8 449.6l5.3 6s3.4 8 3.4 10 6.6 31.2 7.3 32.5c.6 1.3 3.3 18 0 22-3.4 4-9.3 6.6-9.3 6.6s4-14-8.7-14.6l1.4-5.3-12-40 12.6-17.2z" id="Shape" fill="#FF6584"/><path d="M461.1 495.4v35c0 4.5 3.7 8.3 8.3 8.4l73.2 1c4.6.1 8.4-3.5 8.5-8l1.4-35a8.4 8.4 0 00-8.3-8.8l-74.5-1a8.4 8.4 0 00-8.6 8.4z" id="Shape" fill="#3F3D56"/><ellipse id="Oval" fill="#2F2E41" cx="509.9" cy="401.7" rx="22.9" ry="12.3"/><circle id="Oval" fill="#F2F2F2" cx="506" cy="513.7" r="5.3"/></g></g></svg>
