<svg id="bde73d41-a320-4095-b34e-88e478ed2899" data-name="Layer 1" xmlns="http://www.w3.org/2000/svg" width="1097.1" height="790.9" aria-hidden="true">
  <defs>
    <linearGradient id="1e2c0012-142b-4e80-b266-1fa459546aa8" x1="567.3" y1="839.9" x2="567.3" y2="127.1" gradientUnits="userSpaceOnUse">
      <stop offset="0" stop-color="gray" stop-opacity=".3"/>
      <stop offset=".5" stop-color="gray" stop-opacity=".1"/>
      <stop offset="1" stop-color="gray" stop-opacity=".1"/>
    </linearGradient>
  </defs>
  <path d="M63.3 484.5C80.7 558.7 117.4 623 175.5 654c120.7 64.6 392.9 31.3 596-7a465.2 465.2 0 00264.6-151.2zM1128.7 135.3h-111.5a9.6 9.6 0 110-19.3h19.2a9.6 9.6 0 010-19.3h-13.7a9.6 9.6 0 010-19.2h58.2c-13-6-28-10.3-45.4-12.5-158.7-20.4-215.3-7-235.3 7a222.2 222.2 0 01-81.5 35.7c-97.9 20.2-281 44.5-446.9-7.8-82.4-26-143.7 18-180.4 91.3H1148c-1.4-21.3-5.5-41-13-58.2a9.6 9.6 0 01-6.3 2.3zM53.8 329.7A491.1 491.1 0 0058.2 459l978.6 35.8a459.9 459.9 0 0068-103.7zM441 422h-19.3a9.6 9.6 0 110 19.3H310.3a9.6 9.6 0 110-19.3h19.3a9.6 9.6 0 010-19.3h-13.8a9.6 9.6 0 010-19.2h111.5a9.6 9.6 0 010 19.2h13.7a9.6 9.6 0 010 19.3zM1148 191.8l-1068.4 26A426.3 426.3 0 0054 328.2h1075.3a457 457 0 0015.6-70.4c3.2-23 4.4-45.2 3.1-66zM271 277h-19.3a9.6 9.6 0 110 19.3H140.2a9.6 9.6 0 010-19.3h19.3a9.6 9.6 0 010-19.3h-13.8a9.6 9.6 0 010-19.2h111.5a9.6 9.6 0 010 19.2h13.7a9.6 9.6 0 010 19.3z" transform="translate(-51.5 -54.6)" fill="#3bb8d7" opacity=".1"/>
  <ellipse cx="563.6" cy="772" rx="348.8" ry="18.9" fill="#3bb8d7" opacity=".1"/>
  <path d="M904.7 687.7s5.4 7.2-2.6 18-14.6 20-12 26.8c0 0 12.1-20.1 22-20.4s3.4-12.2-7.4-24.4z" transform="translate(-51.5 -54.6)" fill="#3bb8d7"/>
  <path d="M904.7 687.7a9.3 9.3 0 011 2.3c9.7 11.3 14.8 21.9 5.6 22.1-8.6.3-19 15.7-21.4 19.5a7.7 7.7 0 00.3 1s12-20.2 22-20.5 3.3-12.2-7.5-24.4z" transform="translate(-51.5 -54.6)" opacity=".1"/>
  <path d="M914.9 696.9c0 2.5-.3 4.6-.7 4.6s-.6-2-.6-4.6.4-1.3.7-1.3.6-1.2.6 1.3z" transform="translate(-51.5 -54.6)" fill="#ffd037"/>
  <path d="M918.4 700c-2.2 1.1-4.2 1.9-4.3 1.5s1.4-1.5 3.7-2.7 1.3-.3 1.5 0 1.3 0-1 1.1z" transform="translate(-51.5 -54.6)" fill="#ffd037"/>
  <path d="M875.6 687.7s-5.5 7.2 2.6 18 14.6 20 12 26.8c0 0-12.1-20.1-22-20.4s-3.4-12.2 7.4-24.4z" transform="translate(-51.5 -54.6)" fill="#3bb8d7"/>
  <path d="M875.6 687.7a8.9 8.9 0 00-1 2.3c-9.7 11.3-14.8 21.9-5.6 22.1 8.6.3 19 15.7 21.4 19.5l-.3 1s-12-20.2-22-20.5-3.3-12.2 7.5-24.4z" transform="translate(-51.5 -54.6)" opacity=".1"/>
  <path d="M865.4 696.9c0 2.5.3 4.6.7 4.6s.6-2 .6-4.6-.4-1.3-.7-1.3-.6-1.2-.6 1.3z" transform="translate(-51.5 -54.6)" fill="#ffd037"/>
  <path d="M862 700c2.1 1.1 4 1.9 4.2 1.5s-1.5-1.5-3.7-2.7-1.3-.3-1.5 0-1.3 0 1 1.1z" transform="translate(-51.5 -54.6)" fill="#ffd037"/>
  <path d="M867.2 731.6s15.3-.5 20-3.8 23.6-7.2 24.8-2 23 26.3 5.7 26.5-40.3-2.7-45-5.5-5.5-15.2-5.5-15.2z" transform="translate(-51.5 -54.6)" fill="#a8a8a8"/>
  <path d="M918 750.5c-17.3.1-40.3-2.7-45-5.5-3.4-2.2-4.8-9.9-5.3-13.4h-.5s1 12.4 5.6 15.2 27.6 5.6 44.9 5.5c5 0 6.7-1.8 6.6-4.5-.7 1.7-2.6 2.6-6.3 2.7z" transform="translate(-51.5 -54.6)" opacity=".2"/>
  <path d="M320.7 737.2a11.7 11.7 0 003.8-5.8c.5-2.3-.5-5-2.7-5.9-2.4-.9-5 .8-7 2.5s-4.3 3.7-7 3.4a10.5 10.5 0 003.3-9.9 4.1 4.1 0 00-.9-2c-1.4-1.4-3.8-.8-5.5.4-5.2 3.6-6.6 10.7-6.6 17-.6-2.3-.1-4.6-.1-7s-.7-5-2.7-6.2a8 8 0 00-4-1c-2.3 0-5 .2-6.5 2-2 2-1.5 5.6.2 8s4.4 3.7 6.8 5.3a15 15 0 014.8 4.6 5.8 5.8 0 01.4.9h14.7a40.8 40.8 0 009-6.3z" transform="translate(-51.5 -54.6)" fill="#3bb8d7"/>
  <path d="M152.8 698.4s-14-47.7 2.6-82.8a75.4 75.4 0 006.2-47.3 126.2 126.2 0 00-6.7-22.1" fill="none" stroke="#535461" stroke-miterlimit="10" stroke-width="2"/>
  <path d="M216.7 578.5c0 5.9-10.6 22.8-10.6 22.8s-10.6-17-10.6-22.8a10.6 10.6 0 0121.2 0zM234.2 610.9c-3.2 5-21.3 13.4-21.3 13.4s.3-20 3.5-25a10.6 10.6 0 0117.8 11.6zM233.4 666.3c-5.2 2.6-25.1.8-25.1.8s10.3-17.1 15.6-19.8a10.6 10.6 0 119.5 19zM223.4 708c-4.7 3.5-24.6 5-24.6 5s7.3-18.6 12-22a10.6 10.6 0 1112.5 17zM190.7 625.4c4.2 4 23.7 8.3 23.7 8.3s-4.8-19.4-9-23.5a10.6 10.6 0 10-14.8 15.2zM179.6 674.4c5.2 2.6 25.1.8 25.1.8s-10.4-17-15.6-19.7a10.6 10.6 0 00-9.5 18.9zM175.3 723.5c4.7 3.4 24.7 5 24.7 5s-7.4-18.6-12-22.1a10.6 10.6 0 00-12.6 17z" transform="translate(-51.5 -54.6)" fill="#3bb8d7"/>
  <path d="M216.7 578.5c0 5.9-10.6 22.8-10.6 22.8s-10.6-17-10.6-22.8a10.6 10.6 0 0121.2 0zM234.2 610.9c-3.2 5-21.3 13.4-21.3 13.4s.3-20 3.5-25a10.6 10.6 0 0117.8 11.6zM233.4 666.3c-5.2 2.6-25.1.8-25.1.8s10.3-17.1 15.6-19.8a10.6 10.6 0 119.5 19zM223.4 708c-4.7 3.5-24.6 5-24.6 5s7.3-18.6 12-22a10.6 10.6 0 1112.5 17zM190.7 625.4c4.2 4 23.7 8.3 23.7 8.3s-4.8-19.4-9-23.5a10.6 10.6 0 10-14.8 15.2zM179.6 674.4c5.2 2.6 25.1.8 25.1.8s-10.4-17-15.6-19.7a10.6 10.6 0 00-9.5 18.9zM175.3 723.5c4.7 3.4 24.7 5 24.7 5s-7.4-18.6-12-22.1a10.6 10.6 0 00-12.6 17z" transform="translate(-51.5 -54.6)" fill="#3bb8d7"/>
  <path d="M171 750s17.1-3.4 21.7-8 25-12.4 27.4-6.7 30.8 24.9 11.4 28.3-45.7 4.5-51.4 2.3S171 750 171 750z" transform="translate(-51.5 -54.6)" fill="#a8a8a8"/>
  <path d="M231.5 761.5c-19.4 3.4-45.6 4.5-51.3 2.2-4.4-1.7-7.4-10-8.6-13.8l-.6.1s3.4 13.6 9.1 15.8 32 1.2 51.4-2.2c5.6-1 7.2-3.3 6.6-6.2-.5 1.9-2.4 3.3-6.6 4z" transform="translate(-51.5 -54.6)" opacity=".2"/>
  <path d="M775.7 316.5c5.4-6 3.3-15.3 3.3-15.3s-25.3-64.6-28.2-65.3-9.8-17-9.8-17-67.6-64.2-70-64.2-27.1-17.8-30.3-18.1-8-2.2-13.4-5-58.7.3-60.8 2.8-12 4.3-12 4.3-20.1 1-23 4.6-23.5 5.4-23.5 5.4-10.2 3.8 3.6 14a183.4 183.4 0 01-18.9 1.8h-.7a13 13 0 00-5-6.6 41.3 41.3 0 00-4.6-2.2 37.3 37.3 0 01-7-4.7 226.8 226.8 0 00-32.7-21.7 15.7 15.7 0 00-5.8-2.2c-4.3-.4-8.1 2.6-12.3 3.6-7.4 1.8-14.8-2.7-22.4-2.8-9.5-.1-18.1 7.3-21 16.4-1.1 3.4-1.6 7.1-3.9 9.8-3 3.5-8 4-12.2 6a18.4 18.4 0 00-9.9 16.3v.1l.1 1.6c.5 4.3 2.5 8.2 4 12.3a50.8 50.8 0 012.7 12.9.7.7 0 010 .1l.2 2.2v2.6c0 3.8-.2 7.7-.1 11.5v4.4l.1 1.5v.6l.3 1.3v.7l.3 1.3.1.6.3 1.5.2.5q.2 1 .6 1.9a28.2 28.2 0 0018.6 17.6 17.3 17.3 0 005 .6c3 0 5.8-1 7.6-3l1.3 1.5a60 60 0 0097.4-13l3.1-.7 5.5-1 1.8-.3h.7c9-1.5 17.7-2.5 24-3l-24.8 3s-6 28.8-7.7 32 6 8.5 6 8.5 6.7 8.2 6.7 10.6 7.7 9.6 9.8 13.5a6 6 0 001 1.4 14.2 14.2 0 00-4.2 2.6c-4.9 4.6-3.3 12.7-5.5 19-1.4 4-4.3 7.3-7.2 10.5a14.2 14.2 0 00-2.5 3.5 8.6 8.6 0 00-.7 2.6 13.1 13.1 0 000 1.6v1.8c.6 4.2 2 8.3 2.4 12.4s0 8.4.8 12.5a18.6 18.6 0 001.4 4.1l-14.4 16v2.1c-12 10-30.5 28.6-23.9 45.1l2 5.2c-4.8 3-6.4 6.8.8 10.4l3.4 1.5c3.7 11 5.2 14 11.4 6l2.3-3.2c8.8-.2 14-4.3 14-4.3s24.5-1.4 31 2.5c3.1 2 10.6 2.4 17.2 2.4a181.5 181.5 0 001 21.4s-1 30.1 1.8 36.5 4.4 17.4 4.4 17.4-4.8 10.7-2 16.3-2.4 13.9-2.4 13.9v21l2-.2c-.2 1.4-.3 2.9-.6 4.3-.6 3.2-1.4 6.2-2.8 7.1-3.5 2.5-3.9 16-3.9 16s-5.6 16.3-4.5 19.2-6.7 8.5-5 12.8 5.4 31.2 8.5 39-6.3 5.6-6.3 5.6l2.8 20.3s2.8 20.5.7 22-14.3 11.7-6 17.7l2 1.3a21.6 21.6 0 010 2.8c-.2 1.6-.6 2.9-1.4 3-2.5.4-7.5 2.8-8.5 1.8s-7 2.7-13 3.9l-.8.1-7.8-2a54.8 54.8 0 00-35.2-1.3s-5.7.9-8.4 5.1c-1.4 2.2-2 5.2-.8 9.5 3.8 12.5 29.4 16.8 29.4 16.8l19.6 4.3h-1a11.8 11.8 0 104 .7c12 2.8 25.2 6.1 30.6 8.5a93.9 93.9 0 0012.3 3.7 11.7 11.7 0 0021.8 4.9c16.3 3.4 32 6.3 32 6.3l26.3.4h.2a11.7 11.7 0 10.2 0l39.7.7a11.7 11.7 0 1023 3.2 11.7 11.7 0 00-.3-2.9l35 .6 7-7.7a6.2 6.2 0 00.8-2.4c.2-2.5-1.1-6.4-10.1-8-.7-.1-19 .2-35 .4v-6.3s-.5-3.5-.8-7.6l-.2-3.7a9.6 9.6 0 003 1.4c6.7 1 15.8-18.5 15.8-18.5s0-11 2.1-19.9 6-38.6 6-38.6l8.5-35.9s3.5-73 1.7-76 2.2-7.7 2.2-7.7 2.8-15.6-1.4-21 2.4-10.6 2.4-10.6 1.8-18.4-3.2-25.5 2.4-12.1 2.4-12.1l1.7-28.7c7.4-7.5 14-51.8 14.4-61.4a39.4 39.4 0 013.6-15.6s4.9-7.5 5.6-12.5 6-15.2 6-15.2l9.1-34a53 53 0 00-.8-34zm-165.3 2c5.6 3.6 3.9 4.7 5.6 6.8s.4 1.8-1 5.3-.4 2.5.3 6.4.4 3.9.4 3.9l1.8.2-2.5 16.5c-4 2.6-5.8 7.6-6.7 12.8l-6.8-9.3c.7-1.6.6-3.6.6-5.4 0-6 2.3-11.7 3.3-17.6a44.6 44.6 0 00-.5-18.1 27.5 27.5 0 00-2.4-6.5c2.3 1.6 5.2 3.4 8 5zm6.3 347.8l8.8-5.8c1.5 10.6 2.8 21.5 3.8 31.4l-2.6-5.8a11.9 11.9 0 01-2.7-6.7c-.2-3.9-7.3-13-7.3-13zm-26.4-364.7c1 0 2.5 1.4 3.8 2.9l-3.8-3zM526 432.8c-4 1.3-17.8 1.1-26 .6l8.8-15.3a32.5 32.5 0 004.9.9l26.8-23.5a46.1 46.1 0 0031-.2l.8 1.1 1 1.6-.7-1.1s-10.3 6.1-9.2 9-1.4 9.9-5.3 17.5a94 94 0 00-2.7 5.7 273 273 0 00-29.4 3.7zm50.9 327.9l-.2-2.8 2.8-.7a110.7 110.7 0 00-1.7-12.5c-1-4.2-.5-2.8 3.6-6s0-39 0-39 2-2.5 5.2 4 6.3 10.2 7.4 10.6-4.3 7.4 0 14.2a40.8 40.8 0 015.2 14.2s-2.8 11.2 1.5 16.2a6.2 6.2 0 002 1.4v2.9l-.1 3.8a1.4 1.4 0 01-2.3.9c-1-.8-8 .8-7.5 5.3a32.7 32.7 0 01-5.5 5.2l-9.6-2.5z" transform="translate(-51.5 -54.6)" fill="url(#1e2c0012-142b-4e80-b266-1fa459546aa8)"/>
  <path d="M490.4 393s-3.4 27.5 23.2 30.3l4-19-8.4-11.2-12-4.1z" transform="translate(-51.5 -54.6)" fill="#3bb8d7"/>
  <path d="M497.3 389l-6.9 4s-3.4 27.5 23.2 30.3" transform="translate(-51.5 -54.6)" opacity=".1"/>
  <path d="M538.6 237.8s-18 1.1-35.9 4.1l-5.5 1-3.1.7c-9.4 2-18 4.4-23 7.6-6 3.9-8-6.5-8.2-20.9-.1-5 0-10.6.3-16.2a521 521 0 014-42.3s6.3 0 14.7-.3l2.7-.1a371.2 371.2 0 0027.2-2.3c4.7-.8 8.6-1.7 10.6-3 9.5-5.7 16.2 71.8 16.2 71.8z" transform="translate(-51.5 -54.6)" fill="#f8bdc5"/>
  <path d="M618.5 339.2l-3.5 23.2s-7.6 9.5-6.6 14.8 9.8 238.6 9.8 238.6 17.2 98.6 11.2 111.2-.3 42.3-.3 42.3l35.9-5.6 12-430.8z" transform="translate(-51.5 -54.6)" fill="#474463"/>
  <path d="M618.5 339.2l-3.5 23.2s-7.6 9.5-6.6 14.8 9.8 238.6 9.8 238.6 17.2 98.6 11.2 111.2-.3 42.3-.3 42.3l35.9-5.6 12-430.8z" transform="translate(-51.5 -54.6)" opacity=".1"/>
  <path d="M697.7 775.3c-1.1 1.9-1 7.4-.7 12.2.2 4 .7 7.5.7 7.5v24s-38.4-13.5-59.5-27.5c-8.7-5.9-11.2-11.3-10.7-15.6.7-6.1 7.4-10.1 10.7-10.1 3.2 0 13.1-5.5 21.3-10.4 6.5-3.8 11.8-7.2 11.8-7.2s28.5 23.5 26.4 27z" transform="translate(-51.5 -54.6)" fill="#575988"/>
  <path d="M697.7 775.3c-1.1 1.9-1 7.4-.7 12.2-8.6-4-35-29.7-37.5-32.1 6.5-3.8 11.8-7.2 11.8-7.2s28.5 23.5 26.4 27z" transform="translate(-51.5 -54.6)" opacity=".1"/>
  <path d="M776.5 355.4l-9.1 33.8s-5.3 10.2-6 15.1-5.6 12.3-5.6 12.3a39 39 0 00-3.6 15.5c-.3 9.5-7 53.5-14.4 61l-1.8 28.4s-7 5-2 12S737 559 737 559s-6.7 5.2-2.5 10.5 1.4 20.8 1.4 20.8-3.8 5-2 7.7-1.8 75.3-1.8 75.3l-8.5 35.6s-3.9 29.6-6 38.4-2 19.7-2 19.7-9.2 19.3-16 18.3-39-32.8-39-32.8l4.6-107s3.9-45.4 1.4-54.2-4.2-52.8-4.2-52.8l-5-69.3-49.2-77.4s-3.5-22.6 6.7-29.2l1.8-12.2 1.7-11 58.4-6.4 89.4-23.2s6.9 4.2 10.5 14.8a52 52 0 01-.3 30.9z" transform="translate(-51.5 -54.6)" fill="#474463"/>
  <path d="M621 391s-41.5 51-39.8 36.8c1.1-9-4.6-20-9-26.8-2.6-4.2-4.7-6.8-4.7-6.8s25.3-46.5 26.7-40.2c.5 2 3.4 6.6 7.2 11.9 8 11 19.6 25.1 19.6 25.1z" transform="translate(-51.5 -54.6)" fill="#ffc1c8"/>
  <path d="M697.7 814v5s-38.4-13.4-59.5-27.5c-8.7-5.8-11.2-11.2-10.7-15.6a395.3 395.3 0 0140 22.3c5.5 4.3 20 11 30.2 15.7z" transform="translate(-51.5 -54.6)" fill="#fff" opacity=".3"/>
  <circle cx="637.2" cy="766.6" r="11.7" fill="#474463"/>
  <circle cx="517.4" cy="750.2" r="11.7" fill="#474463"/>
  <path d="M742.8 808.9a6.2 6.2 0 01-.6 2.4l-7 7.6-97.9-1.6-26.3-.4s-55.4-10-66.2-14.8-53.2-13.3-53.2-13.3-25.6-4.3-29.4-16.7c-1.2-4.2-.6-7.2.8-9.4 2.7-4.2 8.4-5 8.4-5a55.3 55.3 0 0135.2 1.3l164 42.2 2.5.6s58.5-1 59.7-.9c9 1.7 10.3 5.5 10 8z" transform="translate(-51.5 -54.6)" fill="#3bb8d7"/>
  <path d="M742.8 808.9c-9.8-1.3-27-3.2-31.4-1.4 0 0-31.2-3.8-74.1 9.8L611 817s-55.4-10-66.2-14.8-53.2-13.3-53.2-13.3-25.6-4.3-29.4-16.7c-1.2-4.2-.6-7.2.8-9.4 1.8 5.1 5.1 12.5 10.5 14.6 8.5 3.3 43.2 9.9 43.2 9.9l68.7 16.8s39.7 8.6 55.2 3c6.3-2.3 18.2-4.3 30-5.9l2.5.7s58.5-1.1 59.6-1c9 1.8 10.3 5.6 10.1 8z" transform="translate(-51.5 -54.6)" fill="#fff" opacity=".3"/>
  <path d="M648 796.2a32.5 32.5 0 01-.6 4.4s-39 1.4-59.2-1.6c-5.6-.8-8.7-2.6-10.3-4.8a7.3 7.3 0 01-.7-7 11 11 0 01.8-1.8c1.5-2.7 3.9-4.5 5.1-4.3 3.6.7 9.6-6.5 9.6-6.5-.5-4.4 6.4-6 7.5-5.3a1.4 1.4 0 002.3-.9v-3.7-7l39 4.7 1.6 7.5c1.4 6.6 3.4 15.8 4.3 19a22.6 22.6 0 01.5 7.3z" transform="translate(-51.5 -54.6)" fill="#474463"/>
  <path d="M648 796.2a32.5 32.5 0 01-.6 4.4s-39 1.4-59.2-1.6c-5.6-.8-8.7-2.6-10.3-4.8 5.2-.3 12-.4 16.1.6 6 1.5 41.6 1.5 54 1.4z" transform="translate(-51.5 -54.6)" opacity=".1"/>
  <path d="M578 785.3a2 2 0 01-.8 2c-5 3.7-28.6-.4-28.6-.4s-48.2-3-55.4-8a5 5 0 01-1.6-1.6c-3-5.4 7.8-14.5 8.8-14.5s13.9-1.8 14.8-2c6-1.2 12-4.9 13-3.8s6-1.4 8.4-1.8c.9-.1 1.3-1.4 1.5-3a33.3 33.3 0 00-.3-6.5l38.6 10.4.3 6 1.1 20.5.2 2.5a1 1 0 010 .2z" transform="translate(-51.5 -54.6)" fill="#474463"/>
  <path d="M548.7 786.9s-48.3-3-55.5-8a5 5 0 01-1.6-1.6c9.8.8 26 2.2 29 2.9 4.2 1 28 2.5 28 2.5h29.2l.2 2.5c1.3 7-29.3 1.7-29.3 1.7z" transform="translate(-51.5 -54.6)" opacity=".1"/>
  <circle cx="458.6" cy="750.2" r="11.7" fill="#474463"/>
  <circle cx="586" cy="774.5" r="11.7" fill="#474463"/>
  <path d="M518.2 405.7l-5.6 10a601 601 0 01-28.5 47c-8.8 11.3-8.1.8-17.6-22.8-7.1-17.6 14.6-37.6 26.3-46.8 4-3.1 6.8-5 6.8-5z" transform="translate(-51.5 -54.6)" fill="#f8bdc5"/>
  <path d="M560.8 432.8s-29.2 2.5-34.9 4.2-29.9.8-32 0-43.6 8.9-24.6 18.4 31 0 31 0 24.6-1.5 31 2.4 29.6 1.8 29.6 1.8z" transform="translate(-51.5 -54.6)" fill="#ffc1c8"/>
  <path d="M500.1 217.4c3.6 9.2 1.4 17.3-2.9 25.5a82.4 82.4 0 00-26.2 8.3c-15.8 10.2-3.8-79.5-3.8-79.5s7.6 0 17.3-.4c-2.9 13.4 8.2 27.3 15.6 46.1z" transform="translate(-51.5 -54.6)" opacity=".1"/>
  <path d="M501 215.4a60 60 0 11-6-26.2 60 60 0 016 26.2z" transform="translate(-51.5 -54.6)" fill="#f8bdc5"/>
  <path d="M776.8 324.5a13.7 13.7 0 01-8 5.6c-13.7 3.8-110.5 27-116.8 25.6-5.6-1.2-29.6-4.6-35.1-5.4l1.6-11 58.5-6.4 89.3-23.2s7 4.2 10.5 14.8zM538.6 237.8a337.4 337.4 0 00-34.1 3.8 2.4 2.4 0 00-.1-1.5l23.4-3s-3.4-55-16-68c4.7-.8 8.6-1.8 10.6-3 9.5-5.7 16.2 71.8 16.2 71.8z" transform="translate(-51.5 -54.6)" opacity=".1"/>
  <path d="M508 155.3s20.8-2 23.6-5.4 22.9-4.6 22.9-4.6 9.8-1.8 12-4.2 55.6-5.7 60.8-2.8 10.3 4.5 13.4 4.9 27.8 18 30.3 18 70 63.6 70 63.6 7 16.2 9.8 17 28.2 64.7 28.2 64.7 3.5 15.5-10.2 19.3S658.3 353 652 351.5s-36.3-5.6-36.3-5.6.3 0-.4-3.9-1.7-2.8-.3-6.3 2.8-3.2 1-5.3 0-3.2-5.6-6.7-12-7.4-12.3-8.4-5.3-8.1-7.7-8.5-71.5-19.7-71.5-19.7l-16.2-5.3s-7.7-5.2-6-8.4 7.7-31.7 7.7-31.7l24.8-3.1s-3.7-59.6-17.6-69.6-3.6-13.8-3.6-13.8z" transform="translate(-51.5 -54.6)" fill="#3bb8d7"/>
  <path d="M518.2 405.7l-5.6 10c-.5-18.4-13.3-22-19.8-22.6 4-3.1 6.8-5 6.8-5z" transform="translate(-51.5 -54.6)" opacity=".1"/>
  <path d="M501 272.3l1.7 9.5s6.7 8.1 6.7 10.6 7.7 9.5 9.9 13.4 9.5 4.5 6.6 11.2-19 57.8-19 57.8L490.4 393s27.4-2.5 23.2 30.2l35.6-31 27.8-50.6s-27.1-51.4-28.1-55.6-47.9-13.8-47.9-13.8z" transform="translate(-51.5 -54.6)" fill="#3bb8d7"/>
  <path d="M583.3 290s22.5-15.9 22.5-17.7-22.5 17.6-22.5 17.6zM621 309.6s12-2.8 13-9.1-13 9.1-13 9.1zM630.8 325.8s17-8.3 16.2-9.8-16.2 9.8-16.2 9.8zM721.3 272.2s-7 4.6-5 8.9 5-8.9 5-8.9zM742 274.1s-20 19-15.4 19.4S742 274 742 274zM696.6 568.7s25.7 5 26.4 6.7-26.4-6.7-26.4-6.7zM705.8 585.6s13.7 8.4 14 10.9-14-11-14-11zM702.6 604.6s2.1 9.5 5.6 10.9-5.6-11-5.6-11zM495 188.9v.3c-.5 3.1-1.8 6.5-4.7 7.6a7.5 7.5 0 01-5.3-.5c-5-2.2-9.5-7.5-14.8-6.2-2.5.6-4.3 2.5-5.6 4.9a24.6 24.6 0 00-2 5.4c-1 3.9-1.8 8.1-.3 11.9a12.1 12.1 0 001 1.7c1.4 2.3 3.4 4.2 4.8 6.5 1.7 2.9 2.1 7.2-.6 9.1a5.5 5.5 0 01-4.6.7 27.7 27.7 0 01-5.7-2.5c-3.5-1.9-8-3-11.4-.9-1.1.7-2 1.8-3.2 2.5a11.5 11.5 0 01-7.7 1.6c-6.4-.6-8.7-4.6-13.6-7.8-3.6-2.3-11-3.2-13.1 1.5-1.4 3 .6 6.7-.7 9.8s-5.6 4-7.5 6.8c-2.6 3.8-.2 9.2-2 13.3a6.8 6.8 0 01-1.2 1.8 60.2 60.2 0 0185-85l2.8-.1 8.2-.4a23 23 0 011.6 4.4 36.6 36.6 0 01.7 13.6z" transform="translate(-51.5 -54.6)" opacity=".1"/>
  <path d="M406.8 223.3c-1.4 3 .6 6.7-.7 9.8s-5.6 4-7.5 6.8c-2.6 3.8-.2 9.2-2.1 13.3-2.2 4.8-8.7 5.5-13.7 4.1a28 28 0 01-18.7-17.4c-3.3-9.7-1.2-20.3-2-30.5a50.5 50.5 0 00-2.8-12.8c-1.5-4-3.5-8-4-12.2a18.1 18.1 0 019.8-17.8c4.2-2 9.2-2.5 12.2-6 2.3-2.6 2.8-6.3 3.9-9.7 2.9-9 11.5-16.3 21-16.3 7.6.1 15 4.6 22.4 2.8 4.2-1 8-4 12.3-3.5a15.6 15.6 0 015.9 2.1 227.2 227.2 0 0132.7 21.5 36.8 36.8 0 006.9 4.7 43 43 0 014.7 2.2c3.2 2 4.9 5.8 5.8 9.5a36.3 36.3 0 01.7 13.6c-.4 3.2-1.7 6.8-4.7 7.9a7.5 7.5 0 01-5.3-.5c-5-2.2-9.5-7.4-14.8-6.2-4.4 1-6.5 6-7.6 10.3-1 3.9-1.8 8.2-.3 11.9 1.3 3.1 4 5.4 5.7 8.2s2.2 7.2-.5 9.2c-3 2.1-7-.2-10.4-2-3.5-1.8-8-3-11.3-.8-1.2.7-2 1.8-3.2 2.6a11.6 11.6 0 01-7.7 1.6c-6.4-.7-8.8-4.7-13.6-7.8-3.6-2.4-11-3.3-13.1 1.4z" transform="translate(-51.5 -54.6)" fill="#474463"/>
  <path d="M601.4 365.8c-.3 1.5-2.4 1.7-2.8 3.1a46.3 46.3 0 01-26.4 32c-2.6-4-4.7-6.7-4.7-6.7s25.3-46.5 26.7-40.2c.5 2 3.4 6.6 7.2 11.8z" transform="translate(-51.5 -54.6)" opacity=".1"/>
  <path d="M602.1 356.1a46.5 46.5 0 11-46.4-46.5 46.3 46.3 0 0146.4 46.5z" transform="translate(-51.5 -54.6)" fill="#ffc1c8"/>
  <path d="M576.4 756l.4 6.2c-4 1-11.8 2.1-16.3-.7-5.9-3.5-14.5-4.4-22.4-9.3a33.3 33.3 0 00-.2-6.5zM643.1 769.9l-.5 2.2s-31-3.2-40-7.5l-.1-7 39 4.8z" transform="translate(-51.5 -54.6)" opacity=".1"/>
  <path d="M636.1 630.3c-2.1 5.6-3.2 6.7-1 9.5s1 17.6-2.4 19-16 9.8-16 9.8 7 9.2 7.3 13a11.8 11.8 0 002.7 6.7s10.8 23.2 13 30.6 4.1 19 4.1 19-3.8 10.6-1.2 16.6 0 14.8 0 14.8-37.8-4-42-8.9-1.4-16.1-1.4-16.1a40.4 40.4 0 00-5.2-14.1c-4.3-6.7 1-13.7 0-14s-4.3-4.3-7.4-10.6-5.2-4-5.2-4 4.1 35.6 0 38.8-4.7 1.8-3.6 6a108.8 108.8 0 011.7 12.3s-12.6 3.9-19 0-15.8-4.6-24.2-10.5 3.8-16.2 5.9-17.6-.7-21.9-.7-21.9l-2.8-20s9.5 2 6.4-5.6-6.8-34.5-8.5-38.8 6-9.8 4.9-12.6 4.6-19 4.6-19 .3-13.4 3.8-16c1.4-.8 2.3-3.8 2.8-7a88.1 88.1 0 001.1-11.5s80.6-5.6 93.6 2c5.9 3.6 5.5 10 3 16.5-3 7.9-9.1 16-10.7 18.9-2.9 5.4-1.5 9-3.6 14.7z" transform="translate(-51.5 -54.6)" fill="#575988"/>
  <path d="M650.3 596.7c-10 2.8-23.3 7-25.5 9.3-3.5 3.9-15.4-21.8-15.4-21.8s.7 19.3-15.2 11.2c-13.7-7-35.8-6-41.5-5.7a88.1 88.1 0 001-11.5s80.6-5.7 93.7 2c5.8 3.6 5.4 10 3 16.5z" transform="translate(-51.5 -54.6)" opacity=".1"/>
  <path d="M609.4 384s7-8.5 8.4-5.4 9.7 9.5 9.7 9.5 2.4 7.4 6.6 8.5 35.4 43.3 35.4 43.3l-11.2 22.8-9.2 55.7s.4 8.8-2 12-12 2.4-7.7 6.3 10.8 7.4 14.3 25 7.7 27.8 7.7 27.8-33 8.4-36.6 12.3-15.4-21.8-15.4-21.8.7 19.3-15.2 11.2-43-5.6-43-5.6v-20.8s5.4-8 2.5-13.7 2-16.2 2-16.2-1.6-11-4.4-17.3-1.8-36.2-1.8-36.2-2.1-19.4-.2-29.2a87.4 87.4 0 018.7-24.5c3.9-7.5 6.3-14.6 5.3-17.4s9.3-9 9.3-9l5.7 9.3 1.5 5.6s30.3-21.7 29.6-32.3z" transform="translate(-51.5 -54.6)" fill="#dce6f2"/>
  <path d="M660 432.8s19.7 19.4 21.8 22.5 9.2 19.7 0 24.7-45 12.7-48.5 10-25 3-25 3-35.9 8.9-28.1-5.6 26-12 26-12 29.6 0 32.8-3 27-9.3 21.6-22.3-.6-17.3-.6-17.3z" transform="translate(-51.5 -54.6)" fill="#ffc1c8"/>
  <path d="M602.1 519.4s-45.9 39.8-41.3 39.8 41.3-39.8 41.3-39.8zM632.7 535.6s-14.6 3.5-11.7 5.6 11.7-5.6 11.7-5.6zM581.3 439.2s18.2 1.6 15 7.3-15-7.3-15-7.3zM570 610s-2.5 7.3 0 11 0 13 0 13v32s-.4 23.3 8 31.4zM545.8 709.8s5 7.2 5.7 9.9-5.7-9.9-5.7-9.9zM547 695.4s11.5-2.1 13.3-.9-13.2.9-13.2.9zM543.7 738.5s-3.3.3 3.4 4 19.7 8.3 19.8 6.7-23.2-10.7-23.2-10.7zM592.7 703.5c1.2 0 15.9-1 15 1.4s-15-1.4-15-1.4zM612.7 682.9s3.3-5.8 4.6-3.4-4.6 3.4-4.6 3.4zM602.1 356.1a46.3 46.3 0 01-1.8 12.8c-1.9 1.7-5.2 1.8-7.6.4-2.8-1.5-4.7-4.3-6.5-7s-3.9-5.3-6.9-6.4c-3.7-1.4-8 0-11.3 2.3s-6 5.5-9 8-7 4.6-11 4c-2.6-.4-4.8-1.8-7-3.2-3-2-6.2-4.9-9.5-6.1s-6 1-9.1 1c-2.5.9-5.2 3-4.7 5.5a8.6 8.6 0 001.2 2.7 11.3 11.3 0 01-1.4 12.4A46.5 46.5 0 11602 356z" transform="translate(-51.5 -54.6)" opacity=".1"/>
  <path d="M522.3 360.5c-2.4 1-5.2 3-4.7 5.6a9 9 0 001.3 2.6c3 5.2.5 12.7-5 15.1a4.4 4.4 0 01-2.8.5 5 5 0 01-2-1.2 18.5 18.5 0 01-5.7-10c-.9-4-.4-8.2-.8-12.3s-1.9-8.2-2.3-12.3a11.4 11.4 0 01.6-6.1 14.1 14.1 0 012.5-3.5c2.8-3 5.8-6.3 7.2-10.3 2.2-6.3.6-14.3 5.4-19 2.3-2 5.5-2.9 8.3-4.2a57.9 57.9 0 007.5-4.8c9-6.2 20-11 30.8-8.8a43.8 43.8 0 0112.2 5 137.3 137.3 0 0120 13.4 31.1 31.1 0 017 7.2 25 25 0 013.1 7.7 43.8 43.8 0 01.6 18c-1 5.8-3.3 11.5-3.4 17.5 0 2 .2 4.1-.9 5.9-1.6 2.7-5.7 3-8.5 1.4s-4.6-4.3-6.4-7-4-5.3-6.9-6.4c-3.8-1.4-8 0-11.4 2.3s-5.8 5.5-9 8-7 4.6-11 4c-2.5-.4-4.8-1.8-7-3.2-3-2-6.2-4.9-9.5-6.1s-6 1-9.2 1z" transform="translate(-51.5 -54.6)" fill="#794f6a"/>
  <path d="M629 432.8s-51.7 47.9-41.1 71.8 57-18.3 57-18.3l16.5-38.3z" transform="translate(-51.5 -54.6)" fill="#f8bdc5"/>
  <g opacity=".1">
    <path d="M513.9 381a4.4 4.4 0 01-2.8.4 4.8 4.8 0 01-2-1.2 18.5 18.5 0 01-5.8-10c-.8-4-.3-8.2-.7-12.3s-1.9-8.1-2.3-12.3l-.1-.6a15.8 15.8 0 000 3.4c.5 4.2 2 8.2 2.4 12.4s-.1 8.3.8 12.3a18.5 18.5 0 005.7 10 4.9 4.9 0 002 1.1 4.4 4.4 0 002.8-.4c4.3-1.9 6.7-7 6.2-11.5a11 11 0 01-6.2 8.7zM605.4 340.3c-1 5.8-3.3 11.5-3.3 17.4 0 2 .1 4.2-1 6-1.6 2.7-5.7 3-8.5 1.4s-4.6-4.3-6.4-7-3.9-5.3-6.9-6.4c-3.7-1.5-8 0-11.3 2.3s-6 5.5-9 8-7 4.6-11 4a19 19 0 01-7-3.2c-3-2-6.2-4.9-9.5-6.2s-6 1-9.1 1c-2.5 1-5.2 3-4.8 5.6a4.1 4.1 0 00.3.8 7.8 7.8 0 014.5-3.5c3 0 5.8-2.3 9-1s6.6 4.2 9.6 6c2.2 1.5 4.4 2.9 7 3.3 4 .6 8-1.4 11-4s5.7-5.7 9-8 7.6-3.7 11.3-2.3c3 1.1 5 3.8 6.9 6.4s3.6 5.5 6.4 7 7 1.3 8.6-1.4c1-1.8.8-4 .9-6 0-5.9 2.3-11.6 3.3-17.4a44.3 44.3 0 00.6-9.1 44.4 44.4 0 01-.6 6.3z" transform="translate(-51.5 -54.6)"/>
  </g>
  <path d="M567.1 189.3s-19 34.5 7 52 28.5 16 28.5 16-.3 4.1 0 5.2 7 3.5 7 3.5 8.1 13 19.7 18.7 13.8 19 13.8 19 0 4.5 6 8.8 10.6 16.5 10.6 16.5v11.3c0 1.7 2 7-2.5 7.5s-.7 11.1-.7 11.1-5 6-3.9 8.8-2 8.5-2 8.5-4 5.6-3.6 6.6-4.2 5-3.2 7.4-5.2 5.7-4.2 8.5-4.5 4.2-4.5 4.2L620 438.1s32 7 40.3 24.6l40.3-73.9s22.5-55.2 23.2-58.7-4.9-16.2-4.9-16.2l-27.4-50-41.2-58.1s-32.8-69.7-83-16.5z" transform="translate(-51.5 -54.6)" opacity=".1"/>
  <path d="M607.8 203.8s-49.5 17.4-23.4 35 28.5 15.8 28.5 15.8-.4 4.2 0 5.3 7 3.5 7 3.5 8 13 19.7 18.7 13.7 19 13.7 19 0 4.6 6 8.8 10.6 16.5 10.6 16.5v11.3c0 1.7 2 7-2.5 7.5s-.7 11.1-.7 11.1-5 6-3.9 8.8-2 8.5-2 8.5-4 5.6-3.6 6.7-4.2 4.9-3.2 7.4-5.3 5.6-4.2 8.4-4.5 4.2-4.5 4.2L630 435.5s26.3 1.4 34.7 19l45.9-68.2s22.5-55.3 23.2-58.8-4.9-16.2-4.9-16.2l-27.4-50-62.7-36.1s19.2-74.5-31.1-21.4z" transform="translate(-51.5 -54.6)" opacity=".1"/>
  <path d="M570 189.3s-19 34.5 7 52 28.5 16 28.5 16-.4 4.1 0 5.2 7 3.5 7 3.5 8 13 19.7 18.7 13.7 19 13.7 19 0 4.5 6 8.8 10.6 16.5 10.6 16.5v11.3c0 1.7 2.1 7-2.5 7.5s-.7 11.1-.7 11.1-4.9 6-3.8 8.8-2.2 8.5-2.2 8.5-3.8 5.6-3.5 6.6-4.2 5-3.1 7.4-5.3 5.7-4.3 8.5-4.5 4.2-4.5 4.2l-15.2 35.2s32 7 40.3 24.6l40.3-73.9s22.5-55.2 23.2-58.7-4.9-16.2-4.9-16.2l-27.4-50-41.2-58s-32.7-69.8-83-16.6z" transform="translate(-51.5 -54.6)" fill="#3bb8d7"/>
  <g opacity=".1">
    <path d="M362 206.6a50.2 50.2 0 00-2.7-12.8c-1.5-4-3.5-8-4-12.2v-.4a16.3 16.3 0 000 3.2c.5 4.3 2.5 8.2 4 12.2a50.1 50.1 0 012.8 12.8l.2 5c0-2.6 0-5.2-.2-7.8zM396.5 250.4c-2.2 4.7-8.7 5.5-13.7 4.1a28 28 0 01-18.7-17.4 41.3 41.3 0 01-2-13.3c0 5.5.2 10.9 2 16a28 28 0 0018.7 17.5c5 1.4 11.5.7 13.7-4 .9-2 .8-4.4.8-6.7a10.3 10.3 0 01-.8 3.8zM493.6 184.7c-.4 3.2-1.7 6.8-4.7 7.9a7.5 7.5 0 01-5.3-.5c-5-2.2-9.5-7.5-14.8-6.2-4.4 1-6.5 6-7.6 10.3a25.3 25.3 0 00-1 8.4 33 33 0 011-5.6c1.1-4.4 3.2-9.3 7.6-10.3 5.3-1.3 9.7 4 14.8 6.2a7.4 7.4 0 005.3.5c3-1.1 4.3-4.7 4.8-8a36.4 36.4 0 00.2-6l-.3 3.3zM466.1 225.4c-3 2.2-7-.1-10.4-1.9-3.5-1.8-8-3-11.3-.8-1.2.7-2 1.7-3.2 2.5a11.5 11.5 0 01-7.7 1.6c-6.4-.6-8.8-4.7-13.6-7.8-3.6-2.3-11-3.3-13.2 1.4a8.5 8.5 0 00-.4 4.4 5.6 5.6 0 01.4-1.5c2.2-4.8 9.6-3.8 13.2-1.5 4.8 3.1 7.2 7.2 13.6 7.8a11.6 11.6 0 007.7-1.6c1.1-.7 2-1.8 3.2-2.5 3.4-2.1 7.8-1 11.3.9 3.3 1.7 7.4 4 10.4 1.8 1.8-1.2 2.2-3.5 1.8-5.7a4.6 4.6 0 01-1.8 3zM406 230.3c-1.3 3.1-5.5 4-7.4 6.8-1.5 2.1-1.4 4.7-1.3 7.4a8.3 8.3 0 011.3-4.6c1.9-2.8 6.1-3.7 7.5-6.8a8.7 8.7 0 00.4-4.3 5.6 5.6 0 01-.4 1.5z" transform="translate(-51.5 -54.6)"/>
  </g>
</svg>
