<svg id="9a7f0d87-1824-4b3e-ab06-04e58600b515" data-name="Layer 1" xmlns="http://www.w3.org/2000/svg" xmlns:xlink="http://www.w3.org/1999/xlink" width="1110.7" height="810.9" aria-hidden="true">
  <defs>
    <linearGradient id="96fd64a0-6351-4330-b812-2613840b356c" x1="625.3" y1="588.2" x2="625.3" y2="218.7" gradientUnits="userSpaceOnUse">
      <stop offset="0" stop-color="gray" stop-opacity=".3"/>
      <stop offset=".5" stop-color="gray" stop-opacity=".1"/>
      <stop offset="1" stop-color="gray" stop-opacity=".1"/>
    </linearGradient>
    <linearGradient id="65aaeda9-82be-4b39-9919-e403ba36e3f2" x1="933.2" y1="777.5" x2="933.2" y2="311.7" xlink:href="#96fd64a0-6351-4330-b812-2613840b356c"/>
    <linearGradient id="05d1d1fb-9375-46f7-a562-a16a81ed75db" x1="187.3" y1="814.4" x2="187.3" y2="271.3" xlink:href="#96fd64a0-6351-4330-b812-2613840b356c"/>
  </defs>
  <ellipse cx="562" cy="790.3" rx="478.2" ry="29.2" transform="rotate(-3.2 195.6 1780.3)" fill="#3bb8d7" opacity=".1"/>
  <path d="M67.3 437.1C85 509.4 122.1 571.8 181 602c122.2 62.9 397.8 30.4 603.4-6.8a475.5 475.5 0 00267.9-147.1zM1145.9 97.3H1033a9.4 9.4 0 110-18.8h19.5a9.4 9.4 0 110-18.7h-14a9.4 9.4 0 110-18.8h59a160 160 0 00-46-12.2C890.9 9 833.6 22.1 813.4 35.6a230 230 0 01-82.6 34.8c-99 19.6-284.4 43.3-452.3-7.6C195 37.5 132.9 80.3 95.7 151.7h1069.8a162 162 0 00-13.3-56.7 10 10 0 01-6.3 2.3zM743.6 325h-1.4l-15.4-1-147.2-8.2-15.9-1-234.3-13-65.7-3.8-10.4-.6-9.2-.5-186.3-10.5a458.9 458.9 0 004.4 126l156.7 5.5 12.5.5h2.2l74.4 2.7h4l8.6.4 75 2.6 10.3.4 35.8 1.3h.7l5.2.1 18 .7 15.7.5 30 1h.7l2.6.2h3.5l47.8 1.8 13.4.4h.6l6.4.3h1.7l5.7.2 17.3.6 6.5.2 8.3.3h.3l11.5.4 33.1 1.2 9.2.3h1l44.1 1.6 25.7.9 32 1.1 5 .2 8.3.3 30 1 226.8 8a446.6 446.6 0 0068.9-100.9zm-426.3 70a10 10 0 01-6.5-2.4 9.5 9.5 0 01-2-2.5 9.1 9.1 0 01-1.3-4.5 9 9 0 011.7-5 10.4 10.4 0 011-1.4 9.9 9.9 0 017-2.9h19.6a9.4 9.4 0 110-18.8h-14a9.1 9.1 0 01-.8 0 9.4 9.4 0 01.9-18.7h112.8a9.4 9.4 0 110 18.8h14a9.4 9.4 0 110 18.7H430a9.4 9.4 0 110 18.8zm848.2-242.7l-778.4 18.2-85.5 2-217.8 5.1A400 400 0 0058 285h1088.6a430.4 430.4 0 0015.8-68.5c3.2-22.4 4.5-44 3.2-64.2zm-888 82.9H258a9.6 9.6 0 019.8 9.4v.5a9.3 9.3 0 01-4.4 7.3 10 10 0 01-5.4 1.5H145.2a9.4 9.4 0 110-18.7h19.5a9.4 9.4 0 110-18.8h-14a9.4 9.4 0 110-18.7h112.9a9.4 9.4 0 110 18.7h14a9.9 9.9 0 014.6 1.2 9.3 9.3 0 015 8.2 9.6 9.6 0 01-9.7 9.4z" transform="translate(-55.4 -18.7)" fill="#3bb8d7" opacity=".1"/>
  <g opacity=".1">
    <path d="M590.5 577.7s28.6-67.7 81.9-92.7a113.2 113.2 0 0052.2-48.8 182.4 182.4 0 0013-31.6" fill="none" stroke="#535461" stroke-miterlimit="10" stroke-width="2"/>
    <path d="M826.5 407.3c-5.5 6.7-34.3 16.5-34.3 16.5s3.5-29.1 9-35.8a16.6 16.6 0 0122.7-2.5 15.1 15.1 0 012.6 21.8zm-9.9 53.2c-8.4 2.7-38.1-4-38.1-4s19.4-22.7 27.9-25.4 17.6 1.6 20.4 9.7a15.4 15.4 0 01-10.1 19.7zm-53.5 62.9c-8.7-1.7-30.8-22-30.8-22s28.7-10.2 37.4-8.4a15.6 15.6 0 0112.5 18.4 16.2 16.2 0 01-19 12zm-51.6 38.8c-9-.3-34.2-16.7-34.2-16.7s26.4-14.7 35.3-14.4 16 7.5 15.6 16.1-7.8 15.3-16.7 15zm39.4-124.8c1.1 8.6 20.4 31.3 20.4 31.3s12.8-26.7 11.6-35.2-9.2-14.5-18-13.5-15.2 9-14 17.4zM691 483.6c3.8 7.8 29.3 23.9 29.3 23.9s3.9-29.2.1-37A16.4 16.4 0 00699 463a15.3 15.3 0 00-8 20.6zM639.4 536c2.3 8.3 24.6 28.4 24.6 28.4s9-28.1 6.6-36.4-11.2-13.2-19.8-11a15.5 15.5 0 00-11.4 19z" transform="translate(-55.4 -18.7)" fill="#3bb8d7"/>
    <path d="M826.5 407.3c-5.5 6.7-34.3 16.5-34.3 16.5s3.5-29.1 9-35.8a16.6 16.6 0 0122.7-2.5 15.1 15.1 0 012.6 21.8zm-9.9 53.2c-8.4 2.7-38.1-4-38.1-4s19.4-22.7 27.9-25.4 17.6 1.6 20.4 9.7a15.4 15.4 0 01-10.1 19.7zm-53.5 62.9c-8.7-1.7-30.8-22-30.8-22s28.7-10.2 37.4-8.4a15.6 15.6 0 0112.5 18.4 16.2 16.2 0 01-19 12zm-51.6 38.8c-9-.3-34.2-16.7-34.2-16.7s26.4-14.7 35.3-14.4 16 7.5 15.6 16.1-7.8 15.3-16.7 15zm39.4-124.8c1.1 8.6 20.4 31.3 20.4 31.3s12.8-26.7 11.6-35.2-9.2-14.5-18-13.5-15.2 9-14 17.4zM691 483.6c3.8 7.8 29.3 23.9 29.3 23.9s3.9-29.2.1-37A16.4 16.4 0 00699 463a15.3 15.3 0 00-8 20.6zM639.4 536c2.3 8.3 24.6 28.4 24.6 28.4s9-28.1 6.6-36.4-11.2-13.2-19.8-11a15.5 15.5 0 00-11.4 19z" transform="translate(-55.4 -18.7)" opacity=".3"/>
  </g>
  <g opacity=".1">
    <path d="M611.9 475.3s3.6-73 45.2-113.6a109 109 0 0032.5-62.6 179.4 179.4 0 001.4-34" fill="none" stroke="#535461" stroke-miterlimit="10" stroke-width="2"/>
    <path d="M772.5 258c-3 8.1-26.7 26.5-26.7 26.5s-6.8-28.5-3.9-36.7 12.1-12.4 20.6-9.5a15.4 15.4 0 0110 19.7zm9 53.4c-7 5.2-37.4 8.3-37.4 8.3s10.5-27.6 17.5-32.8a16.6 16.6 0 0122.7 2.7 15.1 15.1 0 01-2.8 21.8zm-28.8 76.3c-8.9 1.2-36.7-11-36.7-11s23.6-18.7 32.4-19.8 17 4.8 18.2 13.3-5 16.4-14 17.5zm-35.3 53.1c-8.6 2.6-38-4.8-38-4.8s19.8-22.3 28.3-24.9 17.6 2 20.3 10.2a15.4 15.4 0 01-10.6 19.5zm-5.9-130.2c4 7.6 30 22.9 30 22.9s2.9-29.2-1.2-36.9a16.5 16.5 0 00-21.7-6.9 15.3 15.3 0 00-7.1 20.9zM671 373.1c6.2 6.2 35.8 13.2 35.8 13.2s-6.4-28.6-12.6-34.8a16.6 16.6 0 00-22.9-.3 15.1 15.1 0 00-.3 22zm-30.7 66c5 7.1 33 18.9 33 18.9s-1.3-29.3-6.3-36.4a16.6 16.6 0 00-22.5-4 15.2 15.2 0 00-4.2 21.5z" transform="translate(-55.4 -18.7)" fill="#3bb8d7"/>
  </g>
  <ellipse cx="400.6" cy="687.6" rx="18.1" ry="2.5" fill="#3bb8d7" opacity=".1"/>
  <ellipse cx="331.4" cy="694.6" rx="18.1" ry="2.5" fill="#3bb8d7" opacity=".1"/>
  <ellipse cx="250" cy="685.1" rx="18.1" ry="2.5" fill="#3bb8d7" opacity=".1"/>
  <ellipse cx="359.1" cy="714.6" rx="12.8" ry="1.8" fill="#3bb8d7" opacity=".1"/>
  <ellipse cx="287.3" cy="712.8" rx="12.8" ry="1.8" fill="#3bb8d7" opacity=".1"/>
  <path d="M386.4 712.8s25.3-83-4-116.2a55 55 0 00-58-18.9 20.5 20.5 0 00-13.2 11c-3.9 8.4-3.2 22 24.3 38 46 26.6 48.9 63.2 48.9 63.2z" transform="translate(-55.4 -18.7)" fill="#3bb8d7"/>
  <path d="M328.5 589.5s74.6 23.3 57.9 123.3M372 597.9s-10.2 6.9-7 17.3M336 604s6.3-6.4 14-2.9m15.5 35.1s11-5.6 13.9 1.4m13.4 10.2s-8.3-.6-8.5 3.3" transform="translate(-55.4 -18.7)" fill="none" stroke="#565987" stroke-miterlimit="10"/>
  <path d="M387.4 713.4s-29.6-60.3-37.8-59c-3.9.7-5.6 4.5-6.4 8.3a24.3 24.3 0 001.6 14.7 65 65 0 0042.6 36z" transform="translate(-55.4 -18.7)" fill="#3bb8d7"/>
  <path d="M349.8 665.9S381 711 387 713" transform="translate(-55.4 -18.7)" fill="none" stroke="#565987" stroke-miterlimit="10"/>
  <path fill="none" stroke="#565987" stroke-miterlimit="10" d="M291.6 654.2h7.3m1.4 16.5l11.4.5m-4.4-13.7l-1.3 6m13.4 12.1l-.3 5.4"/>
  <path d="M386.5 713.4s29.7-60.3 37.8-59c3.9.7 5.7 4.5 6.5 8.3a24.3 24.3 0 01-1.6 14.7 65 65 0 01-42.7 36z" transform="translate(-55.4 -18.7)" fill="#3bb8d7"/>
  <path d="M424 665.9S393 711 387 713" transform="translate(-55.4 -18.7)" fill="none" stroke="#565987" stroke-miterlimit="10"/>
  <path fill="none" stroke="#565987" stroke-miterlimit="10" d="M371.6 654.2h-7.3m-1.4 16.5l-11.4.5m4.5-13.7l1.2 6m-13.3 12.1l.2 5.4"/>
  <path d="M335.6 727.5a5.2 5.2 0 01-1.7-2.5 2.3 2.3 0 011.2-2.6c1-.4 2.2.3 3.1 1s2 1.7 3 1.5a4.6 4.6 0 01-1.4-4.3 1.8 1.8 0 01.4-.9c.6-.6 1.7-.3 2.4.2 2.3 1.6 3 4.7 3 7.5a13.9 13.9 0 000-3.1 3.2 3.2 0 011.1-2.7 3.5 3.5 0 011.8-.5 3.7 3.7 0 012.9.9 2.9 2.9 0 01-.1 3.5 11.2 11.2 0 01-3 2.4 6.6 6.6 0 00-2.2 2 1.5 1.5 0 00-.1.3h-6.5a18.3 18.3 0 01-3.9-2.7zm113-24.3a5.2 5.2 0 01-1.7-2.5 2.3 2.3 0 011.2-2.6c1-.4 2.2.3 3.1 1s1.9 1.7 3 1.5a4.6 4.6 0 01-1.4-4.3 1.8 1.8 0 01.4-.8c.6-.7 1.7-.4 2.4 0 2.3 1.7 3 4.8 3 7.6a13.9 13.9 0 000-3 3.2 3.2 0 011-2.8 3.5 3.5 0 011.9-.4 3.7 3.7 0 012.8.8 2.9 2.9 0 010 3.5 11 11 0 01-3 2.4 6.4 6.4 0 00-2.2 2 1.5 1.5 0 00-.2.4h-6.4a18 18 0 01-4-2.8zM411 727.5a5.2 5.2 0 01-1.8-2.5 2.3 2.3 0 011.2-2.6c1.1-.4 2.3.3 3.2 1s1.8 1.7 3 1.5a4.6 4.6 0 01-1.5-4.3 1.8 1.8 0 01.4-.9c.6-.6 1.7-.3 2.4.2 2.3 1.6 3 4.7 3 7.5a13.9 13.9 0 000-3.1 3.2 3.2 0 011.1-2.7 3.5 3.5 0 011.8-.5 3.7 3.7 0 012.9.9 2.9 2.9 0 01-.1 3.5 11 11 0 01-3 2.4 6.4 6.4 0 00-2.2 2 1.5 1.5 0 00-.1.3h-6.5a18 18 0 01-3.9-2.7zm-106.8-49.1s-2.5 3.2 1 8 6.5 8.8 5.4 11.7c0 0-5.4-8.8-9.7-9s-1.5-5.4 3.3-10.7z" transform="translate(-55.4 -18.7)" fill="#3bb8d7"/>
  <path d="M304.2 678.4a3.7 3.7 0 00-.5 1c-4.3 5-6.5 9.6-2.4 9.7 3.7.2 8.3 7 9.4 8.7l-.1.3c0 .1-5.4-8.8-9.7-9s-1.5-5.4 3.3-10.7z" transform="translate(-55.4 -18.7)" opacity=".1"/>
  <path d="M299.7 682.5c0 1 0 2 .2 2s.3-1 .3-2-.1-.6-.3-.6-.2-.6-.2.6z" transform="translate(-55.4 -18.7)" fill="#ffd037"/>
  <path d="M298.1 683.8c1 .5 1.8.8 2 .7s-.7-.7-1.7-1.2-.6-.2-.7 0-.6 0 .4.5z" transform="translate(-55.4 -18.7)" fill="#ffd037"/>
  <path d="M317 678.4s2.3 3.2-1.2 8-6.4 8.8-5.3 11.7c0 0 5.4-8.8 9.7-9s1.5-5.4-3.3-10.7z" transform="translate(-55.4 -18.7)" fill="#3bb8d7"/>
  <path d="M317 678.4a4.2 4.2 0 01.4 1c4.3 5 6.5 9.6 2.5 9.7-3.8.2-8.4 7-9.5 8.7l.2.3c0 .1 5.3-8.8 9.6-9s1.5-5.4-3.3-10.7z" transform="translate(-55.4 -18.7)" opacity=".1"/>
  <path d="M321.4 682.5c0 1 0 2-.2 2s-.3-1-.3-2 .1-.6.3-.6.2-.6.2.6z" transform="translate(-55.4 -18.7)" fill="#ffd037"/>
  <path d="M323 683.8c-1 .5-1.8.8-1.9.7s.7-.7 1.6-1.2.6-.2.7 0 .6 0-.4.5z" transform="translate(-55.4 -18.7)" fill="#ffd037"/>
  <path d="M320.7 697.7s-6.8-.2-8.8-1.6-10.4-3.2-11-.9-10.1 11.6-2.5 11.6 17.8-1.1 19.8-2.4 2.5-6.7 2.5-6.7z" transform="translate(-55.4 -18.7)" fill="#a8a8a8"/>
  <path d="M298.3 706a69 69 0 0019.8-2.4c1.5-1 2.1-4.4 2.3-6h.3s-.5 5.5-2.5 6.8-12.1 2.5-19.8 2.4c-2.2 0-3-.8-2.9-2 .3.8 1.1 1.2 2.8 1.2z" transform="translate(-55.4 -18.7)" opacity=".2"/>
  <rect x="230.5" y="568.4" width="17.7" height="39.5" rx="8.8" ry="8.8" transform="rotate(72.6 224.4 541.1)" fill="#3bb8d7"/>
  <path d="M731 315s-3.1-23.8-19.8-24.3 2.7 29.4 4.6 32.1c1.2 1.6.3 6-.7 9.3a69 69 0 00-1.7 7.4 17.2 17.2 0 01-3.8 8.5 42.7 42.7 0 00-6.7 11.3s-4.9.2-6.7-1-13.2-5.4-13.7-4.7c0 0-.4.2-.8.1a13.8 13.8 0 01-2-.2l-.4-1.7-3-1.5 1-3a4.5 4.5 0 011.3-1.8c1.5-1.3 3.8-.8 5.6-1.4a6.4 6.4 0 00.6-.3l.2-.1.4-.2.2-.2.3-.2.2-.2a2.4 2.4 0 01.3-.2l.2-.3.2-.2.2-.3.2-.2.1-.3.2-.3.1-.3.2-.3a3 3 0 000-.3l.2-.4.1-.3v-.3a3.4 3.4 0 00.2-.4V337.5a2.7 2.7 0 010-.3V336a10 10 0 00-.1-1.3c-.5-2-1.4-4.1-.8-6a1.7 1.7 0 01.1-.1 3.1 3.1 0 01.3-.6 4.1 4.1 0 011.7-1.3l1.8-.8a14 14 0 005.8-4 9.2 9.2 0 002-4.5 7.2 7.2 0 000-2.3v-.2a21.2 21.2 0 01-1-4 5.1 5.1 0 01.3-1.6l.3-.7v-.2l.4-.7.5-.7v-.1l.5-.7 1.1-1.6.5-.8.4-.8a9 9 0 00.4-1v-.2l.3-1a2 2 0 010-.3v-.9a1.5 1.5 0 010-.2v-1a2.4 2.4 0 000-.3v-1a27.2 27.2 0 00-.6-3.8c-.5-1.8-1.2-3.8-3-4.3a7.2 7.2 0 00-2.7 0 13 13 0 01-8-2 64.9 64.9 0 01-7-5c-1.4-1.3-3.3-2.4-5.1-1.9a14 14 0 00-1.9 1 2 2 0 01-.4.1 9.6 9.6 0 01-2 .2h-.1l-1.8-5.3a26.5 26.5 0 00-7.4-11.6 29.9 29.9 0 00-6.8-3.7c-7.4-3.2-15.4-6.5-23-4.2-3.4 1-6.4 3-9.3 5l-12.3 8.4-1-.3c-1.7-.5-3.6-.8-4.7-1.2h-.2c-3.4-1.3-6.9-4.1-7-8a8.5 8.5 0 01.2-1.7 28.1 28.1 0 011.1-3.5l.7-2.1.2-.7.3-1.4.2-1 .2-1 .2-1.2.1-.5.3-3.3.1-1.7v-2a41 41 0 00-6.9-21.8 13 13 0 00-1.3 5.4 2 2 0 01-.2 1 1.3 1.3 0 01-2 0 18.3 18.3 0 01-1.3-1.6 3.4 3.4 0 00-4.2-.5 3.8 3.8 0 00-1.5 4 15.7 15.7 0 00-15.7 1 5.8 5.8 0 00-2.7 3.5 4 4 0 00.4 2.8c.9 1.7 2.5 3.2 3.6 4.9a41.9 41.9 0 00-6.5 14.1l-1 1.1a30.9 30.9 0 00-5.5 4.5c-1.3 1.3-2.3 3.2-2 5l-15.2 19.1s-16.3 22.3-18 27.3c-.3 1-7 8.8 3.1 18.2s12 10.4 13.6 13.6c.8 1.9 7.4 5.3 12.7 7.8l1.9.9c-.4 5.5 2.1 12 10 19.4a13.4 13.4 0 01.2 2.7c0 6.5 2.9 17.4 2.9 17.4s4.2 6.5-1.2 10.8-6.6 6.8-3.3 10.2v.2l-.4 9.8h-1.4s-13 9-15.7 14.4-7.6 19.4-7.6 19.4-1 13.6-2.5 15.6 0 10.4 0 10.4-.2 12.8 3 15.9 2.2 10.5 2.2 10.5a35.8 35.8 0 00.5 5c-3.4-1-9.4-1.7-10.5 6.1a84 84 0 00-.7 18s-3 13.3-5.1 17-6.9 37.3 13.8 31.6c0 0 3.1-1 5-5.2a23.4 23.4 0 002.2-2.7c-.1 6.6 1.7 12.1 8 10.7 0 0 3.7-.8 5.4-8.5a79.3 79.3 0 009-10.5l5.9-14.7.4-1.1 5.5-6a148.4 148.4 0 0028 6 68.9 68.9 0 008.4.3 64.7 64.7 0 0014.5-1.3 81 81 0 0037.6-2.8c19.6-7.6 6.1-24.2 2.7-27.8s-14.3-14-15.2-14.8 2-60.6-2.2-62.3-18-16.7-18-16.7l1.4-9.6s6.8.8 7.1-5.3 0-15.1 0-15.1l9-16.1s10.9-6.5 15.8-8.7l.9.5a46.5 46.5 0 0021 5.7c5.3-1 16 1.4 23 2s10-6.2 9.2-7 2.8-8.5 2.8-8.5 6.5-31.6 5-36.6 1-14 1-14zM555.2 517.7l1.7.8a95.6 95.6 0 009.8 3.5l6.2 2.2-13.8.5a13.6 13.6 0 01-6-2.8 10.2 10.2 0 012-4.3zm92.4-176.6a13 13 0 01-.3-1l2.5-.7-2 2.2-.2-.6zm-103-25s4.4-10.8 7.8-18.2l.4 1.8.5 1.3v.1a22.1 22.1 0 009.2 11 20.4 20.4 0 004.3 2v-.1a1.4 1.4 0 000-.3 1.1 1.1 0 000-.2 1.3 1.3 0 000-.3v-.1a1.5 1.5 0 00-.2-.3v-.1a.7.7 0 00-.2-.2l2 1.3c.2 0 .3.2.5.3l2.1 1.1.6.3c.8.5 1.7 1 2.5 1.3l.2.1 1 .5 1.8.8a3 3 0 001.7.3 2.8 2.8 0 001.1-.6l.3-.2c2.1-1.5 4.8-2 7.1-3s4.7-3 4.6-5.6a6 6 0 00-2.6-4.3c-1.4-1-3-1.7-4.3-2.7-2.6-1.9-4.3-5.4-3.5-8.3a5.3 5.3 0 01.2-.6v-.1l.3-.5.1-.2a6.6 6.6 0 011.2-1.3 19 19 0 011.8-1.3l12-8.1c1-.7 1.8-1.3 2.8-1.8a27.4 27.4 0 012.5-1.4l.7-.3.5-.2a20 20 0 012.4-.7 65.4 65.4 0 01-5.2 11.6 9 9 0 00-.9 2 2.6 2.6 0 00-.1.7 6.2 6.2 0 00.6 2.6c.6 1.9 1 3.3 2.5 4.4l1.2.9-.1.9a38.9 38.9 0 00-.3 4.4 36.9 36.9 0 007 21.7l-.4.5a36.6 36.6 0 01-7.4 6.5l-1 .6a11.3 11.3 0 01-1.1-2.6 3.1 3.1 0 01-4-1.7c-1.5-2.8-5.9 0-5.9 0s-10-5.8-10.5-3.3a2.5 2.5 0 01-.6 1l-.6-.5s-2.3.8-5.5 2.2a6.2 6.2 0 01-3.6-2.2c-1-1.3-.7.6 0 4l-.2.1-1.1-.4c-7-2.5-23.4-9.1-24.2-14.7zm113 25.1c-.5-1.4-2.7-2.5-4.3-3.2a36 36 0 0018.2-19.1l.4-1.1.9-.2a4.2 4.2 0 002.8-2.1 4.7 4.7 0 00.3-1.6l.2-3.7v-.1a90 90 0 00-2.3-22.1l1.1.9 1.3 1 1 1 .1.2 1 1a1.1 1.1 0 010 .1 11.9 11.9 0 01.8 1l.2.4.6 1v.2a10 10 0 01.5 1.1v.3c.2.3.2.6.3 1l.1.4.1 1v.4l.1 1v.7a45 45 0 01-4 19.5 76.3 76.3 0 01-10.7 16.8 22.4 22.4 0 00-3.5 5.2 10.4 10.4 0 00-.4 1.1c-1.7-.2-4.4-.7-4.8-2.1z" transform="translate(-55.4 -18.7)" fill="url(#96fd64a0-6351-4330-b812-2613840b356c)"/>
  <path d="M734.7 331.2c1.5 5-5.2 36.3-5.2 36.3s-3.5 7.7-2.8 8.4-2.5 7.6-9.5 7-18-3-23.5-2c-4.1.7-15.9-2.7-21.4-5.7-1.9-1-3-2-2.9-2.9.4-3.1 11-17.5 11-17.5a29.4 29.4 0 004.7.9c.5 0 .8 0 .9-.2.5-.7 12.2 3.5 14 4.7s6.8 1 6.8 1a42.2 42.2 0 016.9-11.2 16.9 16.9 0 003.8-8.5 65.8 65.8 0 011.8-7.3c1-3.3 1.9-7.6.7-9.2-2-2.7-21.7-32.3-4.7-31.8s20.2 24 20.2 24-2.3 9-.8 14zM658 359.3l-14 6-16.3 5S590.5 340 600 337.6a16.3 16.3 0 004.7-2 37 37 0 007.5-6.4 66.2 66.2 0 006.5-8.5s36.8-1.8 31 7c-2.2 3.4-1.4 9 .3 14.4l.3 1a92.5 92.5 0 007.7 16z" transform="translate(-55.4 -18.7)" fill="#fbbebe"/>
  <path d="M566 527.6s-6.5-6-8.9 3.2a95 95 0 00-2.8 15.2s-3.5 10.9-5.4 13.9-9.1 30.8 4.7 28c0 0 5-1.1 6-12.8s9.6-46.7 9.6-46.7z" transform="translate(-55.4 -18.7)" fill="#3f3d56"/>
  <path d="M670.8 549.5a85.2 85.2 0 01-39.6 2.6L625 551l-43.8-4.5-.8 1-5.6 5.8-6.5 15.7s-17.5 24-19.5 9.8a58.6 58.6 0 01-.4-9.4c.4-15.2 4.4-35.4 4.4-35.4l39.7-5.3 25-13 .3-13.5v-3.3l.2-8.4 34 3.3 6 13.4v.1c1 .8 12.1 11.3 15.5 14.7s17.3 20-2.8 27.5z" transform="translate(-55.4 -18.7)" fill="#fbbebe"/>
  <path d="M574.3 554.4s-17.9.7-19-2.5l-5.5 13.2s16.2 6.3 18.5 3.9z" transform="translate(-55.4 -18.7)" fill="#3bb8d7"/>
  <path d="M543 513.8s-11.6-5.8-13.1 5.2a81.1 81.1 0 00-.8 17.9s-3 13.1-5.2 16.9-7 36.9 14.1 31.2c0 0 7.8-2.1 6.5-15.8s3.8-55.2 3.8-55.2z" transform="translate(-55.4 -18.7)" fill="#3f3d56"/>
  <path d="M607.3 487.8l36.2 32s21 11.2-4 30.5c0 0-11.3 4.7-28.5 3a153 153 0 01-31.5-6.8s-13-2-17.5 5l-14.5 22.3s-12.3 24.2-20.3-5.8l10.3-29.3s.5-9.7 0-12 6.8-12.2 10.5-9 8.8 7.8 13 7.5 15-.5 15-.5l-6.3-2.2s-18-5-16.7-8.8 10-22 10-22z" transform="translate(-55.4 -18.7)" opacity=".1"/>
  <path d="M637.5 550.3a39.6 39.6 0 01-6.3 1.8 70.2 70.2 0 01-22.2 1.1 156 156 0 01-28.6-5.8l-2.9-.9s-13-2-17.5 5l-11.6 17.9-2.9 4.4s-12.3 24.2-20.3-5.8l10.3-29.3s.5-9.7 0-12c-.3-1.5 2.9-6.6 6.2-8.7 1.5-1 3-1.3 4.3-.3a49.2 49.2 0 008 6.1 9.6 9.6 0 005 1.5c4.3-.3 15-.5 15-.5l-6.3-2.3a97.9 97.9 0 01-10-3.5c-3.8-1.6-7.2-3.6-6.7-5.3 1.3-3.7 10-22 10-22l44.3-4 12.6 11.2 5.4 4.7 18.2 16.1s21 11.3-4 30.5z" transform="translate(-55.4 -18.7)" fill="#fbbebe"/>
  <path d="M606 534s-9.5-12.8-32-9.3" transform="translate(-55.4 -18.7)" fill="none" stroke="#000" stroke-miterlimit="10" opacity=".1"/>
  <path d="M534.5 536.6l-7.3 16.6s8 18.4 23.5 15.7l9.6-17.3s-21.5-2.2-25.8-15z" transform="translate(-55.4 -18.7)" opacity=".1"/>
  <path d="M533.5 537.6l-7.3 16.6s8 18.4 23.5 15.7l9.6-17.3s-21.5-2.2-25.8-15z" transform="translate(-55.4 -18.7)" fill="#3bb8d7"/>
  <path d="M675.3 374a17.9 17.9 0 00-3 1.2c-2-1-3-2-3-2.9.5-3.1 11-17.5 11-17.5a29.4 29.4 0 004.8.9c1.7 11-6.8 17.6-9.9 18.3zM658 360.3l-14 6-16.3 5S590.5 341 600 338.6a16.3 16.3 0 004.7-2 79 79 0 0018.8 15c11 4 21.1-3.2 26.5-8.5a90.4 90.4 0 008 17z" transform="translate(-55.4 -18.7)" opacity=".1"/>
  <path d="M673.3 374c-3.3.8-18 9.3-18 9.3l-9.3 16s.3 9 0 15-7.3 5.2-7.3 5.2l-.3.1-10.2 4.4-17.2-1.8-33.8-5.4s-10.7-.6-14.2-4l-.1-.2c-3.4-3.4-2.1-5.9 3.4-10.1s1.2-10.8 1.2-10.8-3-10.7-3-17.2-3.3-6.3-3.3-6.3-2.2 0 7.8-6.4-1.3-36.8 2.3-32.6 10 2 10.5-.4 10.7 3.2 10.7 3.2 4.5-2.8 6 0a3.3 3.3 0 004 1.8c2.5 8.2 21 19 21 19 16.5 6 30.8-13.3 30.8-13.3s5.5 1.5 6.2 3.8 7 2.1 7 2.1 7.5.9 7.8 3.1 7.5 5.3 7.5 5.3c3 12.2-6.3 19.4-9.5 20.2z" transform="translate(-55.4 -18.7)" fill="#fff"/>
  <path d="M638.8 417.5l-.4 2.1-10.2 4.4-17.2-1.8-33.8-5.4s-10.7-.6-14.2-4l-.1-.2.1-1.9 5.5-1s54 3 61.5 6.6zm19.2 89.8v2s-10.5-16.3-24.3-8.3a17.6 17.6 0 01-10.5 2.6 16.7 16.7 0 01-5.4-1.4 21.5 21.5 0 01-7.5-5.7s-24 5-32.3 11.8-15-2-15-2-2.4 10.2-5.3 12.7c-3.9-1.6-7.3-3.6-6.7-5.3 1.3-3.7 10-22 10-22l44.3-4 12.5 11.2.2-8.4 34 3.3 6 13.4z" transform="translate(-55.4 -18.7)" opacity=".1"/>
  <path d="M568.5 411.8s54 3 61.5 6.4l8.8 1.3-1.5 9.5s14.2 14.8 18.5 16.5 2.2 61.8 2.2 61.8-10.5-16.3-24.3-8.3-23.5-4.5-23.5-4.5-24 5-32.2 11.8-15-2-15-2-2.8 12-6 13.2-4 9.3-4 9.3-9-1.8-9-4.5-.3-3.8-2-5.8-2-8.5-2-8.5 1-7.5-2.3-10.5-3-15.8-3-15.8-1.5-8.2 0-10.2 2.5-15.5 2.5-15.5 5-14 7.8-19.3 16-14.2 16-14.2h1.5l.5-9.8z" transform="translate(-55.4 -18.7)" fill="#3bb8d7"/>
  <circle cx="573" cy="412.5" r="1.6" fill="#3f3d56"/>
  <circle cx="564.6" cy="448.4" r="1.6" fill="#3f3d56"/>
  <circle cx="575.6" cy="436.2" r="1.6" fill="#3f3d56"/>
  <path d="M565.3 424h2s-12 27.5-12.6 19.8 10.6-19.8 10.6-19.8zm14.4 2s-13.7 21-7 24 12.6-23 12.6-23zm18.1 12.1s5.2 31.9 11 38-1 10.6-1 10.6 20.5 1.8 27 3.1 16.5-1.5 12.5-4.1-.6-31-.3-32.4-12.8 24.6-49.2-15.2zm-22.1-37.4c1.1-.5 19.8-26.7 24.3-24.6s-24.3 24.6-24.3 24.6zm2.3-23.2s-7.5 11.5-5.3 13.5 5.3-13.5 5.3-13.5zm10-43.5s7.7 15.2 5.5 18-5.4-18-5.4-18zm85.3 20.8s-1.5 8.9-3.5 9.2 3.5-9.2 3.5-9.2zm-36 2.9s21.2 5.2 22.9 6.3-18.4 1.2-22.9-6.3zm78 15s-2.6-10.4-6.1-10.2 6.1 10.2 6.1 10.2z" transform="translate(-55.4 -18.7)" opacity=".1"/>
  <path d="M706.1 305.4c-1.3 2.7-4.1 4.8-4 7.8 0 1.4.6 2.7 1 4.1a8.3 8.3 0 01-2 6.7 14.3 14.3 0 01-6 4c-1.3.6-2.8 1-3.6 2.2-1.3 1.9-.1 4.4.4 6.6.9 3.6-.6 8.1-4.1 9.3-1.9.6-4.1.2-5.7 1.4s-1.7 3.6-2.7 5.4a6.2 6.2 0 01-8.1 2.4 6.3 6.3 0 01.3-2.7 5.1 5.1 0 01-5.7-2.3 6.8 6.8 0 010-6 22.5 22.5 0 013.6-5.1 75.4 75.4 0 0010.9-16.7 43.5 43.5 0 004.2-19.4 14.8 14.8 0 00-1.1-5.8 14.3 14.3 0 00-4-4.8l-2.6-2-1.7-1.5c-.8-.7-4-3.2-3.7-4.4.2-.7 2.3-.6 4.1-.7a10 10 0 002-.1 2 2 0 00.4-.1 15.8 15.8 0 012-1c1.8-.5 3.7.6 5.2 1.8a66.2 66.2 0 007 5 13.7 13.7 0 008.3 2 7.5 7.5 0 012.8 0c1.7.4 2.5 2.4 3 4.2.7 3.2 1.2 6.7-.2 9.7zM608 279.9a10.3 10.3 0 00-1.1.2 18.4 18.4 0 00-3.1 1.2 45 45 0 00-5 3l-12.3 8a10.2 10.2 0 00-3 2.6c-2.1 3-.2 7.5 2.9 9.6 1.4 1 3 1.7 4.3 2.7a6 6 0 012.7 4.3c.2 2.6-2.2 4.6-4.7 5.6s-5 1.4-7.2 3a4.2 4.2 0 01-1.4.7 3.2 3.2 0 01-1.8-.3 75.6 75.6 0 01-11-5.6 1.5 1.5 0 01.5 1.5 21.7 21.7 0 01-12.4-31.6c1.3-2.2 3-4.2 4-6.5s1.4-5.3 0-7.4c-1-1.5-2.7-2.5-3.2-4.2s.5-3.8 1.8-5.1c3-3 7-4.8 10.1-7.6s5.6-7.3 3.8-11c-1.5-3-5.3-5.3-4.7-8.5a5.8 5.8 0 012.8-3.5 16.5 16.5 0 0116-1 3.7 3.7 0 011.6-4 3.6 3.6 0 014.2.5 18.4 18.4 0 001.5 1.6 1.4 1.4 0 001.9 0 1.9 1.9 0 00.2-1 12.6 12.6 0 011.4-5.4 40.2 40.2 0 014.7 36.3 14.3 14.3 0 00-1.3 5.3c0 3.8 3.6 6.6 7.1 7.8l.2.1c1.1.4 3 .7 4.9 1.2 2.4.7 4.7 1.7 5 3.6.5 3-6.2 3.5-9.4 3.9z" transform="translate(-55.4 -18.7)" fill="#3f3d56"/>
  <path d="M556.5 293.8a303 303 0 00-11.3 24.5c.8 5.5 17.5 12 24.7 14.6l3.1 1.1 6.8 6s-7 38.7-7.5 29.2-13-14.4-13-14.4l-7-3c-5.5-2.6-12.2-6-13-7.8-1.6-3.2-3.6-4.2-14-13.5s-3.4-17-3-18c1.6-5 18.2-27 18.2-27l24.2-29.5s6.6-27.3 23.4-16.7-19.1 36.2-19.1 36.2-10.7 16.3-12.5 18.3z" transform="translate(-55.4 -18.7)" fill="#fbbebe"/>
  <path d="M579.8 340s-7 38.7-7.5 29.2-13-14.4-13-14.4l-7-3c1.2-9 10.4-15.2 17.6-18.9l3.1 1.1z" transform="translate(-55.4 -18.7)" opacity=".1"/>
  <path d="M587.9 336l-7.3-6.7s-47.5 15-15.5 43.4h13.5l12.4-16.4z" transform="translate(-55.4 -18.7)" fill="#fff"/>
  <path d="M650 342.2l.3 1a36 36 0 01-38.1-14 66.2 66.2 0 006.5-8.4s36.8-1.8 31 7c-2.2 3.4-1.4 8.9.3 14.4z" transform="translate(-55.4 -18.7)" opacity=".1"/>
  <path d="M677.5 307.3a36 36 0 11-36-36 35.9 35.9 0 0136 36z" transform="translate(-55.4 -18.7)" fill="#fbbebe"/>
  <path d="M677.5 307.3a35.9 35.9 0 01-2.8 13.9 16.2 16.2 0 01-6.1.1 3.6 3.6 0 01-2.2-1 4 4 0 01-.7-2l-1.2-6.6c-3.2 1.2-7 .3-10-1.4s-5.6-4-8.5-6-6.4-3.3-9.9-2.7a16.6 16.6 0 00-5.2 2.2 36.8 36.8 0 00-9 6.7c-1.8 2-3.4 4.5-6 5.4a6.3 6.3 0 01-7.8-4c-.5-1.9-.1-3.9-.4-5.8a4.5 4.5 0 00-1.9-3.3 36 36 0 0171.8 4.4z" transform="translate(-55.4 -18.7)" opacity=".1"/>
  <path d="M607.7 305.2c.2 1.9-.2 3.9.4 5.7a6.3 6.3 0 007.8 4c2.5-1 4.1-3.3 6-5.3a36.8 36.8 0 019-6.7 16.6 16.6 0 015.2-2.2c3.4-.7 6.9.7 9.8 2.6s5.5 4.3 8.6 6 6.7 2.7 10 1.4l1.1 6.6a4 4 0 00.7 2 3.6 3.6 0 002.2 1 16.2 16.2 0 007.4-.4 4.3 4.3 0 003-2 4.7 4.7 0 00.3-1.6 86.7 86.7 0 00-5.8-37.5 26.2 26.2 0 00-7.6-11.6 30.6 30.6 0 00-7-3.7c-7.5-3.1-15.7-6.4-23.5-4.1-3.5 1-6.5 3-9.5 5l-14 9.3a8.7 8.7 0 00-2 1.6 9.5 9.5 0 00-1.5 3.3 64 64 0 01-5.8 13 6.4 6.4 0 00-1 2.6 6.1 6.1 0 00.5 2.6c.8 1.8 1 3.2 2.7 4.3s2.7 1.9 3 4z" transform="translate(-55.4 -18.7)" fill="#3f3d56"/>
  <path d="M588.8 314c-2.4 1-5.1 1.4-7.3 3a4.2 4.2 0 01-1.4.8 3.2 3.2 0 01-1.8-.3 74.8 74.8 0 01-11-5.8 1.4 1.4 0 01.6 1.7 22 22 0 01-13.9-12.8c-.8-2 .1 2.2 0 0-.2 3.2-1.2 0 0 3a22 22 0 0013.8 12.8 1.4 1.4 0 00-.6-1.7 74.8 74.8 0 0011 5.7 3.2 3.2 0 001.9.4 4.2 4.2 0 001.4-.8c2.1-1.6 4.8-2 7.2-3s4.8-3 4.7-5.6a4.2 4.2 0 00-.3-1.3 7.8 7.8 0 01-4.3 4zm11.4-53.7a6 6 0 00.1 1.3 25.8 25.8 0 011.2-3.6 39 39 0 002.3-14.7 38.7 38.7 0 01-2.3 11.7 14.3 14.3 0 00-1.3 5.3zm83.3 34c-1.4-2.9-4-4.8-6.4-6.7l.8 3.6c2.2 1.7 4.4 3.5 5.6 6a14.5 14.5 0 011 5.6V300a14.8 14.8 0 00-1-5.8zm-112.1-52.2c.3-1.4 1.1-.8.5-2.2-1.1-2.2-3.6-4-4.4-6.2a3.8 3.8 0 00-.3.7c-.6 3.3 2.8 4.7 4.2 7.7.2.5-.9-2.1 0 0zm36.5 34.9a7.4 7.4 0 00-1 .1 28.9 28.9 0 00-8.1 4.1l-12.3 8.1a10.2 10.2 0 00-3 2.6 5.5 5.5 0 00-.7 4.5 4.8 4.8 0 01.7-1.5 10.2 10.2 0 013-2.6l12.3-8a29.5 29.5 0 017.8-4.1l1.3-3.3zm95.1 40.1a9.1 9.1 0 01-2 4 14.3 14.3 0 01-6 4c-1.2.5-2.7 1-3.5 2a4.6 4.6 0 00-.4 3.8 3.1 3.1 0 01.4-.7c.8-1.2 2.3-1.6 3.6-2.1a14.3 14.3 0 006-4 8.3 8.3 0 002-6.8l-.2-.2zm3.1-14.7c-1.3 2.7-4.1 4.8-4 7.8a5.8 5.8 0 00.1 1.5c.7-2.3 2.8-4.1 3.9-6.3a11 11 0 00.8-6 9.4 9.4 0 01-.8 3zm-39.7 16.9a3.6 3.6 0 002.2 1 16.2 16.2 0 007.4-.4 4.3 4.3 0 003-2.1 4.7 4.7 0 00.2-1.6 82.6 82.6 0 000-3 4.7 4.7 0 01-.3 1.6 4.3 4.3 0 01-2.9 2 16.2 16.2 0 01-7.4.5 3.6 3.6 0 01-2.2-1 4 4 0 01-.7-2l-1.2-6.6c-3.2 1.2-7 .3-10-1.4s-5.6-4-8.5-6-6.4-3.3-9.9-2.7a16.6 16.6 0 00-5.2 2.2 36.8 36.8 0 00-9 6.7c-1.8 2-3.4 4.5-6 5.4a6.3 6.3 0 01-7.8-4c-.5-1.9-.2-3.9-.4-5.8-.2-2.2-1.3-3-3-4s-1.9-2.6-2.6-4.4l-.3-.8a3.8 3.8 0 00-.3 1.2 6.1 6.1 0 00.6 2.6c.7 1.9 1 3.2 2.6 4.3s2.7 2 3 4.1c.3 2-.1 4 .4 5.8a6.3 6.3 0 007.9 4c2.5-1 4-3.4 5.9-5.3a36.8 36.8 0 019-6.8 16.6 16.6 0 015.2-2.2c3.5-.6 7 .8 9.9 2.7s5.5 4.3 8.5 6 6.8 2.6 10 1.4l1.2 6.6a4 4 0 00.7 2zm21.4 23.7c-1.9.7-4.1.3-5.7 1.5s-1.7 3.6-2.7 5.4a6.2 6.2 0 01-8.1 2.4 6.3 6.3 0 01.3-2.7 5.1 5.1 0 01-5.7-2.3 5.2 5.2 0 01-.5-1.3 6.2 6.2 0 00.5 4.3 5.1 5.1 0 005.7 2.3 6.3 6.3 0 00-.3 2.7 6.2 6.2 0 008.1-2.4c1-1.8 1-4.2 2.7-5.4s3.8-.8 5.7-1.4c3.3-1 4.8-5.2 4.2-8.6-.4 2.5-1.8 4.8-4.2 5.6z" transform="translate(-55.4 -18.7)" opacity=".1"/>
  <path d="M612.4 272.4a36 36 0 01-4.4 7.5 10.3 10.3 0 00-1.1.2 18.4 18.4 0 00-3.1 1.2 62.5 62.5 0 013.8-10l4.8 1zm67.1 20.1l-2.6-2c-.5-2-1-4.5-1.3-6.6a10 10 0 002-.2 27.5 27.5 0 012 8.8z" transform="translate(-55.4 -18.7)" fill="#3bb8d7"/>
  <path d="M1023.7 436.4l1-.5-1.9-.4-1.3.3a49.3 49.3 0 01-22-13.3 34.7 34.7 0 01-10.3-23.6c0-6.4 2.4-12.6 2.4-19s-3.8-13.6-10.3-14.3c-2.3-.3-4.6.3-6.9.4s-4.8-.5-6-2.4c-1-1.6-.7-3.8 0-5.6 1.7-4.9 5.6-8.8 7.3-13.7a16.5 16.5 0 00.4-9c-.6-2.6-2-5-4.2-6.3-3.9-2-8.5.3-12.8 1.1-7.3 1.4-14.8-1.8-21-5.7s-12.3-8.6-19.4-10.9a46.6 46.6 0 00-14.4-1.8c-3 0-6.2.2-8.5 2.1l-.3.4a7.7 7.7 0 011-1.8 6.2 6.2 0 00-1 .7c-4.6 4-1.4 11.8-4.1 17.2a9 9 0 01-1.1 1.7 13.2 13.2 0 001.8-1.7l-.3.8c-1.6 3-4.9 5-8 6.5s-6.6 3-9 5.6l-.1.2a9.8 9.8 0 011.6-2.6 13.1 13.1 0 00-1.8 1.6c-2.5 3-2.7 5.4-1.6 7.2.8 2.2 3.3 3.7 6.1 4.5l-.4 1.9a31.6 31.6 0 00-.4 4.8 31.2 31.2 0 0024.9 30.2l-.2 2c-.5 4.5-1.9 9.5-5.5 10.7-3.5-1.2-10.3 4-11.9 5.5s-7 .1-12 .3-6.7-1.3-6.7-1.3a28.5 28.5 0 00-.1 8.1c.5 5-3.6 5.2-3.6 5.2s.8 7.2-1 10.8a12.2 12.2 0 00-1.4 6.9s5.8-.5 5.3 1.5a1.8 1.8 0 00.3 1.3v2l-.8 26.3-1.5 15.8a2.7 2.7 0 00-1.8 1.6c-1.4 3.1-3.6 7.3-5.4 10.6-7.1 4.3-17.8 12.3-14.8 20 4.5 11.4 10.8 9.9 14.6 8.5S867 515 867 515s2.2-4.2 4-4.2a22.2 22.2 0 002.7-.3v.3s-3.6 14.2-2.4 17.7.1 8 .1 8-1 10.3.4 13.7-1.9 12.3-1.9 12.3l2.5.7-.4 1.8a131 131 0 001.2 64c.3 2.7 2.4 5 1 11s2.7 17 2.7 17 2 10.5.9 15.3 12.5 59 12.5 59l2.2-.3.5 2 2.2 8.5.3 1a7.4 7.4 0 00-4 2.5s-6 13.7-13.6 17.5c-2 1-4.4 2.3-6.8 3.8-6.7 4.1-12.5 9-2.7 9.2 10.8.1 28.5.7 34.8 1 1.4.6 3.6 1 7.2 1 17.6-.3 42.7-2.2 43.2-3.8.2-.8-.8-2.6-2-4.1l-2.5-3.1-.5-15.2-3.7-3v-1.1l-1.2-14.7-.1-2a5.8 5.8 0 002-.9l1.3-15.1s7.4-25.3-2-50.2c0 0-8.3-17.1-6-23.3l.3-13.2s4-15.5 5.8-19.6a106.6 106.6 0 005.9-20c6.8-10.7 5.7-25 5.7-25l4.8-15 6.6-19s2-11.8 2.6-14 0-15 0-15 5.8-46.3 1-64.3v-1.7c.1-.1 5.3-5.5 3-7-2-1.3-5.7-6.8-8.4-10.1l-1-1.2a34.3 34.3 0 008.3-9.1c.8-1.4 1.8-3 3.5-3.1a4.4 4.4 0 012.4.8c12.6 7.5 14.6 26.4 27.8 32.7a19.8 19.8 0 0017.7-.5zm-100.5 301l-.2 1a5.4 5.4 0 00-1.2.7s-1.7 8.8-2.8 9.5a8.3 8.3 0 00-1.2 2.2l-.3-.4-.2.6-.5-.9-.1-1-2.9-22.1c-.2-3.2-1-14 .1-19.6 1.2-6.6 1-30-6.7-39.3 0 0-3.6-8.5-.3-14l.5-34.7 1.2-1.1.2 32a32.3 32.3 0 007.7 18.3l1.2 16.8s1 18.4 4.1 28.5v15.7l2.2.3-.2 2z" transform="translate(-55.4 -18.7)" fill="url(#65aaeda9-82be-4b39-9919-e403ba36e3f2)"/>
  <path d="M943.5 403.2l-7.2 16-2.6 1.5-17.9 10.5s-22.5-2.2-23.1-2.5-1.7-19.5 4-23.5a3.8 3.8 0 011.1-.5c3.6-1.2 5-6.1 5.4-10.7l.2-2a47.4 47.4 0 000-6.4s5.4-5.4 12-11c11.6-10 26.6-20.6 20.8-2.6a60 60 0 00-2.3 10c-.2.7-.2 1.5-.3 2.2-.7 8.9 2 13.6 4.9 16.2l.9.7a11 11 0 004.1 2z" transform="translate(-55.4 -18.7)" fill="#cf6f80"/>
  <path fill="#cf6f80" d="M861.5 732.5l-2.5 1.1-16.9-3.8-1.5-6-2.1-8.6-1.5-6h21.6l2.8 22.2v1z"/>
  <path d="M914.3 752.3l-16.8-3.8-1.5-6c6.4-2 15.7 3.5 15.7 3.5-.6 2 4.1 3.8 5 4l.1 1zm8 8.2l-12 11.8-4.3 4.2h-2.3c-4.4-2.5 1.3-8.5 5-11.7l2-1.6c2.7-2.1 5.2-8.2 6.8-11.7z" transform="translate(-55.4 -18.7)" opacity=".1"/>
  <path d="M917.5 751.5l4.8 9-12 11.8-4.3 4.2h-2.3c-4.4-2.5 1.3-8.5 5-11.7l2-1.6c2.7-2.1 5.2-8.2 6.8-11.7zm27 .8l-22.2-7.5.7-6.3c5.8-2 15.8 5.3 21.2 9.7z" transform="translate(-55.4 -18.7)" opacity=".1"/>
  <path d="M922.3 761.5l-12 11.8-4.3 4.2s-23.2-.8-36-1c-9.6-.1-4-5 2.5-9.2 2.3-1.5 4.8-2.8 6.7-3.8 7.3-3.8 13.1-17.5 13.1-17.5 5.5-7 19.4 1 19.4 1-.7 2.3 5.1 4.2 5.1 4.2z" transform="translate(-55.4 -18.7)" fill="#3f3d56"/>
  <path d="M910.3 773.3l-4.3 4.2s-23.2-.8-36-1c-9.6-.1-4-5 2.5-9.2 3.6.8 7.1 2.5 8.3 6z" transform="translate(-55.4 -18.7)" opacity=".1"/>
  <path fill="#cf6f80" d="M889.1 733.6l-22.1-7.5.6-6.3.6-5.5.8-7.5h18l.6 8 1.1 14.7.4 4.1z"/>
  <path d="M952.7 774.7c-.5 1.6-24.9 3.5-42 3.8-15 .3-6.9-8.5-2-12.7l2-1.6c3.8-3 7.3-13.9 8.3-14.5s2.7-9.5 2.7-9.5c7.5-5.4 26.1 12.1 26.1 12.1l.5 15.2 2.5 3c1.2 1.7 2.1 3.4 1.9 4.2z" transform="translate(-55.4 -18.7)" fill="#3f3d56"/>
  <path d="M952.7 774.7c-.5 1.6-24.9 3.5-42 3.8-15 .3-6.9-8.5-2-12.7a22.1 22.1 0 019.5 7.5h19.1s9.3-1.3 13.5-2.7c1 1.5 2.1 3.3 1.9 4zM913.8 728l.2 3-20.2 3-1.5-6zm29.3 5.5c-5 1.4-15.3.1-19.5-.5l.7-7.5h18.2z" transform="translate(-55.4 -18.7)" opacity=".1"/>
  <path d="M944.2 665.3c9.1 24.9 2 50.2 2 50.2l-1.2 15.2c-4.2 3.3-23.3 0-23.3 0V715c-3-10.2-4-28.5-4-28.5l-1.2-16.8a32.8 32.8 0 01-7.5-18.4l-.2-32-1.1 1.2-.5 34.7c-3.2 5.5.3 14 .3 14 7.5 9.3 7.7 32.6 6.5 39.3s0 20.5 0 20.5l-22.8 3.3s-13.4-54.1-12.2-59-.8-15.3-.8-15.3-4-11-2.7-17-.7-8.3-1-11-2.7-12.7-2.7-12.7c-4.1-18.6-.5-41.3 1.6-51.2l1.1-5.1s62-18 72.5-3a21.5 21.5 0 012.8 6c5.2 16.1-3.8 41.5-5.5 45.2-1.8 4.1-5.6 19.6-5.6 19.6l-.4 13.2c-2.1 6.2 5.9 23.3 5.9 23.3z" transform="translate(-55.4 -18.7)" fill="#3f3d56"/>
  <circle cx="872.8" cy="671.5" r=".7" fill="#3bb8d7"/>
  <circle cx="839.6" cy="688.2" r=".7" fill="#3bb8d7"/>
  <circle cx="837.3" cy="677.6" r=".7" fill="#3bb8d7"/>
  <circle cx="841.9" cy="678.5" r=".7" fill="#3bb8d7"/>
  <circle cx="839.9" cy="684.1" r=".7" fill="#3bb8d7"/>
  <circle cx="870" cy="682.5" r=".7" fill="#3bb8d7"/>
  <circle cx="884" cy="686.3" r=".7" fill="#3bb8d7"/>
  <circle cx="888.5" cy="681.8" r=".7" fill="#3bb8d7"/>
  <circle cx="874.1" cy="679.1" r=".7" fill="#3bb8d7"/>
  <circle cx="847" cy="674.6" r=".7" fill="#3bb8d7"/>
  <circle cx="852.5" cy="678.5" r=".7" fill="#3bb8d7"/>
  <circle cx="843" cy="695.4" r=".7" fill="#3bb8d7"/>
  <circle cx="845.3" cy="703.5" r=".7" fill="#3bb8d7"/>
  <circle cx="852.8" cy="706.3" r=".7" fill="#3bb8d7"/>
  <circle cx="848.3" cy="706.8" r=".7" fill="#3bb8d7"/>
  <circle cx="844.3" cy="710.6" r=".7" fill="#3bb8d7"/>
  <circle cx="847.6" cy="683.4" r=".7" fill="#3bb8d7"/>
  <circle cx="847.6" cy="691.6" r=".7" fill="#3bb8d7"/>
  <circle cx="851.9" cy="697" r=".7" fill="#3bb8d7"/>
  <circle cx="848" cy="699.5" r=".7" fill="#3bb8d7"/>
  <circle cx="840.3" cy="710.6" r=".7" fill="#3bb8d7"/>
  <circle cx="852.1" cy="700.9" r=".7" fill="#3bb8d7"/>
  <circle cx="884" cy="677" r=".7" fill="#3bb8d7"/>
  <circle cx="877.4" cy="686.3" r=".7" fill="#3bb8d7"/>
  <circle cx="872.8" cy="700.1" r=".7" fill="#3bb8d7"/>
  <circle cx="871.3" cy="709.3" r=".7" fill="#3bb8d7"/>
  <circle cx="879.1" cy="680.5" r=".7" fill="#3bb8d7"/>
  <circle cx="876.7" cy="690.3" r=".7" fill="#3bb8d7"/>
  <circle cx="878.7" cy="697.7" r=".7" fill="#3bb8d7"/>
  <circle cx="868.2" cy="705.2" r=".7" fill="#3bb8d7"/>
  <circle cx="874.1" cy="702.8" r=".7" fill="#3bb8d7"/>
  <circle cx="872.1" cy="704.8" r=".7" fill="#3bb8d7"/>
  <circle cx="884" cy="701.9" r=".7" fill="#3bb8d7"/>
  <circle cx="884" cy="704.1" r=".7" fill="#3bb8d7"/>
  <circle cx="877.4" cy="709.3" r=".7" fill="#3bb8d7"/>
  <circle cx="875.5" cy="711.3" r=".7" fill="#3bb8d7"/>
  <circle cx="880.1" cy="705.2" r=".7" fill="#3bb8d7"/>
  <circle cx="874.8" cy="708.6" r=".7" fill="#3bb8d7"/>
  <circle cx="886.5" cy="700.1" r=".7" fill="#3bb8d7"/>
  <circle cx="887.8" cy="704.1" r=".7" fill="#3bb8d7"/>
  <circle cx="878.1" cy="702.8" r=".7" fill="#3bb8d7"/>
  <circle cx="880.1" cy="709.6" r=".7" fill="#3bb8d7"/>
  <circle cx="884" cy="708.6" r=".7" fill="#3bb8d7"/>
  <circle cx="883.3" cy="711.3" r=".7" fill="#3bb8d7"/>
  <circle cx="880.1" cy="711.9" r=".7" fill="#3bb8d7"/>
  <circle cx="883.3" cy="695" r=".7" fill="#3bb8d7"/>
  <circle cx="837.4" cy="700.2" r=".7" fill="#3bb8d7"/>
  <circle cx="837.4" cy="702.4" r=".7" fill="#3bb8d7"/>
  <circle cx="839.9" cy="698.4" r=".7" fill="#3bb8d7"/>
  <circle cx="841.9" cy="706.3" r=".7" fill="#3bb8d7"/>
  <circle cx="841.2" cy="702.4" r=".7" fill="#3bb8d7"/>
  <circle cx="837.4" cy="706.9" r=".7" fill="#3bb8d7"/>
  <circle cx="836.7" cy="693.3" r=".7" fill="#3bb8d7"/>
  <path opacity=".1" d="M850.5 543.6l1.6 51 1.9-1.3 1.3-52.5-4.8 2.8z"/>
  <path d="M877.7 493.7s-11.5-10.9-14-5-7.9 15.3-7.9 15.3l12.7 12s2.2-4.2 3.8-4.2a54.8 54.8 0 006.5-1z" transform="translate(-55.4 -18.7)" fill="#cf6f80"/>
  <path fill="#cf6f80" d="M830.1 430l-7.6 57.6-2.9-4.4-9.6-14.7 1.5-15.9.8-26.4.2-8L830 430z"/>
  <path d="M936.2 372a55.4 55.4 0 00-2.6 12.2 31 31 0 01-23.4 10.6 31.3 31.3 0 01-7-.8 48.2 48.2 0 00.1-8.3s41.9-41.9 32.9-13.7z" transform="translate(-55.4 -18.7)" opacity=".1"/>
  <path d="M941.3 361.8a30.9 30.9 0 01-7.5 20.1 31.2 31.2 0 01-10.4 8 31 31 0 01-44.1-28 31.6 31.6 0 01.3-4.9 31 31 0 0161.7 4.8z" transform="translate(-55.4 -18.7)" fill="#cf6f80"/>
  <path d="M876.5 452.8c-3.7-3-7.8-5.9-8.9-7.9l.2-7.9 17.7 11.7-7.7 57.6-2.8-4.4c.2-3 .5-5.8 1.2-7.2 2-4 .5-10.2.5-12.2s2.8-5.2 2.7-6.5a79.2 79.2 0 00-1-8.3c-.7-3.2 2.6-11-1.9-14.9zM949.8 564s-21.8-3.5-38.8 2.5c-14 5-31.7 1.1-37.6-.4l1.1-5.1s62-18 72.5-3a21.5 21.5 0 012.8 6zm-6.3-160.8l-7.2 16-20.5 12s-22.5-2.2-23.1-2.5-1.7-19.5 4-23.5c-1.6 4.6-3.4 14 8.8 14.8a50.5 50.5 0 0033-19.6 11.5 11.5 0 005 2.8z" transform="translate(-55.4 -18.7)" opacity=".1"/>
  <path d="M970.2 435.2l-.4 7.5-20 119.3s-21.8-3.5-38.8 2.5-39.7-1-39.7-1 3.2-9 1.9-12.3-.4-13.7-.4-13.7 1-4.5-.1-8 2.3-17.7 2.3-17.7-.8-15.1 1.2-19.1.5-10.2.5-12.2 2.8-5.2 2.6-6.5a79.2 79.2 0 00-1-8.3c-.6-3.2 2.7-11-1.8-14.9s-9.7-7.1-9.2-9.1-5.1-1.5-5.1-1.5a12.4 12.4 0 011.3-6.9c1.8-3.6 1-10.8 1-10.8s4-.2 3.5-5.2a29.2 29.2 0 01.2-8.1s1.6 1.5 6.5 1.3 10.1 1.2 11.6-.3 8.2-6.7 11.5-5.5c-.2.5-8.2 16.3 7.7 17.3a50.5 50.5 0 0033.8-20.9s1.9-2 7.9 4.6 11.1 4 11.1 4l6.7.5s-4.3 3.6-1.7 6.1a17.3 17.3 0 011.6 1.8c2.7 3.3 6.2 8.8 8.1 10 2.3 1.6-2.8 7-2.8 7z" transform="translate(-55.4 -18.7)" fill="#3bb8d7"/>
  <path d="M864.2 496s-24.5 12-20.2 23.3 10.5 9.9 14.2 8.5 10.3-11.8 10.3-11.8z" transform="translate(-55.4 -18.7)" fill="#cf6f80"/>
  <path d="M933.3 429c0 1-6.3 14.5 0 18s0-18 0-18zm-49.3-4.7s-8.8 9.4-5.2 10.4 5.2-10.4 5.2-10.4z" transform="translate(-55.4 -18.7)" opacity=".1"/>
  <path d="M943.5 442.8s3.8 23.7 4 30.7 1.2 18.3 1.2 18.3 2.8 27-1.5 38-3.7 23-3.7 23-12.7 24.7-14.5 27.2 1.5 26.2 14.8 16.2 11.7-31.9 11.7-31.9l4.7-15 6.5-19.1s1.8-11.7 2.5-14 0-15 0-15 7.8-64.2-2.7-70.9-23 12.5-23 12.5z" transform="translate(-55.4 -18.7)" fill="#cf6f80"/>
  <path d="M943.5 451s15.7-17.2 20.5-15.7 6.2.9 6.2.9.6-9.5-6.5-13-15-14.2-21-1.5.8 29.3.8 29.3z" transform="translate(-55.4 -18.7)" opacity=".1"/>
  <path d="M943.5 450s15.7-17.2 20.5-15.7 6.2.9 6.2.9.6-9.5-6.5-13-15-14.2-21-1.5.8 29.3.8 29.3z" transform="translate(-55.4 -18.7)" fill="#3bb8d7"/>
  <path d="M964.9 418a31.7 31.7 0 01-3.6 2.8 27 27 0 01-10.5 4 23.4 23.4 0 01-9.5-.5 23 23 0 01-7.6-3.6 19.4 19.4 0 01-5.8-6.4l-.6-1.1c-3.3-7-2.4-15.5-3.9-23.3l-.4-1.7a27.2 27.2 0 00-7.7-13.7c-5.3-5.1-12.5-8.3-20-12.2-4.3-2.2-8-4-12.9-4.7a16.8 16.8 0 01-2.8-.6 31 31 0 1154.2 25l-.3 2.2c-.7 8.9 2.1 13.7 4.9 16.2l1 .8s1.7-2 7.7 4.5 11.2 4 11.2 4l6.7.5s-4.4 3.6-1.7 6.1a17.3 17.3 0 011.6 1.8z" transform="translate(-55.4 -18.7)" opacity=".1"/>
  <path d="M876 344.3c2.2-2.7 5.5-4.1 8.7-5.7s6.3-3.4 7.8-6.5c2.6-5.4-.5-13.1 4-17.2 2.1-2 5.3-2.2 8.2-2.2a44.4 44.4 0 0114 1.9c6.9 2.3 12.6 7 18.8 10.9s13.3 7 20.5 5.7c4.1-.8 8.6-3.1 12.4-1.1 2.2 1.2 3.5 3.7 4 6.2a17 17 0 01-.4 9c-1.6 5-5.4 8.9-7 13.8-.7 1.8-1 4 0 5.5 1.2 2 3.7 2.5 5.9 2.4s4.4-.6 6.6-.4c6.4.7 10 8 10 14.4s-2.2 12.6-2.3 19c0 8.7 4.1 17.1 10 23.5a47.4 47.4 0 0024.8 14.2 18.7 18.7 0 01-17.2.5c-12.8-6.3-14.8-25.2-27-32.7a4.1 4.1 0 00-2.3-.8c-1.6.1-2.6 1.7-3.4 3-4.6 7.7-12.3 13.8-21.2 15.1s-18.6-2.7-22.9-10.5-2.7-17.4-4.8-26c-3.6-15-15.4-19.5-27.7-26-4.3-2.2-8-4-12.9-4.7-6.3-.8-12.1-4.8-6.6-11.4z" transform="translate(-55.4 -18.7)" fill="#512e4e"/>
  <path d="M894 329.4c2.4-5 .2-11.7 3-16a6.6 6.6 0 00-1 .8c-4.4 4-1.3 11.7-4 17.2a9.4 9.4 0 01-1 1.6 10.6 10.6 0 003-3.6zm112.4 106c-12.9-6.3-14.8-25.1-27-32.7a4.2 4.2 0 00-2.4-.8c-1.3.1-2.2 1.2-3 2.3a2.5 2.5 0 011-.3 4.2 4.2 0 012.3.8c12.3 7.6 14.2 26.4 27.1 32.7a18.7 18.7 0 0017.2-.5l-1.8-.4a18.8 18.8 0 01-13.4-1zm-54-15.4c-8.8 1.4-18.6-2.6-22.9-10.5s-2.7-17.4-4.8-26c-3.7-15-15.4-19.4-27.7-25.9a37 37 0 00-12.9-4.7c-6-.8-11.8-4.8-6.7-11.1a12.2 12.2 0 00-1.8 1.7c-5.5 6.5.4 10.6 6.5 11.4 5 .6 8.6 2.4 13 4.7 12.2 6.5 24 10.8 27.6 25.9 2 8.6.5 18.3 4.8 26s14 11.9 23 10.6a29.4 29.4 0 0016.8-9.5 28.7 28.7 0 01-14.9 7.4z" transform="translate(-55.4 -18.7)" opacity=".1"/>
  <path d="M241.1 797c-6.2-.7-15-6.8-20.4-11l4.5-2.7s-13-13-11.4-21.6-3.1-47.5-3.1-47.5-7.3-5.6-3.4-19.6 4-17.6 4-17.6-2.4-17.9-.9-22.2 1.6-13.6 1.6-13.6l3.1-32.3 1.7-12c2.8 9.2 7.6 15.3 15 10.1 17.2-12 4.4-51.5 4.4-51.5s-2.2-8.5-3.8-15.6l.9-2.3s-.5-8.8 3.9-11.8 0-68.1 0-68.1l-1.5-39.5v-1.1a36.6 36.6 0 00-18.9-30.8l-1-.6-.2-1a291.1 291.1 0 01-2.6-19.4 40.4 40.4 0 0031-39 38.9 38.9 0 00-1.5-10.5l-.2-.8c2.4-2.3 4.3-3 4.5-1.5.3 2.3 2.2-.6 2.4-2.9s.6-.6 2-.6 1.5-2.4-.6-3.6.4-2.7 1-3 .7-2.6 0-2.6a.7.7 0 01-.2 0 3.5 3.5 0 01-.4-.2l-.4-.3h-.1l-.5-.4c-1.2-.8-2.5-2-2.5-2l.6-.5c.7-.5-.7-1.7-2-1.8h-.2c-1.2-.2-3.2-1-2-1.5.3-.1.4-.3.5-.4a.6.6 0 00-.3-.5 2.6 2.6 0 00-.6-.4l-.3-.2-.4-.1a2.7 2.7 0 00-.4-.1h-.7a28.2 28.2 0 01-5-1.7V288l-2.1-1-1.8-.8.6-2.4h-5.7l.8-2.2-2.6-.5-.7-.1v-1l-3.5-1.4v-1.5h-4.2l1.6-1.3H216c-8.5-5.8-32.4-5.3-42-2.2s-12.3 5.6-25.2 32.9c-8.4 17.4 2.3 34.4 11.6 43.8l.9 1h.1l.9.9 1 .8v.1l.8.7h.1l.9.8.7.6h.2c.5.5 1 .8 1.4 1l.1.2.6.4c.3 0 .5.2.7.3h.1l.5.3.5.2h.1l.3.1h.1a2.5 2.5 0 00.4.1h.3a.5.5 0 00.2 0 12.5 12.5 0 013.8-1.3l1 .8 1.5 1.1.3 2.3a40.3 40.3 0 01-1 14.6l-.2 1.1a19.7 19.7 0 00-10.8 8.2c-11.2 17.4-16.2 27.7-16.2 27.7s-1.6 11.7-4.4 14.5 5.2 52.5 5.2 52.5-9.6 19.1-1 22.5-.8 6.2-.8 6.2 2.6 5.8-2.3 6.3-7.8 9.3-7.8 9.3L123 540.2l3.9 1.3-1 1.7a63.2 63.2 0 00-7.8 47c7.3 30.1 9.4 36.6 9.1 42s8.3 26.1 6.2 30.9-3.2 21.3.4 25.6-1.4 6.8-1.4 6.8 5.3 6.3 2.7 10.6 3.3 57 3.3 57 9.6 13.6 9 17.9-4.9 6.5-1 8.3 2.4 4.2 2.4 4.2l1 .1a37 37 0 00-2.5 2.5 23.6 23.6 0 00-2.1 2.7 12.4 12.4 0 00-.9 1.6c-3.5 7.7 5.8 13.5 5.8 13.5h3.2c9 .4 34.6 1 46.7-2l.2.2s45.8 2.4 54.8-3.9-4.4-10.1-14-11.2zm-46.9 2.2h-.3l-.5-.1h-.4l-.6-.1h-.1l-1.4-.2a21 21 0 01-5.9-1.8l-4-2 2.6-.1h2l1.2-.1c3 0 7.3.4 8.5 2.4a10.4 10.4 0 00-1 2z" transform="translate(-55.4 -18.7)" fill="url(#05d1d1fb-9375-46f7-a562-a16a81ed75db)"/>
  <path d="M219 398.8c-.8 0-59.8 11.2-45-8.8a35.9 35.9 0 006-12.5 41.3 41.3 0 00.9-14.6A51.4 51.4 0 00176 346s48.8-10.8 41-2.5c-3.4 3.6-3.3 14.6-2.2 25.8.6 6 1.5 12.2 2.3 17.3 1.2 7.1 2.1 12.1 1.9 12.1z" transform="translate(-55.4 -18.7)" fill="#ffccd0"/>
  <path d="M169 783.2s15.3 14 24.5 15.2 22.3 5 13.5 11.3-52.8 3.8-52.8 3.8-10.1-6.6-4.7-15 19.5-15.3 19.5-15.3z" transform="translate(-55.4 -18.7)" fill="#3f3d56"/>
  <path d="M207 809.7a16.2 16.2 0 01-5.5 2.1c-14.6 3.5-47.2 1.7-47.2 1.7s-10.2-6.6-4.8-15 19.5-15.3 19.5-15.3 15.3 14 24.5 15.2l1.3.2c9.1 1.3 20.5 5.2 12.2 11.1z" transform="translate(-55.4 -18.7)" opacity=".1"/>
  <path d="M207 809.7a16.2 16.2 0 01-5.5 2.1h-1s-8.7-5.7-5.7-13.2c9.1 1.3 20.5 5.2 12.2 11.1z" transform="translate(-55.4 -18.7)" opacity=".1"/>
  <path d="M217.3 781.5s15.2 14 24.4 15.2 22.3 5 13.6 11.3-52.8 3.8-52.8 3.8-10.2-6.7-4.8-15 19.6-15.3 19.6-15.3z" transform="translate(-55.4 -18.7)" fill="#3f3d56"/>
  <path d="M217.3 781.5s15.2 14 24.4 15.2 22.3 5 13.6 11.3-52.8 3.8-52.8 3.8-10.2-6.7-4.8-15 19.6-15.3 19.6-15.3z" transform="translate(-55.4 -18.7)" opacity=".1"/>
  <path d="M202.3 791.8c-2 1.4-6.9 2.2-12.7 2.5h-1.1l-2 .2c-14.7.4-33.5-1.2-33.5-1.2s1.5-2.5-2.3-4.3.5-4 1-8.3S143 763 143 763s-5.8-52.5-3.2-56.8-2.6-10.5-2.6-10.5 4.8-2.5 1.4-6.7-2.3-20.8-.3-25.5-6.3-25.5-6-30.8-1.8-11.7-8.8-41.7a64.6 64.6 0 017.5-46.8 47.3 47.3 0 013.7-5.7h47.8l1.2 11.2v.7l1.5 13.6c6.7 63.4 22.9 223.5 17 227.8z" transform="translate(-55.4 -18.7)" fill="#3f3d56"/>
  <path d="M202.3 791.8a32.9 32.9 0 01-13.8 2.6 33.7 33.7 0 00-5 0s-.8-1.6-9.8-8 0-20.4 0-20.4l-9.3-38.3s-2.4-10.2-.4-16.2-4.3-7.5-4.3-7.5 6.3-4 0-9.3-7.2-24.5-7.2-24.5-9-12-5-16-2.5-13.5-2.5-13.5-9.5-15-8.5-20 14.5-3.2 10.5-19.2 20.6 6 20.6 6l16.2-57.1c5.2 49.4 24.7 236.8 18.4 241.4z" transform="translate(-55.4 -18.7)" opacity=".1"/>
  <path d="M226.5 783s-27 17-28.8 13.8c-1-2-5.1-2.5-8-2.5h-.2c-1.7 0-3 .2-3 .2s-.8-1.7-9.8-8 0-20.5 0-20.5l-9.3-38.3s-2.4-10.2-.4-16.2-4.3-7.5-4.3-7.5 6.3-4 0-9.3-7.2-24.5-7.2-24.5-9-12-5-16-2.5-13.5-2.5-13.5-9.5-15-8.5-20 0-4-4-20c-3-12 4.8-39.1 8.8-51.7l2.2-6.7 37.2 7.4 37.3 7.5 1 13.3-.3 2.1-5 37-3 32.1s0 9.3-1.5 13.5.8 22 .8 22 0 3.5-3.8 17.5 3.3 19.5 3.3 19.5 4.5 38.8 3 47.3 11 21.5 11 21.5z" transform="translate(-55.4 -18.7)" fill="#3f3d56"/>
  <path d="M171.6 690c3.8.6 23.2 1 18 3.4s-18-3.4-18-3.4zm-2.1 12.6c1.5-.1 8.4-3.1 10.3-2.9s4.3-.5 6.6 0 6.4 2 4 3-7.2 0-10 1-10.9-1-10.9-1zm-20.5-5.2c1-.1 8.8-2.1 8.1 0s-8.1 0-8.1 0zm-12.4-62.8c.8 1 5.2 11 7.3 11s-7.3-11-7.3-11zM217 343.5c-3.4 3.6-3.3 14.6-2.2 25.8a40 40 0 01-10.3 1.4c-8.8 0-9.5-11.2-16.2-16.1-1-9.8-12.3-8.6-12.3-8.6s48.8-10.8 41-2.5z" transform="translate(-55.4 -18.7)" opacity=".1"/>
  <path d="M244.5 328.7a40 40 0 11-1.4-10.5 40 40 0 011.4 10.5z" transform="translate(-55.4 -18.7)" fill="#ffccd0"/>
  <path d="M219 398.8c-.8 0-59.8 11.2-45-8.8a35.9 35.9 0 006-12.5c12-3.9 26.6 2.5 26.6 2.5l6.7 5a23.2 23.2 0 013.9 1.6c1 7.1 2 12.1 1.8 12.1zm3 171.7l-.3 2.1c-1.6.5-8.9 2.6-26.4-4.6l-10-4a1958.7 1958.7 0 00-54.3-19.7 47.3 47.3 0 013.7-5.8h47.8l1.2 11.3 37.3 7.5z" transform="translate(-55.4 -18.7)" opacity=".1"/>
  <path d="M206.5 381s-26.5-11.5-37.3 5.8-15.4 27.4-15.4 27.4-1.6 11.6-4.3 14.3 5 52.3 5 52.3-9.3 19-1 22.3-.8 6.1-.8 6.1 2.6 5.8-2.2 6.3-7.5 9.3-7.5 9.3l-14.8 16.5s48.2 17 67.1 24.7 26 4.8 26.7 4.5 12.3-31.8 12.3-31.8-.6-8.7 3.7-11.7 0-67.8 0-67.8l-1.5-40.4a36.5 36.5 0 00-18.2-30.6 25.3 25.3 0 00-5-2.2z" transform="translate(-55.4 -18.7)" fill="#3bb8d7"/>
  <path d="M232.8 450l5.2 9.3s-42 12-43.6.4c-.3-1.6 16.3-15 16.3-15z" transform="translate(-55.4 -18.7)" fill="#3bb8d7"/>
  <path d="M232.8 450l5.2 9.3s-42 12-43.6.4c-.3-1.6 16.3-15 16.3-15zm-71.5 50s20-6.5 15.7-1.3-15.8 1.3-15.8 1.3zm22.7 1.5s10.3 12.7 12.7 8-12.6-8-12.6-8zm59.1-183.4a25.9 25.9 0 00-3.5 4.5c-3.5 5.5-6.1 5.6-6.1 5.6s0 12-1.6 13.2-10.9-5.3-11-6.9-11.5-19.3-16.4 3.1l-.9 18.1s-16.2 2-24.5 3.9a40 40 0 1164-41.5z" transform="translate(-55.4 -18.7)" opacity=".1"/>
  <path d="M217.5 278.4h3.1l-1.5 1.2h4v1.5l3.4 1.4v1l3.1.6-.7 2.1h5.5l-.7 2.5 3.8 1.7v2.6s3.8 1.8 5 1.8 3.3 1 2 1.7 1 1.4 2 1.5 2.6 1.4 2 1.9l-.7.5s3.4 2.9 4 2.9.7 2.3 0 2.6-3 1.6-1 2.9 1.8 3.6.5 3.6-1.7-1.6-1.8.6-2 5.1-2.3 2.9-4.1.2-7.6 5.7-6.1 5.6-6.1 5.6 0 12-1.7 13.2-10.8-5.3-11-6.9-11.4-19.3-16.3 3.1l-1 18.1s-27 3.4-29 5.3-34.2-24-21.7-51.2 15.2-29.5 24.3-32.6 32.2-3.6 40.4 2.2z" transform="translate(-55.4 -18.7)" fill="#3f3d56"/>
  <path d="M196.5 454.3s-.3 20.2-2 25.2 12 51.8 12 51.8 11 24.6 9 32.2.8 56.3 17.3 44.3 4.2-51.3 4.2-51.3-5.3-21.9-5.3-24.6-5.4-43.1-5.4-43.1-4.3-13.3-3-21.3 1.7-22.8 1.7-22.8z" transform="translate(-55.4 -18.7)" fill="#ffccd0"/>
  <path d="M213.3 416.3s-20.1 6.4-21 24.2 0 19.3 0 19.3 30-15 43.7-.6l-1.4-39.2z" transform="translate(-55.4 -18.7)" opacity=".1"/>
  <path d="M215.3 416.3s-20.1 6.4-21 24.2 0 19.3 0 19.3 30-15 43.7-.6l-1.4-39.2z" transform="translate(-55.4 -18.7)" fill="#3bb8d7"/>
  <g opacity=".1">
    <path d="M242.2 294.7c-.4.6 1.4 1.2 2.4 1.3a1.6 1.6 0 01.3 0c.1-.5-1.4-1.3-2.4-1.3zm-6.7-3.7l2 .9v-1.5l-2-1zm10.9 7l-.5.4 2.2 1.8.4-.3c.6-.5-.8-1.7-1.9-1.9z" transform="translate(-55.4 -18.7)"/>
    <path d="M176.4 268l2.3 1 .3-1.5h-2.5l-.1.5z"/>
    <path d="M202.5 334.6l-.9 18.1s-27 3.4-29.1 5.3c-.7.6-4.3-1.5-8.5-5.6 5 5.3 9.7 8.3 10.5 7.6 2.1-1.9 29.1-5.3 29.1-5.3l1-18c2.8-13.2 8-12.6 11.6-9.5-3.7-4.3-10.2-8.2-13.7 7.4zm48.4-25.8c-2-1.3.3-2.7 1-3s.6-2.6 0-2.6a4.7 4.7 0 01-1.6-.9c0 .7 0 1.4-.4 1.6-.7.2-3 1.6-1 2.9s1.7 3.6.5 3.6-1.8-1.6-1.9.6-2 5.1-2.3 2.9-4 .2-7.6 5.7-6.1 5.6-6.1 5.6 0 12-1.6 13.2c-1.2.8-5.9-2-8.8-4.3 1.5 2.1 9.3 7.4 10.8 6.3s1.6-13.1 1.6-13.1 2.6-.2 6.1-5.7 7.4-8 7.7-5.7 2-.6 2.2-2.9.6-.6 1.9-.6 1.5-2.4-.5-3.6z" transform="translate(-55.4 -18.7)"/>
    <path d="M171.5 265.5h2.7l-2.4-.6-.3.6zm-3.7-4.3v-.3h-.8l.8.3z"/>
  </g>
  <path d="M193.3 569.3s82.3-125 179.3-54 120.9 116 202 91 78-74.1 142-56 86.2-41.2 86.2-41.2" fill="none" stroke="#3bb8d7" stroke-miterlimit="10" stroke-width="4"/>
  <rect x="849.3" y="502.5" width="17.7" height="39.5" rx="8.8" ry="8.8" transform="rotate(23.3 875.8 378.8)" fill="#3bb8d7"/>
</svg>
