<svg id="7d20109a-a0f0-4dfa-976a-751f0ae87d51" data-name="Layer 1" xmlns="http://www.w3.org/2000/svg" xmlns:xlink="http://www.w3.org/1999/xlink" width="1125.1" height="800.9" aria-hidden="true">
  <defs>
    <linearGradient id="9460e000-b540-487b-970a-49d5722f90c2" x1="652.6" y1="850.5" x2="652.6" y2="265.5" gradientUnits="userSpaceOnUse">
      <stop offset="0" stop-color="gray" stop-opacity=".3"/>
      <stop offset=".5" stop-color="gray" stop-opacity=".1"/>
      <stop offset="1" stop-color="gray" stop-opacity=".1"/>
    </linearGradient>
    <linearGradient id="d3efc67a-a667-44d9-839e-ddeb4c4ea6af" x1="1069.4" y1="751.2" x2="1069.4" y2="686.6" xlink:href="#9460e000-b540-487b-970a-49d5722f90c2"/>
  </defs>
  <path d="M63.9 473.4c17.6 72.2 54.8 134.6 113.6 164.8 122.2 63 397.7 30.5 603.4-6.7a475.7 475.7 0 00267.8-147.2zM1142.4 133.5h-112.8a9.4 9.4 0 110-18.8h19.5a9.4 9.4 0 110-18.7h-14a9.4 9.4 0 110-18.8h59a160 160 0 00-46-12.1c-160.6-19.9-218-6.8-238.2 6.7a229.7 229.7 0 01-82.6 34.8C628.3 126.3 443 150 275 99.1c-83.4-25.3-145.5 17.4-182.7 88.8H1162a162 162 0 00-13.3-56.7 9.9 9.9 0 01-6.3 2.3zM740.2 361.3l-1.5-.1-15.3-.9-147.2-8.3-15.9-.9L326 337.9l-65.7-3.7-10.4-.5-9.2-.6-186.4-10.5a459 459 0 004.4 126l156.8 5.5 12.4.5h2.2l74.4 2.7 4 .1 8.6.3 75 2.7 10.3.3 35.8 1.3h.7l5.3.2 18 .6 15.7.6 30 1h.6l2.7.1 2.8.1h.6l47.8 1.7 13.5.5h.5l6.5.2h1.6l5.7.2 17.3.6 6.5.3 8.4.3h.3l11.4.4 33.3 1.2 9 .3h1l44.3 1.6 25.6.9 32 1.2 5.1.2 8.3.3 30 1 226.8 8a446.3 446.3 0 0068.8-100.9zm-426.3 70a10 10 0 01-6.5-2.4 9.9 9.9 0 01-2.1-2.5 9.1 9.1 0 01-1.2-4.5 9 9 0 011.6-5.1 10.5 10.5 0 011-1.3 10 10 0 017.2-3h19.5a9.4 9.4 0 110-18.7h-14a9.1 9.1 0 01-.9 0 9.4 9.4 0 011-18.7h112.8a9.4 9.4 0 110 18.7h13.9a9.4 9.4 0 110 18.8h-19.5a9.4 9.4 0 110 18.7zM1162 188.5l-778.3 18.2-85.5 2-217.8 5.1a399.7 399.7 0 00-26 107.4h1088.7a430.6 430.6 0 0015.7-68.4c3.3-22.4 4.6-44 3.3-64.3zm-888 83h-19.4a9.6 9.6 0 019.7 9.3v.5a9.3 9.3 0 01-4.3 7.3 10 10 0 01-5.4 1.6H141.7a9.4 9.4 0 110-18.8h19.6a9.4 9.4 0 110-18.7h-14a9.4 9.4 0 110-18.8h112.9a9.4 9.4 0 110 18.8H274a10 10 0 014.6 1.1 9.4 9.4 0 015.2 8.2 9.6 9.6 0 01-9.8 9.4z" transform="translate(-37.4 -49.5)" fill="#3bb8d7" opacity=".1"/>
  <g opacity=".1">
    <path d="M605 583s28.6-67.5 81.9-92.6a113.1 113.1 0 0052.2-48.8 182 182 0 0013-31.6" fill="none" stroke="#535461" stroke-miterlimit="10" stroke-width="2"/>
    <path d="M823 443.6c-5.5 6.7-34.2 16.5-34.2 16.5s3.4-29.2 9-35.9a16.6 16.6 0 0122.7-2.5 15.1 15.1 0 012.6 21.9zM813.2 496.7c-8.5 2.8-38.1-4-38.1-4s19.4-22.7 27.8-25.4 17.6 1.6 20.5 9.8a15.4 15.4 0 01-10.2 19.6zM759.7 559.6c-8.7-1.7-30.8-22-30.8-22s28.6-10.1 37.4-8.4 14.3 10 12.5 18.4-10.4 13.8-19.1 12zM708 598.4c-8.8-.3-34.2-16.7-34.2-16.7s26.5-14.6 35.4-14.3 15.9 7.5 15.6 16-7.8 15.3-16.7 15zM747.4 473.7c1.2 8.5 20.5 31.2 20.5 31.2s12.7-26.7 11.6-35.2-9.2-14.5-18.1-13.4-15.1 8.9-14 17.4zM687.6 519.8c3.8 7.8 29.3 23.9 29.3 23.9s3.8-29.1.1-37a16.4 16.4 0 00-21.4-7.5 15.3 15.3 0 00-8 20.6zM636 572.3c2.2 8.3 24.6 28.3 24.6 28.3s8.9-28 6.5-36.4-11.1-13.2-19.7-11a15.5 15.5 0 00-11.5 19z" transform="translate(-37.4 -49.5)" fill="#3bb8d7"/>
    <path d="M823 443.6c-5.5 6.7-34.2 16.5-34.2 16.5s3.4-29.2 9-35.9a16.6 16.6 0 0122.7-2.5 15.1 15.1 0 012.6 21.9zM813.2 496.7c-8.5 2.8-38.1-4-38.1-4s19.4-22.7 27.8-25.4 17.6 1.6 20.5 9.8a15.4 15.4 0 01-10.2 19.6zM759.7 559.6c-8.7-1.7-30.8-22-30.8-22s28.6-10.1 37.4-8.4 14.3 10 12.5 18.4-10.4 13.8-19.1 12zM708 598.4c-8.8-.3-34.2-16.7-34.2-16.7s26.5-14.6 35.4-14.3 15.9 7.5 15.6 16-7.8 15.3-16.7 15zM747.4 473.7c1.2 8.5 20.5 31.2 20.5 31.2s12.7-26.7 11.6-35.2-9.2-14.5-18.1-13.4-15.1 8.9-14 17.4zM687.6 519.8c3.8 7.8 29.3 23.9 29.3 23.9s3.8-29.1.1-37a16.4 16.4 0 00-21.4-7.5 15.3 15.3 0 00-8 20.6zM636 572.3c2.2 8.3 24.6 28.3 24.6 28.3s8.9-28 6.5-36.4-11.1-13.2-19.7-11a15.5 15.5 0 00-11.5 19z" transform="translate(-37.4 -49.5)" opacity=".3"/>
  </g>
  <g opacity=".1">
    <path d="M626.3 480.7s3.6-73 45.3-113.6a109 109 0 0032.4-62.6 179.3 179.3 0 001.5-34" fill="none" stroke="#535461" stroke-miterlimit="10" stroke-width="2"/>
    <path d="M769 294.3c-3 8-26.7 26.5-26.7 26.5s-6.8-28.6-3.8-36.7 12-12.4 20.5-9.6a15.4 15.4 0 0110 19.8zM778 347.6c-7 5.3-37.4 8.3-37.4 8.3s10.5-27.5 17.5-32.8a16.6 16.6 0 0122.7 2.7 15.1 15.1 0 01-2.8 21.8zM749.3 424c-8.9 1.1-36.7-11-36.7-11s23.5-18.7 32.4-19.8 17 4.8 18.1 13.3-5 16.3-13.9 17.5zM714 477c-8.6 2.6-38-4.8-38-4.8s19.8-22.3 28.3-24.9 17.6 2 20.3 10.2a15.4 15.4 0 01-10.7 19.5zM708 346.8c4 7.7 30 23 30 23s2.9-29.3-1.1-37a16.5 16.5 0 00-21.7-6.9 15.3 15.3 0 00-7.2 20.9zM667.5 409.4c6.2 6.1 35.9 13.2 35.9 13.2s-6.4-28.7-12.7-34.9a16.6 16.6 0 00-22.8-.3 15.1 15.1 0 00-.4 22zM636.9 475.4c5 7 33 18.8 33 18.8s-1.3-29.3-6.4-36.4a16.6 16.6 0 00-22.4-4 15.2 15.2 0 00-4.3 21.6z" transform="translate(-37.4 -49.5)" fill="#3bb8d7"/>
  </g>
  <path d="M706.3 174.7l-28.8 5.5s50.2-4.7 65.2-4 49 19.8 49 19.8 16 5 34.8 22.9a146.7 146.7 0 0113 13.8 205.4 205.4 0 0139.6 84 333.2 333.2 0 018.2 53.2q.5 6.6.8 13.7l.3 13.7c.1 6.3 0 12.8-.1 19.4l-.6 13.6v.5a448.3 448.3 0 01-12.7 87.3 271.2 271.2 0 01-10 30.5l-2 5.1q-2.6 5.9-5.2 11.2-2.1 4.4-4.4 8.4l-.9 1.6-2.2 3.8c-25.9 43.3-57.6 53.8-70.3 56.4l-4.1.7-1.5.1c-3 11.4 2.7 16 9.6 17.7a29.1 29.1 0 003.4.5 49.6 49.6 0 0013.4-.5s31 1.4 63.3 2.1l7.4.2h2.7c16.8.4 33.1.5 45 .2a153 153 0 0013.6-.9c24.5-3.2 17.4-19 9.9-31.2-6.5-10.6-3.3-29.3 7.3-60.3l5.7-16c11.6-31.4 11-78.5 8.2-118.3a1073.8 1073.8 0 00-2.6-32.6 300.2 300.2 0 00-20.2-80.2 212.5 212.5 0 00-11-24c-.8-1.5-1.6-3-2.4-4.1l-.7-1.1-4.2-7.3c-2-4-4.2-8.3-6.4-13a732.2 732.2 0 01-14.2-33c-2.6-6.2-4.1-10.4-4.1-10.4a15.8 15.8 0 011.7-4.8c13.3-24.3 90.3-38.2 90.3-38.2l38.6 2.7 76.8 5.6-83.8-12.7-13-2s3.7-.4 9.3-1.3c11.1-1.8 29.3-5.6 39.3-12.1 8-5.3 50.2-7.5 88-8.5v-9.6l-7 5-81.4 1.2 39.5-50.6-52.2 53.4c-8.2 1.6-24 5.3-42 9.7-12.6 3-26.2 6.5-39.2 9.7l-60.6 15.3A140.8 140.8 0 01958 83.8l44.7-33.8H991c-33 19.7-82.7 59-82.7 59s.8-21.7 7.8-59H901q-.2 3-.6 5.7c-6 40.7-9 88.6-9 88.6-5.1 34.7-19 5.1-19 5.1C873.6 109.9 857.6 73 845 50H828c7.8 15.9 5.2 27.4 5.2 27.4C807.4 58.2 787 51.7 773 50a59.6 59.6 0 00-15.6 0 27.7 27.7 0 00-5.9 1.4c52.2 2.3 89.3 41.8 89.3 41.8 4.2 1 14.6 33.4 19 74.3.7 6 1.2 12.3 1.6 18.6 1.2 21.2-1.5 29.8-5 32.7-2.4 2.2-5.4 1.3-7.5 0a15.3 15.3 0 01-3-2.3c-8-13.6-39-29-67-40.9l-17.1-7a64.2 64.2 0 01-38.4-43C714 92 696.9 93.2 696.9 93.2c20.2 15.4 19 62 19 62l-66.8-14.1a1147 1147 0 0183.8 28.3l-26.6 5.1zM631.7 137.5l17.4 3.7a122.1 122.1 0 00-17.4-3.7z" transform="translate(-37.4 -49.5)" fill="#dea3a2"/>
  <path d="M831.8 614.4s14.7-8.7 34.8-4.4 51 2 53.8 1.6zM896.2 377.7s4.9 77.3-3.8 92.5zM914.2 470.2s-6.2 72.3-10.6 86.5 10.6-86.5 10.6-86.5zM920.4 292.3c4.4 1.7 23.5 40.3 19.6 51.7s-19.6-51.7-19.6-51.7zM872 252.2c2.2 1 11 23.2 9.2 29.8s-9.1-29.8-9.1-29.8zM954.5 382a295 295 0 00-2 55 211.2 211.2 0 01-.6 42zM716.1 120.8c2.7 3 3.6 7.3 3.7 11.3s-.4 8.2 0 12.2c.2 4.3 2.2 9.3 6.5 9.9z" transform="translate(-37.4 -49.5)" opacity=".1"/>
  <path d="M928.6 99.3a46.6 46.6 0 00-8.8 6 15.9 15.9 0 00-5.2 9.3c-.2 1.5 0 3-.4 4.6a14.4 14.4 0 01-3 5.5 75.4 75.4 0 01-7.5 8.3" transform="translate(-37.4 -49.5)" fill="none"/>
  <path d="M902.8 202.4a55 55 0 017.2-5 30.1 30.1 0 017.3-3.2c4-1 8.1-.9 12.2-1.3s8.3-1.6 11-4.6zM1063.5 152.5c-4.8.1-9.8.3-14 2.5-2.2 1.1-4.1 2.7-6.3 4a19 19 0 01-9 2.3zM996.8 172.3c1-.8 2.6-.1 3.5.8s1.3 2.3 2.2 3.3c1.8 1.9 4.6 2 7.2 2.2zM969.3 70.2l-4.6 2.4c-4.7 2.5-9.5 5-13.6 8.3zM916.5 115.4c-3-.7-5.6 2.5-6.2 5.6s.1 6.3-.7 9.3c-.8 2.6-2.7 4.8-4.6 6.8zM865.1 121c-2.7 8.3 3.1 17.3 1.4 25.8-.5 2.6-1.7 5-2.3 7.6-1.6 6.8 1.1 14 5.6 19.4z" transform="translate(-37.4 -49.5)" opacity=".1"/>
  <ellipse cx="237.7" cy="719" rx="25.4" ry="3.5" fill="#3bb8d7" opacity=".1"/>
  <ellipse cx="140.2" cy="728.9" rx="25.4" ry="3.5" fill="#3bb8d7" opacity=".1"/>
  <ellipse cx="25.4" cy="715.5" rx="25.4" ry="3.5" fill="#3bb8d7" opacity=".1"/>
  <ellipse cx="179.2" cy="757" rx="18.1" ry="2.5" fill="#3bb8d7" opacity=".1"/>
  <ellipse cx="78.1" cy="754.6" rx="18.1" ry="2.5" fill="#3bb8d7" opacity=".1"/>
  <path d="M177.1 777.7s35.7-117-5.6-163.8c-30.9-35-65.9-30.9-81.6-26.5a29 29 0 00-18.7 15.5c-5.5 11.8-4.5 31 34.2 53.5 64.9 37.5 69 89 69 89z" transform="translate(-37.4 -49.5)" fill="#3bb8d7"/>
  <path d="M95.5 604s105.2 32.8 81.6 173.7M157 615.7s-14.5 9.8-10 24.4M106 624.4s9-9 19.7-4M147.6 669.7s15.6-7.9 19.6 2M186.1 686.1s-11.7-.9-11.9 4.7" transform="translate(-37.4 -49.5)" fill="none" stroke="#565987" stroke-miterlimit="10"/>
  <path d="M178.6 778.6s-41.8-85-53.3-83.1c-5.5.8-8 6.2-9.1 11.6a34.2 34.2 0 002.3 20.7 91.7 91.7 0 0060 50.8z" transform="translate(-37.4 -49.5)" fill="#3bb8d7"/>
  <path d="M125.6 711.6s43.9 63.6 52.3 66.4" transform="translate(-37.4 -49.5)" fill="none" stroke="#565987" stroke-miterlimit="10"/>
  <path fill="none" stroke="#565987" stroke-miterlimit="10" d="M84.1 672h10.3M96.4 695.3l16 .6M106.2 676.6l-1.8 8.4M123.2 702.1l-.3 7.6"/>
  <path d="M177.3 778.6s41.8-85 53.3-83.1c5.4.8 8 6.2 9 11.6a34.2 34.2 0 01-2.2 20.7 91.7 91.7 0 01-60.1 50.8z" transform="translate(-37.4 -49.5)" fill="#3bb8d7"/>
  <path d="M230.3 711.6s-43.9 63.6-52.4 66.4" transform="translate(-37.4 -49.5)" fill="none" stroke="#565987" stroke-miterlimit="10"/>
  <path fill="none" stroke="#565987" stroke-miterlimit="10" d="M196.8 672h-10.2M184.6 695.3l-16.1.6M174.8 676.6l1.8 8.4M157.8 702.1l.3 7.6"/>
  <path d="M105.6 798.5a7.3 7.3 0 01-2.4-3.6 3.2 3.2 0 011.6-3.7c1.6-.6 3.2.5 4.4 1.5s2.7 2.3 4.3 2.1a6.5 6.5 0 01-2-6 2.6 2.6 0 01.6-1.3c.8-1 2.4-.5 3.4.2 3.2 2.3 4 6.6 4.1 10.6a20 20 0 000-4.4 4.5 4.5 0 011.7-3.8 4.9 4.9 0 012.5-.6c1.5 0 3 0 4 1.1 1.3 1.3 1 3.5-.1 5a15.9 15.9 0 01-4.2 3.4 9.1 9.1 0 00-3 2.8 3.4 3.4 0 00-.3.6h-9a25.6 25.6 0 01-5.6-4zM264.8 764.2a7.2 7.2 0 01-2.4-3.6 3.2 3.2 0 011.7-3.6c1.5-.6 3.1.4 4.3 1.5s2.7 2.3 4.3 2a6.5 6.5 0 01-2-6 2.6 2.6 0 01.6-1.3c.8-.9 2.4-.5 3.4.2 3.2 2.3 4.1 6.7 4.1 10.6a19.8 19.8 0 000-4.3 4.5 4.5 0 011.7-3.9 5 5 0 012.5-.6c1.5 0 3.1.1 4 1.2 1.3 1.3 1 3.5 0 5a15.7 15.7 0 01-4.3 3.3 9.5 9.5 0 00-3 2.9 2.7 2.7 0 00-.2.5h-9.1a25.2 25.2 0 01-5.6-3.9zM211.7 798.5a7.3 7.3 0 01-2.4-3.6 3.2 3.2 0 011.7-3.7c1.5-.6 3.1.5 4.4 1.5s2.6 2.3 4.3 2.1a6.5 6.5 0 01-2-6 2.6 2.6 0 01.5-1.3c.9-1 2.4-.5 3.4.2 3.2 2.3 4.1 6.6 4.2 10.6a20 20 0 000-4.4 4.5 4.5 0 011.7-3.8 4.9 4.9 0 012.5-.6c1.4 0 3 0 4 1.1 1.2 1.3 1 3.5-.1 5a15.7 15.7 0 01-4.2 3.4 9.2 9.2 0 00-3 2.8 2.6 2.6 0 00-.3.6h-9a25.4 25.4 0 01-5.7-4zM61.2 729.3s-3.4 4.4 1.6 11.1 9 12.4 7.4 16.6c0 0-7.5-12.5-13.6-12.6s-2.1-7.6 4.6-15.1z" transform="translate(-37.4 -49.5)" fill="#3bb8d7"/>
  <path d="M61.2 729.3a5.6 5.6 0 00-.7 1.3c-6 7-9.1 13.6-3.4 13.8 5.4.1 11.8 9.7 13.3 12l-.2.6s-7.5-12.5-13.6-12.6-2.1-7.6 4.6-15.1z" transform="translate(-37.4 -49.5)" opacity=".1"/>
  <path d="M54.9 735c0 1.5.2 2.8.4 2.8s.4-1.3.4-2.9-.3-.8-.5-.8-.3-.7-.3.8z" transform="translate(-37.4 -49.5)" fill="#ffd037"/>
  <path d="M52.7 736.8c1.4.8 2.6 1.2 2.7 1s-1-1-2.3-1.7-.8-.2-1 0-.8 0 .6.7z" transform="translate(-37.4 -49.5)" fill="#ffd037"/>
  <path d="M79.2 729.3s3.4 4.4-1.5 11.1-9.1 12.4-7.5 16.6c0 0 7.5-12.5 13.7-12.7s2.1-7.5-4.7-15z" transform="translate(-37.4 -49.5)" fill="#3bb8d7"/>
  <path d="M79.2 729.3a5.6 5.6 0 01.7 1.3c6 7 9.2 13.6 3.4 13.8-5.3.1-11.7 9.7-13.3 12a4 4 0 00.2.6s7.5-12.5 13.7-12.6 2.1-7.6-4.7-15.1z" transform="translate(-37.4 -49.5)" opacity=".1"/>
  <path d="M85.6 735c0 1.5-.2 2.8-.4 2.8s-.4-1.3-.4-2.9.2-.8.4-.8.4-.7.4.8z" transform="translate(-37.4 -49.5)" fill="#ffd037"/>
  <path d="M87.7 736.8c-1.3.8-2.5 1.2-2.6 1s.9-1 2.3-1.7.8-.2.9 0 .8 0-.6.7z" transform="translate(-37.4 -49.5)" fill="#ffd037"/>
  <path d="M84.5 756.5S75 756.2 72 754s-14.7-4.5-15.4-1.2-14.3 16.3-3.6 16.4 25-1.7 28-3.4 3.4-9.4 3.4-9.4z" transform="translate(-37.4 -49.5)" fill="#a8a8a8"/>
  <path d="M53 768.2c10.8 0 25-1.7 27.9-3.5 2.1-1.3 3-6 3.3-8.3h.3s-.6 7.7-3.4 9.5-17.1 3.5-28 3.4c-3 0-4-1.1-4-2.8.4 1 1.5 1.6 3.9 1.7z" transform="translate(-37.4 -49.5)" opacity=".2"/>
  <path d="M1015.3 505.2c-4-3.5-16.2-24.7-19.7-30.8l-.9-1.6c1.3-4.8-6.6-11.7-9-13.6-4.8-5.6-11.7-12.7-17.5-14.4-7.3-2.2-12.4.2-18-.7a14 14 0 01-3.8-1.3 19.4 19.4 0 01-2.4-1.4 28.5 28.5 0 01-5.3-5 11.5 11.5 0 003-.8q8.6-3.2 16.8-7.1c1.2-.6 2.5-1.3 3-2.5.2-.5.2-1 .5-1.6.5-1.1 1.8-1.5 3-1.9 4.2-1.3 8.8-3.8 9.5-8.1a11 11 0 000-1.8 7.3 7.3 0 01-.7 1.3c.1-1.5-.1-3 .1-4.4a8.9 8.9 0 011.5-3.5 11.8 11.8 0 00-.1 1.4c1.6-3.5 5.6-6.1 6.9-10a11.1 11.1 0 00.5-3 11 11 0 01-.9 1.6c.7-4.3-1.2-9.2 1-13l.6-.7a12 12 0 00-.2 1.4l.4-.7c1-1.8 2.9-3 3.4-5a5.8 5.8 0 00.1-2.3 10 10 0 01-.7.9 12.5 12.5 0 00-.4-2.8c-1.6-6.8-3.9-14.6-10.3-17.5-2-.8-4.2-1.2-5.8-2.7-3.5-3.3-1.6-10.4-5.7-13-1.8-1.1-4.6-1.2-5.3-3.3-.4-1.1.1-2.4-.3-3.6-.9-2.4-4.5-1.6-7-1.5-3.7.2-7.4-3-7-6.6a19 19 0 00-15.7-.7c-2.6 1-5.2 2.7-8 2.5-1.4-.1-2.7-.7-4-1-5.6-1-10.4 3.8-15.7 5.8-5.6 2.1-12.4 1.3-16.8 5.2-4 3.5-4.6 9.7-8.7 13-2.2 1.6-5 2.2-7.4 3.8s-3.9 5-2.1 7c2.2 2.8 8 1.3 9 4.7.9 2.7-2.5 4.7-3.7 7.2a5.6 5.6 0 003.8 7.7 36.2 36.2 0 0017.3 43.6l1.5 3a76.1 76.1 0 017.8 23.3c-3.7-1.2-11.6 6-11.6 6a86 86 0 01-12.1 2.1c-8.4 1.1-7.8 4.4-7.7 4.4l-.6.5c-4.3 3.8-33.9 30.3-38.6 31.3l.2 1-1.2.9-14.7 10.8s-11.2.8-22.2 2-26.7 4.7-15.3 18l1 1L735 526a2 2 0 00.5-1.2c0-1-1.1-2-3.1-2.7v-.3a319.5 319.5 0 0020-1.2c7-1.1-.5-6.4 2.8-10.5s0-19.7.3-23-2.2-16.5-4.4-19.3-2.5-14.7-2.5-14.7-5.3-4.7-8.3-20.7-15.2-24.3-19-25.1-9.6-4.2-9.6-5-6.7-1.2-9.4-2.3-4.2-2.4-6.4-2.7a12.3 12.3 0 002-3 6.7 6.7 0 012.4-2.6 3.6 3.6 0 01.6-.3 2.4 2.4 0 01.6 0 1.9 1.9 0 01.7 0c.8.3 1.7 1 2.4.5a.9.9 0 00.3-.2 2.2 2.2 0 00.4-1l.2-1.2v-.1l.1-1.3c.1-3.1-.3-6.4 1.2-9v-.2c1.5-2.6 4.4-4 6.7-6l1.4-1.1.5-.6.7-.8.6-.7.5-.7.6-1 .4-.5.5-1 .3-.6.5-1.2.1-.4.5-1.4v-.2a18.6 18.6 0 00.5-3 19.7 19.7 0 00-4.5-14.4c-2.5-3-6.2-5.6-6.4-9.5a15 15 0 011.2-5.4 13.4 13.4 0 00.6-2.3 6.3 6.3 0 000-1c0-3-1.8-5.6-4-7.6a25.7 25.7 0 00-23-6c-2.2.5-4.3 1.3-6.5 1-2.5-.3-4.6-2-7-3.2-7.4-3.8-17.5-1-22 6-2.6 4.1-3.6 9.4-7.5 12.3-2.3 1.7-5.5 2.4-7.2 4.6a4.9 4.9 0 00-.5.8 6.1 6.1 0 00-.6 2.7 18.6 18.6 0 00.3 3 13.2 13.2 0 004.1 8l.6.6.1.1 1.2 1.4.3.5-.4.5a33.2 33.2 0 005 46.4v1l-.5 5.8a4.8 4.8 0 00-3.7-1.3 4 4 0 00-2 .2 4.8 4.8 0 01-1 .2c-1.4-.1-2.7-.6-4.1-.5a4.6 4.6 0 00-4 1.4 39.4 39.4 0 01-16.8 6 2.9 2.9 0 01-1-.2 2.5 2.5 0 00-1.5-.1c-3-.7-11 5-12.8 8.4-2 3.6-8.3 13.3-8.3 13.3s-5.5 6.6-4.7 10.2-2 7.7-5.2 9.4-10 18.2-10 18.2-7.1 15.2-14.6 19.1c-3 1.5-3.8 5-3.9 8.8h-3s-23.2 6-30.5 1.5-33.1-5.5-33.1-5.5L457.3 466l-1-1.1c4.6-4-3.2-6.9-3.2-9.8s-3-4-3-4l-.3.3a5.1 5.1 0 00-.8-.3 7.3 7.3 0 01-2.1 1.8c-.6-.3-1-1.4-.8-3.7.2-4.5-2.7-9.2-5-12.3a174.5 174.5 0 0115-32.7 32.4 32.4 0 0011-51 28 28 0 00-1-1 6.9 6.9 0 01.8-.3 6 6 0 011 0c2.4 0 5.2 1 7.4 1a4.3 4.3 0 002-.4c2.4-1.2 1.9-4.4.5-6-1.8-2-4.5-3.4-5.8-5.6a17.8 17.8 0 01-1.3-4.3 15.3 15.3 0 00-9.3-9.7 19.7 19.7 0 00-14.7.4c-2.2 1-4 2.3-6.3 3-4.7 1.8-10 .8-14.8-.5-2.9-.8-5.7-1.7-8.5-2.3a42.4 42.4 0 00-3.9-12.3l-.5-1c4.8-1.6 11-1.3 13.6-5.7a9.6 9.6 0 004.5-.6c1.4-.6 2.4-2.3 1.9-3.8a3 3 0 00-.6-.9 11.5 11.5 0 00-2-1.5 11.8 11.8 0 01-5.1-9v.2a10.8 10.8 0 010-1.3c.1-2 .7-3.8.6-5.7a7.3 7.3 0 00-.6-2.3v.1a8.4 8.4 0 00-7.9-5.4l-3.7.5c-6 .2-11-6.6-16.8-5.2-1.2.3-2.4 1-3.7 1-2.9 0-4.7-3.4-7.5-4.3-2.2-.7-4.6.3-7 0s-4.1-1.6-6-2.7c-4.3-2.2-9.9-3.3-13.5-.2a12.2 12.2 0 01-2.7 2.1 7.6 7.6 0 01-3.8.2 35.2 35.2 0 00-11.3.8 4.3 4.3 0 00-2.6 1.3 7.6 7.6 0 00-.8 2.7c-1.2 4.3-6.5 5.8-11 6.2a6.3 6.3 0 00-3.3.9c-1.6 1.2-1.6 3.7-.8 5.6s1.9 3.6 2.1 5.6c.7 5-4.7 8.9-5.6 13.9-1.3 7 6.4 13.7 3.8 20.3-1.2 2.9-4.3 5-4.1 8.2s3.1 5 5 7.3 2.5 5.2 3.2 8c1 4.3 1.3 12.5 5.9 14.6a4.7 4.7 0 00.6.2 6.8 6.8 0 00.8.2l-.7 1a103.7 103.7 0 01-17.8 20.4 4.5 4.5 0 00-2.4-1.1c-3.3-.4-11.8 5.5-11.8 8.5S294 402 285 410.5s-8.8 49-5.9 56.7c1.2 3 2.8 11 4.3 19.6a10.8 10.8 0 00-4 5.8c-3.3 14 1.5 25.1 5.6 26.2s3-4.8 3-4.8c-3.2-7-3.8-12.4-2.6-16.5L288 514s10.7 33.9 14.7 44.2 18.4 74.8 18.4 74.8 1.6 2 4.4 4.9l3.3 18.3 5.5 11.1h.4l-.8 7.9s.7 33.1-1.1 38.1-18.2 95.1-18.2 95.1-5.2 31.7-4.8 39.4l12 2.6s-2.4-6.8 1-19.5 10.4-36.5 10.4-36.5l7-31.7.5 22.7s-6.3 28.2-5 29.6 10.8 2 10.8 2 0-15 2-23.4l26.3-101.2a47 47 0 0121.5-3.4c24.8 1.3 38.7 10.4 46.4 19.7-17.7 9.4-32.7 17.1-32.7 17.1l.2 1-.2.1-.4.2-.1.1-.4.3-.3.1-.4.3-.2.1-.5.3-.3.1-1.6 1-.2.1-.7.4-.2.2-.8.4-.2.1-.8.5h-.1l-1 .6-1 .6h-.1l-1 .6-.2.1-.7.4-.4.2-.7.4-.3.2-.7.4-.3.2-1 .5-1 .5-.2.1-.7.4-.3.2-.6.3-.4.2-.6.3-.2.1-.8.4-.9.5h-.2l-.5.3-.3.1-.4.2-.3.1-.3.2h-.3l-.3.2h-.2l-.4.2c-4.8 1.5-8.2 13.5-3 21.2s4 21.1 1.3 26.2.7 14.3 1.4 16.6c.5 1.7 6.7 3.6 16.4 3.2a69.5 69.5 0 0015.8-1.2c15.5-2.9 9.8-9.1 8-13.7s-2-17.7.4-23.7q.3-.6.4-1.3a307 307 0 0014.2-16.8c2.2-2.8 7.6-5.3 14.2-7.4 5.3 21.6 15.8 64.5 18.1 71.3 3.1 9.2 4.8 32 4.8 32l12.1-1.2-4-60.3-4.3-48c5.7-1 10.1-1.6 11.6-1.8 6 22.8 11.5 44.5 12.4 48.2 2 8.3 2 23.4 2 23.4s9.6-.5 10.9-2-5-29.6-5-29.6l1.2-49.9c13.7-6.4 30.4-14.2 37.8-17.4 7-3 18.4-10.1 28-16.4l17 138.7 10 .9 5.3-1.2 6.8-1.6 15.6-125c.7.4 1.2.9 1.7 1.3-.3 3.1-.6 8.5.7 12.3 2 5.8 1.6 18.5.2 23s-6 10.5 6.7 13.2 21.2.3 21.8-1.9 3.3-11 1-16-3-18 1.2-25.4 1.3-19-2.5-20.5c-2.6-.9-6.3-2.5-8.6-3.5l-.7-1a18.7 18.7 0 016-5.2c6.6-3.3 5.2-10.7 5.2-10.7s7 0 11.9-8.3c3.5-5.8 7.5-11.6 9.6-15.8.4 2.6.9 6 1.1 8.8.6 5.9 7.4 63.2 10.5 68s.6 22.8.6 22.8h10l-.7-27.6s-11.4-81.3-1.8-89.6l4.9-4.4 18.8 138-.1 2.2v1s-8.2 4-2.3 8.1a15 15 0 004.2 1.7l.4 3a43 43 0 01-6.4 0c-1.3-.5-1.3 17.2-1.3 17.2s-7.2 14.4-8 17.9-8.2 12.1-8.2 12.1-10.3 7.6 4.8 10.5 31.6-.9 31.6-.9 11-19.2 12-18 0 10 0 10l6.5-1.6s-1.1-12 1.4-18.4c2-5.1-2.4-21.3-4.3-27.7h1.2s1.1-2.1 2.2-8.8l.1-.6A85.6 85.6 0 01771 754c1.8-6 0-5.2 0-8.9a134.2 134.2 0 012-19l.1-.5a8.8 8.8 0 002.7 1.2c1 3 2.2 6.6 3 9.5-2 .6-3.4 1.4-3.6 2.2-1 4 .4 12.7.4 12.7s1.6 19.5-1.5 22.5-9.6 8.3-5.3 13.8a7 7 0 001.4 1.4c3 2.2 8.8 3.7 14.6 4l-2.4 36 12 1.2s1.7-22.7 4.8-31.9c.7-2 2.1-7.3 4-14.3 4.5-6.8 7-11.7 7-11.7l3.1 13 10.9-2.8s-5.9-11.4-5.2-15.5-3-9.8-6.2-14.4l-1.3-2.1 8.8-36s3-38.3 56.1-41.3a47 47 0 0121.6 3.5L924 777.7c2 8.3 2 23.4 2 23.4s9.6-.6 10.9-2-5-29.7-5-29.7l.5-22.7 7 31.7 10.3 36.5c3.5 12.7 1 19.5 1 19.5l12-2.5c.4-7.8-4.8-39.5-4.8-39.5s-16.3-90-18.2-95-1-38.2-1-38.2l-.9-7.7c13-9.2 20.3-58 20.3-58l13.6-75.9a91.8 91.8 0 005.4-12.1v-.1l1.6 1.8 7.9 19.4c15.6 21.9 31.2 21.1 31.2 21.1a1.1 1.1 0 00.1-.1 10.3 10.3 0 008-2.1l.2-.1c5.6-4.5-6.1-36.2-10.9-40.2zm-276 45.8l-2.8-11.7 3.1-.1zm-47-153a9 9 0 00-1 .7l-.8-2.3a5.3 5.3 0 001.8 1.6zm-94.6 160.4c-4.7 6.1-5.3 10-5.3 10l1.2.3-8.5 7.6-4.3-36.9 20.8 1a60.2 60.2 0 01-4 18zm20.1 76.9s4.3-1 9.9-2.7l-1.8 13.3c-5-6.4-8-10.6-8-10.6zm-11.9-146l.1-.4v.4zm-106.1 91.4a1181 1181 0 00-49.4-15.8 2.4 2.4 0 01-.3-1.9c1.1-3.7-7.3-13.6-10.6-16.2s-7.8-7.4-4-10.3a6.2 6.2 0 001.7-3.4l34.2 1.5a83.8 83.8 0 0010 3s5.8-.7 13.4-2l67.7 3 6.4 52.3c-4.2 3.8-7 6.5-7 6.8 0 .4-4.6 8.2-5.2 18.3l-35.2-11a5.1 5.1 0 00.1-.5c3.4-12.2-16.1-21.2-21.8-23.8zm-61.9-56c0-2.6-.3-4.4-.3-4.4l-.7-8.3c6.6 4.1 13.8 8.6 19 12.2zm159.3 155.6l.7-.4a10 10 0 005-3.5l8.2 7a57 57 0 01-12.5 9zm140.9-57.6l-1.3 71.7-10-66.4 11.3-5.3zm61.9-97.4s10.7 13.2 19 8.8c1.8.2 15.4-7 24-11.9a39.4 39.4 0 004.3 5l5.2-2.6 1-.6 2.2 21.3c1.1 9.2-14.2 21.7-14.3 21.8s0 .4 0 1.2l-1.1 1 1.2-.3c.1 3-.1 8-2.7 9.1-3.7 1.5-5.9 2.6-13.2.4a137.6 137.6 0 00-27.3-4.5c-12.8-.7-26.5.6-33 8.2l-.7.8-.3.5a3.2 3.2 0 00-.7.3l.1.6c-3.5 6.5-4.5 18.3-4.3 31.1l-1.1.5-.5.2-.5.2-1.1.6-.7.3-.9.5-1 .5-.5.4-1.3.8-.3.1-1.4 1-.1.1-.6.4 1.3-82.1 54.4-1-.9-7.7-8.4-.5a23.1 23.1 0 004.2-4.5zM409.8 729.9l.3-.8v-.2l.4-.6.3 1.6-1.2.7.2-.7zm192.2-8.5a81.3 81.3 0 0014.4-4l-8 59.4zm135.5 52.5l2.2.5v1.7l-2.3.2z" transform="translate(-37.4 -49.5)" fill="url(#9460e000-b540-487b-970a-49d5722f90c2)"/>
  <path d="M1110.5 744.4c0-2.1-8.7-4-21.5-5-3.5-5.8-9-12.1-9.5-14.7-.7-3.5-9.2-3-16.2-1.3 4.4-5.6 10.8-12.3 16.4-12.5 6-.1 6-4.5 2.7-10.6a20.5 20.5 0 003.6-1.6c2.2-1.2 1-.8.9-1.1s.7-1.2-1.5 0a20.8 20.8 0 00-3.3 2 19.7 19.7 0 00.4-4c0-2.4-.3-1.3-.6-1.3s-.7-1.1-.7 1.4a26.4 26.4 0 00.1 2.7 84.3 84.3 0 00-9-11.9l.2.5.1.3a7.3 7.3 0 01.4.8.4.4 0 010 .1l.1.4c1 3 1.8 8.6-3.6 15.9s-10.3 14-12 19.7c-1.6-5.6-6.5-12.3-12-19.7s-4.7-13-3.6-15.9l.1-.4.4-.9.1-.3a3.3 3.3 0 01.3-.4 84.3 84.3 0 00-9 11.8v-2.7c0-2.5-.3-1.4-.7-1.4s-.5-1.1-.5 1.4a19.5 19.5 0 00.3 4 20.8 20.8 0 00-3.2-2.1c-2.3-1.2-1.4-.3-1.5 0s-1.4 0 .9 1.1a20.5 20.5 0 003.5 1.6c-3.2 6.1-3.2 10.5 2.7 10.6 6.8.2 14.6 9.9 18.9 15.8a53.2 53.2 0 01-19.4 3.7h-.5a47.8 47.8 0 001 6.6 28.9 28.9 0 001.3 4c-5.3.9-8.5 2-8.5 3.3 0 2.7 13.9 5 32.3 5.5a220 220 0 0024.4 1.4l1.3-.1h.2l1.2-.2h.2a7.4 7.4 0 00.9-.3h.1a6.2 6.2 0 00.8-.3 4.5 4.5 0 00.7-.5 2.7 2.7 0 00.5-.6c12.1-1 19.8-2.8 19.8-4.8z" transform="translate(-37.4 -49.5)" fill="url(#d3efc67a-a667-44d9-839e-ddeb4c4ea6af)"/>
  <path d="M422.7 752.5s2 9.4-.3 15.3-2 19-.4 23.6 7.4 10.8-8 13.7-26 .3-26.7-2-4-11.4-1.3-16.5 3.7-18.5-1.4-26.2-1.7-19.6 3-21 25-13.5 25-13.5-7.5 13.1.6 16a14.7 14.7 0 019.5 10.6z" transform="translate(-37.4 -49.5)" fill="#575a88"/>
  <path d="M593.2 679.7s-31.2 21.7-44.8 27.5-58.7 27.2-58.7 27.2-45.4 5.9-52.8 15.4-17.6 20.6-17.6 20.6l-8-44.8s89.5-46.2 90.2-49.5 26.4-13.3-48.4-12.9c-65.6.3-89.8 4.6-95.3-4.5a10 10 0 01-1.2-4.7c-.8-15 88-81.4 88-81.4s4.4 2.3 9.5 5.3a81.3 81.3 0 0115.5 10.8c5.8 6.3 20.1 8.1 20.1 8.1l87.4 27.2s25.6 8 26.4 30.8-10.3 25-10.3 25z" transform="translate(-37.4 -49.5)" fill="#aac9f5"/>
  <path d="M603.5 654.8C602.7 632 577 624 577 624l-87.4-27.1s-14.3-1.9-20.1-8.1c-3.1-3.3-9.8-7.5-15.5-10.9-5.1-3-9.5-5.3-9.5-5.3s-88.8 66.4-88 81.5a10 10 0 001.2 4.7c5.5 9 29.7 4.8 95.3 4.5 74.8-.4 49.1 9.5 48.4 12.8s-90.3 49.5-90.3 49.5l.2 1a230.7 230.7 0 01-23.8 12.8c-4.7 1.4-8 13.4-3 21s4 21 1.4 26.2.6 14.2 1.3 16.4 11.1 4.9 26.7 2 9.7-9 8-13.6-2-17.6.4-23.6a12.8 12.8 0 00.4-1.3c3.7-4 9.5-10.7 14.1-16.7 7.4-9.6 52.9-15.4 52.9-15.4s45.1-21.3 58.7-27.2 44.7-27.5 44.7-27.5 11-2.2 10.3-25zm-190.2 87c-6.1-2.1-3.4-10-1.6-13.9l2.5 14.3-1-.4z" transform="translate(-37.4 -49.5)" opacity=".1"/>
  <path d="M479.8 677.4s25.3 96.8 27.4 105 2 23.4 2 23.4 9.5-.6 10.8-2-5-29.6-5-29.6l1.8-78.5-26.8-22.6z" transform="translate(-37.4 -49.5)" fill="#d5838e"/>
  <path fill="#ffccd0" d="M376.4 680h19.8v17.1h-19.8z"/>
  <path d="M428.2 752.5s2 9.4-.3 15.3-2 19-.4 23.6 7.4 10.8-8 13.7-26 .3-26.7-2-4-11.4-1.4-16.5 3.8-18.5-1.3-26.2-1.7-19.6 3-21 25-13.5 25-13.5-7.5 13.1.6 16a14.7 14.7 0 019.5 10.6zM447.2 564s47.9 14.5 53.6 17 25 11.6 21.8 23.7-30.3 13.4-30.3 13.4l-41-15.2-16.2-32.7z" transform="translate(-37.4 -49.5)" fill="#575a88"/>
  <path d="M462.8 396s-2.4 3.7-5.6 9.3l-.8 1.4c-8.7 15.6-22.5 43.6-13.7 52.6 12.4 12.6-28.4-7.2-28.4-7.2l-1-1.8-16.6-30s13-13.3 21-24.9l.3-.5c3.5-5.3 6-10.1 5.4-13.2s3.4-2.8 8.9-1c11.6 4.1 30.5 15.3 30.5 15.3z" transform="translate(-37.4 -49.5)" fill="#cd828d"/>
  <path d="M462.8 396s-2.4 3.7-5.6 9.3l-.8 1.4a32 32 0 01-18.2 2 32 32 0 01-20.1-12.7l-.4-.6.4-.5c3.5-5.3 5.8-10.1 5.3-13.2s3.4-2.8 8.9-1c11.6 4.1 30.5 15.3 30.5 15.3z" transform="translate(-37.4 -49.5)" opacity=".1"/>
  <path d="M476.3 375.9A32.2 32.2 0 01444 408a31.4 31.4 0 01-5.9-.6 32.2 32.2 0 1138-31.6z" transform="translate(-37.4 -49.5)" fill="#cd828d"/>
  <path d="M468.2 354.6c-2 .6-3.2 2-5 3-3.1 1.7-7.3 1.7-10.2 3.4-2.5 1.4-2.5 4.4-3.5 6.8-2.8 6.1-12.7 7.7-17.2 13a10.5 10.5 0 00-1 1.3c-2.4 4.2-1 9.1.9 13.5a108.9 108.9 0 006 12l1.2 2c2.5 4 5.3 8.4 3.8 12.7-2.4 7-14.4 8.7-17.9 15.4-1 2-1.2 4.2-2.3 6.2-1.8 3.3-5.5 5-9.6 6.4l-16.7-30s13.5-13.7 21.3-25.4a32.2 32.2 0 0150.2-40.3z" transform="translate(-37.4 -49.5)" opacity=".1"/>
  <path d="M478.8 347.7c-1.8-2-4.5-3.3-5.8-5.5a17.8 17.8 0 01-1.3-4.3 15.2 15.2 0 00-9.3-9.6 19.7 19.7 0 00-14.6.3c-2.2 1-4.1 2.3-6.3 3.2-4.7 1.6-10 .7-14.8-.6s-9.6-3.1-14.6-3-10.6 2.4-11.6 6.6a30 30 0 00-.3 3.5c-.6 5-5.2 9.1-10.3 12s-10.7 4.7-15.4 8-8.3 8.2-7 13.2c.7 3.2 3.2 5.7 5.3 8.4 5 6.8 7 14.8 9 22.7.6 2.7 1.3 5.6.7 8.3-1.2 5-6.3 8.4-9.7 12.6-4.1 5.2-5.5 11.7-5.2 18s2.1 12.4 4 18.5a23 23 0 002.9 6.4c2.4 3.5 6.6 5.8 10.6 7.9a12.5 12.5 0 006 2c4.3-.1 7-4.3 7.9-8a31.1 31.1 0 00.9-9.3 6.8 6.8 0 01.3-3.3 6.3 6.3 0 012.6-2.5c6.3-3.8 15.8-4.4 19.1-10.4 1.1-2 1.3-4.2 2.3-6.2 3.5-6.7 15.4-8.3 17.9-15.3 1.5-4.3-1.4-8.8-3.8-12.7a105.6 105.6 0 01-7.2-14c-1.9-4.4-3.4-9.4-1-13.5 3.8-6.4 15.3-7.7 18.2-14.3 1-2.4 1-5.4 3.5-6.8 3-1.7 7.1-1.7 10.2-3.4 2-1.2 3.4-2.8 5.9-3.3 3.2-.7 7.7 2 10.4.6 2.4-1.3 1.9-4.5.4-6.2z" transform="translate(-37.4 -49.5)" fill="#663d5c"/>
  <path d="M478.4 347.7c-1.7-2-4.5-3.3-5.8-5.5a18.8 18.8 0 01-1.3-4.3 15 15 0 00-8.4-9.2 14 14 0 014.4 6.7 18 18 0 001.3 4.2c1.3 2.2 4 3.6 5.7 5.6 1.5 1.6 2 4.8-.4 6-2.7 1.3-7.2-1.2-10.4-.6-2.4.5-3.8 2.1-5.8 3.3-3.1 1.8-7.3 1.7-10.2 3.4-2.5 1.4-2.5 4.4-3.5 6.8-3 6.7-14.4 8-18.2 14.3-2.5 4.2-1 9.1.9 13.5a107.5 107.5 0 007.2 14c2.5 4 5.3 8.4 3.8 12.7-2.4 7-14.4 8.6-17.9 15.3-1 2-1.2 4.3-2.2 6.2-3.3 6-12.9 6.6-19.2 10.4a6.3 6.3 0 00-2.6 2.5 6.7 6.7 0 00-.3 3.3 31.1 31.1 0 01-.9 9.3c-1 3.7-3.5 7.9-8 8a12.5 12.5 0 01-5.8-2l-2.7-1.4a54.5 54.5 0 006.7 4 12.5 12.5 0 005.9 1.9c4.4 0 7-4.3 8-8a31.1 31.1 0 00.8-9.2 6.8 6.8 0 01.4-3.4 6.3 6.3 0 012.5-2.4c6.3-3.8 16-4.5 19.2-10.4 1-2 1.2-4.2 2.3-6.2 3.5-6.7 15.4-8.3 17.8-15.4 1.5-4.3-1.3-8.7-3.7-12.7a106.8 106.8 0 01-7.3-14c-1.8-4.3-3.3-9.3-.9-13.4 3.8-6.4 15.2-7.7 18.2-14.4 1-2.3 1-5.3 3.5-6.7 3-1.7 7.1-1.7 10.2-3.5 2-1.1 3.4-2.7 5.9-3.2 3.2-.7 7.6 1.9 10.4.5 2.4-1.1 1.8-4.3.4-6z" transform="translate(-37.4 -49.5)" opacity=".1"/>
  <path d="M831.5 495.8s5 21 16 32l4.4-9.5-5.5-17.5z" transform="translate(-37.4 -49.5)" fill="#f26383"/>
  <path d="M846.3 500.8l-14.8-5s5 21 16 32" transform="translate(-37.4 -49.5)" opacity=".1"/>
  <path d="M1026.1 545.8l-.2.2a10.5 10.5 0 01-14.3-1.3l-42-47.2-1-1.2 22-25.3 4 2.6.8 1.6c3.5 6 15.6 27.2 19.7 30.6 4.8 4 16.5 35.6 11 40z" transform="translate(-37.4 -49.5)" fill="#ffc1c7"/>
  <path d="M614.1 681s-11.3 11.6-19 12.7-14 25.8-3.3 27.7 31.4-5.7 34.4-9 14-22.9 14-22.9z" transform="translate(-37.4 -49.5)" fill="#ffd6db"/>
  <path d="M850.6 518.7l-5.5 3c-8.5 4.8-24 13.2-26 13-2.7-.4-3.2-26.3-3.2-26.3l14.6-10.8 1.5-1.1 4.4-1.7z" transform="translate(-37.4 -49.5)" fill="#ffc1c7"/>
  <path d="M850.6 518.7l-5.5 3a33.6 33.6 0 00-14.6-24.1l1.5-1.1 4.4-1.7z" transform="translate(-37.4 -49.5)" opacity=".1"/>
  <path d="M881.6 488.6L864.5 519l-11.8 6-5.3 2.8c1.5-23-16-32-16-32 4.8-1 34.3-27.5 38.6-31.4l.5-.4 4-.6z" transform="translate(-37.4 -49.5)" fill="#3bb8d7"/>
  <path d="M935.3 652.8l-14.5-11 47.3-157 16.7 6.2-12.6 25-14 77.7s-8.2 55.4-22.9 59z" transform="translate(-37.4 -49.5)" fill="#e4aab4"/>
  <path d="M991.6 467.7l-49.9-.4s-43.6 12.1-40-5.5c2.3-11-3.1-24.7-7.5-33.5l-1.6-3c-1.9-3.5-3.3-5.7-3.3-5.7l11.7-1.8 9.6-1.3 5-.5c6.4-.6 11.4-.8 11.4.3s1 3.7 2.6 7l.9 1.6a71.7 71.7 0 007.9 12.1 29 29 0 005.5 5.4 18 18 0 002.3 1.3 14 14 0 004 1.3c5.5 1 10.6-1.5 18 .7 9.8 2.9 23.4 22 23.4 22z" transform="translate(-37.4 -49.5)" fill="#ffc1c7"/>
  <path d="M728 590.6s-42 23-44.6 32.3 6.3 16.5 6.3 16.5 1.4 7.9 2 13.7 7.3 63 10.4 67.7.6 22.8.6 22.8h10.1l-.7-27.6s-11.4-80.8-1.9-89.1 17.5-17.6 20.2-16.9-2.4-19.4-2.4-19.4z" transform="translate(-37.4 -49.5)" fill="#e4aab4"/>
  <path d="M676.3 557.8s-27.5 52.5-28 59.7-24 37.4-24 37.4l29.2 36.8s3.8-9.3 10.4-12.6 5.2-10.7 5.2-10.7 7 0 11.9-8.3 11-16.5 11-20 36.3-41 36.3-41l-2.8-40-7.4-12.6z" transform="translate(-37.4 -49.5)" fill="#bdd2e8"/>
  <path d="M604.8 560.8l-.3.2c-3.3 3-40.7 36.1-40.7 37s-13.5 23 3.3 42.3 55.3 50.9 55.3 50.9 16.7 12.1 19 14.6 35.5 0 15.7-22.6-38.6-47.9-38.6-47.9 33-8 35.3-13.4-43.5-74.3-43.5-74.3z" transform="translate(-37.4 -49.5)" opacity=".1"/>
  <path d="M603.7 560.8l-.3.2c-3.3 3-40.7 36.1-40.7 37s-13.5 23 3.3 42.3 55.3 50.9 55.3 50.9 16.8 12.1 19 14.6 35.5 0 15.7-22.6-38.5-47.9-38.5-47.9 33-8 35.2-13.4 45.7-73 45.7-73l-89.2-1.3z" transform="translate(-37.4 -49.5)" fill="#bdd2e8"/>
  <path d="M698.9 412.7l-3.3 30s-33.9 13.5-34.7 13.3-22.6-19.9-19-32.8c1.8-6.5 2.6-15.5 3-22.8s.3-13 .3-13 49.3-17.6 44.9-5.5c-1.6 4.4-1 9.7.6 14.6a67.9 67.9 0 008.2 16.2z" transform="translate(-37.4 -49.5)" fill="#cf6f80"/>
  <path d="M397.8 350.3v.2a156.7 156.7 0 00-9.3 25.5l-.3 1.2a62.7 62.7 0 00-2 18c.6 13.1 7.2 16.2 7.2 16.2s-100.7-16.5-84.2-19.3c2.7-.4 5.6-2 8.6-4.5 5.7-4.7 11.7-12.2 17.1-19.9 2-2.8 4-5.7 5.7-8.4l.4-.6c6.6-10.2 11.2-18.9 11.2-18.9s69.3-41.8 45.6 10.5z" transform="translate(-37.4 -49.5)" fill="#ffccd0"/>
  <path d="M896.8 672S922 768.8 924 777.1s2 23.3 2 23.3 9.5-.6 10.8-2-5-29.5-5-29.5l1.9-78.5-26.8-22.6z" transform="translate(-37.4 -49.5)" fill="#d5838e"/>
  <path d="M911.6 641.2l25.4.6 1.8 17.4s-.7 33 1 38 18.3 94.6 18.3 94.6 5 31.6 4.7 39.3l-11.9 2.6s2.4-6.8-1.1-19.5L939.5 778 931 739s-1.5-69-54.5-66-56 41-56 41-18 74.3-21 83.5-4.8 31.7-4.8 31.7l-12-1.1 4-60 11.1-123.5 34.5-2.3z" transform="translate(-37.4 -49.5)" fill="#e4aab4"/>
  <path d="M377.2 688S352 784.9 350 793.1s-2 23.3-2 23.3-9.5-.5-10.8-2 4.9-29.6 4.9-29.6l-1.8-78.5 26.8-22.5z" transform="translate(-37.4 -49.5)" fill="#d5838e"/>
  <path d="M362.4 657.2l-25.3.5-1.9 17.4s.8 33-1 38-18.2 94.7-18.2 94.7-5.1 31.5-4.8 39.2l12 2.6s-2.4-6.8 1-19.4 10.3-36.4 10.3-36.4l8.7-38.9s1.4-69 54.4-66 56 41.1 56 41.1 18 74.3 21 83.5 4.8 31.7 4.8 31.7l12.1-1.1-4-60-11.2-123.5-34.5-2.3z" transform="translate(-37.4 -49.5)" fill="#e4aab4"/>
  <path d="M690.8 396.5l-1 1a33 33 0 01-44.9 2.9c.4-7.3.3-13 .3-13s49.3-17.6 44.9-5.5c-1.6 4.4-1 9.7.6 14.6z" transform="translate(-37.4 -49.5)" opacity=".1"/>
  <path d="M698.9 373.8a33 33 0 11-33-33 32.8 32.8 0 0133 33z" transform="translate(-37.4 -49.5)" fill="#cf6f80"/>
  <path d="M598.7 679.7s-31.2 21.7-44.8 27.5-58.6 27.2-58.6 27.2-45.5 5.9-52.9 15.4-17.6 20.6-17.6 20.6l-8-44.8s89.5-46.2 90.2-49.5 26.4-13.3-48.4-12.9c-65.6.3-89.8 4.6-95.3-4.5a10 10 0 01-1.2-4.7c-.8-15 88-81.4 88-81.4s4.4 2.3 9.5 5.3a81.3 81.3 0 0115.5 10.8c5.8 6.3 20.2 8.1 20.2 8.1l87.3 27.2s25.6 8 26.4 30.8-10.3 25-10.3 25z" transform="translate(-37.4 -49.5)" fill="#aac9f5"/>
  <path d="M658.1 443.9s-12.9-28.7-17.3-28.7-11.3 148.3-11.3 148.3l67.4 1 2.8-77.8-13.8-69s-12.4 27.2-27.8 26.2z" transform="translate(-37.4 -49.5)" opacity=".1"/>
  <path d="M658.1 446s-12.9-28.6-17.3-28.6-11.3 148.3-11.3 148.3l76.5 1.1-6.3-78-13.8-69s-12.4 27.3-27.8 26.3z" transform="translate(-37.4 -49.5)" opacity=".1"/>
  <path d="M658.1 445s-12.9-28.7-17.3-28.7-11.3 148.3-11.3 148.3l76.5 1.1-6.3-78-13.8-69S673.5 446 658.1 445z" transform="translate(-37.4 -49.5)" fill="#ffd6db"/>
  <path d="M645.6 407.3s-2.3-3.4-5.6-2.3-5.8-1.9-9.1 1.1-16.5 7.2-19 5.8-11.3 4.7-13.2 8.3-8.3 13.2-8.3 13.2-5.5 6.6-4.6 10.2-2 7.7-5.3 9.3-9.9 18.2-9.9 18.2-7.1 15.1-14.6 19-1.9 20.6-1.9 20.6l44-1.4 10-22.5s-4 66-8.6 72-5.2 10-5.2 10 18.1 3.8 22 7.1 14-.8 14-.8l9.9-87.8s3.5-16.5 3.5-25 1.9-55 1.9-55z" transform="translate(-37.4 -49.5)" opacity=".1"/>
  <path d="M644.5 407.3s-2.3-3.4-5.6-2.3-5.8-1.9-9.1 1.1-16.5 7.2-19 5.8-11.3 4.7-13.2 8.3-8.3 13.2-8.3 13.2-5.5 6.6-4.6 10.2-2 7.7-5.3 9.3-9.9 18.2-9.9 18.2-7.1 15.1-14.6 19-1.9 20.6-1.9 20.6l44-1.4 10-22.5s-3.9 66-8.5 72-5.3 10-5.3 10 18.2 3.8 22 7.1 14-.8 14-.8l10-87.8s3.5-16.5 3.5-25 1.8-55 1.8-55z" transform="translate(-37.4 -49.5)" fill="#575a89"/>
  <path d="M583.9 455.1s3.3 9 12.3 8.3-12.4-8.3-12.4-8.3zM592.6 441.4s6.1 1 8.3 6.3-8.3-6.3-8.3-6.3zM609.7 432c0 1.1 3.9 20.4 0 28.3s-3.3 17.4-3.3 17.4zM691 400.7s2-2.5 4.3-2.3 3.6 1.7 6.3 2.8 9.4 1.4 9.4 2.2 5.8 4.1 9.6 5 16 9 19 25 8.2 20.6 8.2 20.6l-29.1 14.3S741.2 564.1 744 571s3 47.6 3 47.6-17.9 8-22.6 10.5-2.7-23.7-12.3-38.8-20.7-37.2-20.7-37.2L674.6 506s-10.7-62.7-1.6-74.3 18.8-26.9 18-31z" transform="translate(-37.4 -49.5)" opacity=".1"/>
  <path d="M692 400.7s2.1-2.5 4.3-2.3 3.6 1.7 6.4 2.8 9.3 1.4 9.3 2.2 5.8 4.1 9.7 5 16 9 19 25 8.2 20.6 8.2 20.6l-29.1 14.3S742.3 564.1 745 571s3 47.6 3 47.6-17.9 8-22.6 10.5-2.7-23.7-12.3-38.8-20.7-37.2-20.7-37.2L675.7 506s-10.7-62.7-1.6-74.3 18.8-26.9 17.9-31z" transform="translate(-37.4 -49.5)" fill="#575a89"/>
  <path d="M751.7 521.1l-3 .4c-8.9.8-26.2 1-26.2 1s-13-25.6-24-24.8c0 0 10.3-11.5 14.4-10.1.7.2 1.1-.3 1.3-1.3 1.1-5-2.7-21.9-2.7-21.9l-5.2-22.8 30.3 7.4c2.7.6 11.2 5 11.2 5s.3 11.8 2.5 14.6 4.7 16 4.4 19.2 3 18.7-.3 22.9 4.2 9.3-2.7 10.4z" transform="translate(-37.4 -49.5)" opacity=".1"/>
  <path d="M752.8 521.1l-3 .4c-8.8.8-26.1 1-26.1 1s-13-25.6-24-24.8c0 0 10.2-11.5 14.3-10.1.7.2 1.2-.3 1.4-1.3 1-5-2.7-21.9-2.7-21.9l-5.3-22.8 30.3 7.4c2.8.6 11.3 5 11.3 5s.3 11.8 2.5 14.6 4.6 16 4.4 19.2 3 18.7-.3 22.9 4 9.3-2.8 10.4z" transform="translate(-37.4 -49.5)" fill="#575a89"/>
  <path d="M721.7 461.2s25.3 2.7 26.4 9-26.4-9-26.4-9z" transform="translate(-37.4 -49.5)" opacity=".1"/>
  <path d="M638.6 701.4s-1.6 9 .3 14.8 1.6 18.5.3 22.9-6 10.4 6.6 13.2 21.1.3 21.7-2 3.3-11 1-16-3-17.8 1.2-25.3 1.4-19-2.5-20.3-10.4-4.4-10.4-4.4 7.1 13 .5 15.7-18.7 1.4-18.7 1.4z" transform="translate(-37.4 -49.5)" fill="#ffd6db"/>
  <path d="M698.9 373.8a32.8 32.8 0 01-9 22.6.6.6 0 01-.1-.1c-1-2.1-2-4.3-1.9-6.6.1-2.8 1.7-5.3 2.2-8 .7-3.5-.4-7-1.6-10.3-.8-2.4-2.3-5.4-4.9-5.1a5.6 5.6 0 01-1.5.2c-1.4-.2-1.7-2-1.8-3.4a15.2 15.2 0 00-12.4-13 3.8 3.8 0 00-2.2.1c-1 .4-1.5 1.5-2.4 2-2.8 2-6.3-1.7-9.7-1.4-2.9.2-4.6 3.2-5.8 5.8s-2.7 5.6-5.5 6.3a1.7 1.7 0 01-1.4-.2c-.9-.6-.2-2 .2-3 1.2-2.6.4-4.7-1-6.5a33 33 0 0158.8 20.6z" transform="translate(-37.4 -49.5)" opacity=".1"/>
  <path d="M641 358.6c-.4 1-1 2.4 0 3a1.7 1.7 0 001.3.2c2.8-.7 4.3-3.7 5.5-6.3s3-5.6 5.8-5.8c3.4-.3 7 3.4 9.7 1.5.9-.6 1.4-1.7 2.4-2.1a3.9 3.9 0 012.1-.1 15.2 15.2 0 0112.5 13c.1 1.4.4 3.1 1.8 3.4a5.6 5.6 0 001.5-.2c2.5-.3 4.1 2.6 5 5 1 3.4 2.2 7 1.5 10.4-.5 2.7-2 5.2-2.2 8 0 2.3 1 4.5 1.9 6.5s2.5 4.6 4.7 4.3c1.9-.3 3-2.2 3.8-3.9s2.5-3.4 4.3-2.9c.8.2 1.7 1 2.4.5a1.7 1.7 0 00.7-1.2c.9-3.8-.4-8.2 1.5-11.6 1.4-2.7 4.3-4.1 6.7-6a19.3 19.3 0 002.6-27.6c-2.5-3-6.2-5.6-6.4-9.5-.1-3 1.9-5.7 1.9-8.7s-1.8-5.5-4-7.5a25.6 25.6 0 00-23-6c-2.1.5-4.3 1.3-6.5 1-2.5-.3-4.6-2-6.9-3.1a17.6 17.6 0 00-22 6c-2.6 4-3.6 9.3-7.5 12.1-2.5 2-6.2 2.6-7.6 5.4-.9 1.7-.6 3.8-.4 5.6a13 13 0 004.2 8c2.3 2.5 4.4 5 2.8 8.6z" transform="translate(-37.4 -49.5)" fill="#512e4e"/>
  <path fill="#ffceb4" d="M571.7 726.7l-.3 53.6-9.9-.8-36-293 10.6-.3 7.6-.3 28 240.8z"/>
  <path fill="#f8bda5" d="M571.5 780.3l-10-.8-36-293 10.6-.3-.4 1.7 35.8 292.4z"/>
  <path fill="#ffceb4" d="M619.9 487l-36.4 290.6-6.8 1.5-5.3 1.2.3-53.6 32-238.6h.6l15.6-1z"/>
  <path fill="#f8bda5" d="M576.7 779v.1l-5.3 1.2.3-53.6 32-238.6h.6l6.5 1.4L576.7 779zM703 665.9l-.9 19-2.2 50.9-34-249 7.7-.9 2.4-.3L703 666z"/>
  <path fill="#ffceb4" d="M703 665.9l-.9 19-28-196.8-.5-2.2 2.4-.3L703 666z"/>
  <path fill="#f8bda5" d="M712.3 576.5l.9 121.3-4.7-.2-9.7-.4 3.9-212.4 7.4 1 3.6.4-1.4 90.3z"/>
  <path fill="#ffceb4" d="M712.3 576.5l.9 121.3-4.7-.2 1.6-211.9 3.6.5-1.4 90.3z"/>
  <path fill="#f8bda5" d="M397.3 484l.5-8.3 47.3.3 142.3-2.2 109.8 6 69.9 1.4.8 7.8-179.7 3.3-191-8.3z"/>
  <path fill="#ffceb4" d="M397.8 475.8l140.3 6 229-.6-171.2-10.4-198 5z"/>
  <path d="M397.8 350.3v.2a156.7 156.7 0 00-9.3 25.5l-.3 1.2a42.1 42.1 0 01-11.8 1.7c-10.6 0-15.4-11.1-22.9-17.6-2.9-2.5-10.4 1.8-12.5-1.5a5.2 5.2 0 01-.4-.5l.4-.6c6.6-10.2 11.2-18.9 11.2-18.9s69.3-41.8 45.6 10.5z" transform="translate(-37.4 -49.5)" opacity=".1"/>
  <path d="M418.8 335.4a42.4 42.4 0 11-4.5-18.8 42.4 42.4 0 014.5 18.8z" transform="translate(-37.4 -49.5)" fill="#ffccd0"/>
  <path d="M393.4 411.4s-100.7-16.5-84.2-19.3c2.7-.4 5.6-2 8.6-4.5a7.2 7.2 0 011.3 2.3l18.8-2.2s23.8-5.1 33.3.7a75.1 75.1 0 0015 6.8c.6 13.1 7.2 16.2 7.2 16.2zM459.6 577.9a5.6 5.6 0 01-1.8 1c-4.7 1.4-10.6 23.4-10.6 23.4S386 661 363.3 658.7a10 10 0 01-1.2-4.7c-.8-15 88-81.4 88-81.4s4.4 2.3 9.5 5.3z" transform="translate(-37.4 -49.5)" opacity=".1"/>
  <path d="M620.5 516.1c0 5.6-9.8 11.2-21.8 11.2s-21.7-5.6-21.7-11.1 9.7-9 21.8-9 21.7 3.4 21.7 9z" transform="translate(-37.4 -49.5)" fill="#e8eaf2"/>
  <path d="M620.5 516.1c0 5.6-9.8 11.2-21.8 11.2s-21.7-5.6-21.7-11.1 9.7-9 21.8-9 21.7 3.4 21.7 9z" transform="translate(-37.4 -49.5)" opacity=".1"/>
  <ellipse cx="561.3" cy="466.6" rx="21.8" ry="10.1" fill="#e8eaf2"/>
  <ellipse cx="561.4" cy="467" rx="13" ry="5.2" opacity=".1"/>
  <path d="M628.8 504.4c-.4-2.7-4-4.5-8.6-4.6a19.4 19.4 0 00-3.7.2c-6.3 1-10.9 4.6-10.3 8 .4 2.7 4 4.5 8.5 4.6a20 20 0 003.8-.2c6.3-1 10.9-4.6 10.3-8zm-10.6 6.3a13.7 13.7 0 01-2 .1c-3.6.1-6.5-1.2-6.9-3.3-.3-2.4 3-5 7.5-5.7a14.3 14.3 0 013.2-.2c3 .2 5.3 1.5 5.6 3.3.4 2.5-2.9 5-7.4 5.8zM609.2 515.6a2.3 2.3 0 01-.6 1.5c-1.3 1.8-5.1 3-9.6 3-4.2 0-7.9-1-9.4-2.7a2.6 2.6 0 01-.9-1.8c0-2.5 4.6-4.5 10.3-4.5s10.2 2 10.2 4.5z" transform="translate(-37.4 -49.5)" fill="#f1cec8"/>
  <path d="M609.2 515.6a2.3 2.3 0 01-.6 1.5 19.6 19.6 0 01-8.7 2h-2.4a19.8 19.8 0 01-8-1.7 2.6 2.6 0 01-.8-1.8c0-2.5 4.6-4.5 10.3-4.5s10.2 2 10.2 4.5zM620.2 499.8l-.2 1.8a14.3 14.3 0 00-3.2.2c-4.5.7-7.8 3.3-7.4 5.7.3 2.1 3.2 3.4 6.8 3.3a20.8 20.8 0 01-1.5 1.9c-4.6-.2-8.1-2-8.5-4.7-.6-3.4 4-7 10.3-8a19.4 19.4 0 013.7-.3z" transform="translate(-37.4 -49.5)" opacity=".1"/>
  <path d="M577.7 496.2v2.8a19.8 19.8 0 0019.8 19.8h2.5a19.8 19.8 0 0019.7-19.8v-2.8z" transform="translate(-37.4 -49.5)" fill="#f1cec8"/>
  <ellipse cx="561.2" cy="446" rx="21.1" ry="6" fill="#f6e2df"/>
  <ellipse cx="561.3" cy="445.6" rx="20" ry="5.4" opacity=".1"/>
  <ellipse cx="561.4" cy="445.4" rx="19.5" ry="5.4" fill="#fdf9f9"/>
  <path d="M584.5 496.4a.6.6 0 11.6-.5.6.6 0 01-.6.5zm0-.9a.3.3 0 00-.3.4.3.3 0 10.7 0 .3.3 0 00-.4-.4z" transform="translate(-37.4 -49.5)" fill="#42312e" opacity=".3"/>
  <path d="M585.1 495.3a.6.6 0 11.6-.6.6.6 0 01-.6.6zm0-1a.3.3 0 10.4.4.3.3 0 00-.4-.3zM584.5 493.5a.6.6 0 11.6-.5.6.6 0 01-.6.5zm0-.9a.3.3 0 10.4.4.3.3 0 00-.4-.4zM588.5 497.6a.6.6 0 11.6-.6.6.6 0 01-.6.6zm0-.9a.3.3 0 00-.3.4.3.3 0 10.7 0 .3.3 0 00-.4-.4zM604.7 496.5a.6.6 0 110-1 .6.6 0 010 1zm0-.9a.3.3 0 100 .7.3.3 0 100-.7zM608.3 498a.6.6 0 11.6-.6.6.6 0 01-.6.5zm0-1a.3.3 0 00-.3.4.3.3 0 00.7 0 .3.3 0 00-.4-.4zM608.5 495.6a.6.6 0 11.5-.5.6.6 0 01-.5.5zm0-.9a.3.3 0 10.3.4.3.3 0 00-.3-.4zM610.2 492a.6.6 0 11.5-.6.5.5 0 01-.5.5zm0-1a.3.3 0 00-.4.4.3.3 0 10.7 0 .3.3 0 00-.3-.4zM609.3 497a.6.6 0 11.6-.5.6.6 0 01-.6.5zm0-.9a.3.3 0 10.4.4.3.3 0 00-.4-.4zM611.3 495.9a.6.6 0 11.6-.6.6.6 0 01-.6.6zm0-1a.3.3 0 10.4.4.3.3 0 00-.4-.3zM611.1 497.2a.6.6 0 11.6-.6.5.5 0 01-.6.6zm0-1a.3.3 0 100 .8.3.3 0 100-.7zM610.5 493.9a.6.6 0 11.6-.6.6.6 0 01-.6.6zm0-1a.3.3 0 10.4.4.3.3 0 00-.4-.3zM613.5 493.2a.6.6 0 11.6-.6.6.6 0 01-.6.6zm0-1a.3.3 0 10.4.4.3.3 0 00-.4-.3zM604.7 491.9a.6.6 0 110-1.1.6.6 0 010 1zm0-1a.3.3 0 100 .8.3.3 0 100-.7zM602.7 491a.6.6 0 11.5-.6.6.6 0 01-.5.6zm0-.9a.3.3 0 10.3.3.3.3 0 00-.3-.3zM598 491.3a.6.6 0 11.6-.6.6.6 0 01-.5.6zm0-.9a.3.3 0 10.4.4.3.3 0 00-.3-.4zM602 496.7a.6.6 0 11.5-.6.6.6 0 01-.5.6zm0-.9a.3.3 0 100 .7.3.3 0 000-.7zM587.1 497.3a.6.6 0 11.6-.6.6.6 0 01-.6.6zm0-1a.3.3 0 10.4.4.3.3 0 00-.4-.3zM589.4 496a.6.6 0 11.6-.6.6.6 0 01-.6.6zm0-.9a.3.3 0 10.4.3.3.3 0 00-.4-.3zM591.4 496.6a.6.6 0 11.6-.5.6.6 0 01-.6.5zm0-.9a.3.3 0 00-.3.4.3.3 0 00.7 0 .3.3 0 00-.4-.4zM591.8 495.3a.6.6 0 11.5-.6.6.6 0 01-.5.6zm0-1a.3.3 0 00-.4.4.3.3 0 10.7 0 .3.3 0 00-.3-.3z" transform="translate(-37.4 -49.5)" fill="#42312e" opacity=".3"/>
  <path d="M591.8 494a.6.6 0 11.5-.5.6.6 0 01-.5.5zm0-.9a.3.3 0 10.3.4.3.3 0 00-.3-.4zM592.3 498.4a.6.6 0 11.6-.6.6.6 0 01-.6.6zm0-1a.3.3 0 10.4.4.3.3 0 00-.4-.3zM597.8 498.5a.6.6 0 11.5-.5.6.6 0 01-.5.5zm0-.9a.3.3 0 10.3.4.3.3 0 00-.3-.4zM597.1 497.2a.6.6 0 11.6-.6.6.6 0 01-.6.6zm0-1a.3.3 0 10.3.4.3.3 0 00-.3-.3zM594.4 496.5a.6.6 0 11.5-.5.6.6 0 01-.5.5zm0-.9a.3.3 0 100 .7.3.3 0 100-.7zM600.2 494.4a.6.6 0 11.6-.6.6.6 0 01-.6.6zm0-1a.3.3 0 10.4.4.3.3 0 00-.4-.3zM597.7 495.9a.6.6 0 11.6-.6.6.6 0 01-.6.6zm0-1a.3.3 0 10.4.4.3.3 0 00-.4-.3zM600.6 492.8a.6.6 0 11.6-.6.6.6 0 01-.6.6zm0-1a.3.3 0 10.4.4.3.3 0 00-.4-.3zM600.4 491.3a.6.6 0 11.6-.6.6.6 0 01-.6.6zm0-1a.3.3 0 10.4.4.3.3 0 00-.4-.3zM599.3 492.8a.6.6 0 11.5-.5.6.6 0 01-.5.5zm0-.9a.3.3 0 10.3.4.3.3 0 00-.3-.4zM596.5 495.4a.6.6 0 11.5-.5.5.5 0 01-.5.5zm0-.9a.3.3 0 100 .7.3.3 0 100-.7zM594.4 495a.6.6 0 11.5-.6.5.5 0 01-.5.6zm0-.9a.3.3 0 100 .7.3.3 0 100-.7zM597.1 492.4a.6.6 0 11.6-.5.6.6 0 01-.6.5zm0-.9a.3.3 0 10.3.4.3.3 0 00-.3-.4zM593 493a.3.3 0 11.4-.3.3.3 0 01-.3.3zm0-.6a.2.2 0 100 .5.2.2 0 100-.5z" transform="translate(-37.4 -49.5)" fill="#42312e" opacity=".3"/>
  <path d="M594.1 493.7a.3.3 0 11.4-.4.3.3 0 01-.4.4zm0-.6a.2.2 0 000 .4.2.2 0 100-.4zM599.3 490.9a.3.3 0 11.4-.4.3.3 0 01-.4.4zm0-.6a.2.2 0 10.2.2.2.2 0 00-.2-.2zM600 496.7a.3.3 0 11.4-.3.3.3 0 01-.3.3zm0-.5a.2.2 0 000 .4.2.2 0 100-.4zM601 497.1a.3.3 0 11.3-.3.3.3 0 01-.3.3zm0-.5a.2.2 0 00-.2.2.2.2 0 10.4 0 .2.2 0 00-.2-.2zM599.9 495.8a.3.3 0 01-.4-.4.3.3 0 11.7 0 .3.3 0 01-.3.4zm0-.6a.2.2 0 00-.2.2.2.2 0 10.4 0 .2.2 0 00-.2-.2zM606.7 492.5a.3.3 0 11.4-.3.3.3 0 01-.4.3zm0-.6a.2.2 0 00-.2.3.2.2 0 10.4 0 .2.2 0 00-.2-.3zM607.1 493.4a.3.3 0 11.4-.4.3.3 0 01-.4.4zm0-.6a.2.2 0 100 .5.2.2 0 100-.5zM606.8 494.2a.3.3 0 01-.4-.3.3.3 0 01.4-.4.3.3 0 01.3.4.3.3 0 01-.3.3zm0-.5a.2.2 0 00-.2.2.2.2 0 00.2.2.2.2 0 00.2-.2.2.2 0 00-.2-.3zM605.9 496.8a.3.3 0 11.3-.4.3.3 0 01-.3.4zm0-.6a.2.2 0 00-.2.2.2.2 0 10.4 0 .2.2 0 00-.2-.2zM611.4 494.4a.3.3 0 01-.3-.4.3.3 0 11.7 0 .3.3 0 01-.4.4zm0-.6a.2.2 0 00-.2.2.2.2 0 10.4 0 .2.2 0 00-.2-.2zM603.2 496.5a.3.3 0 11.4-.3.3.3 0 01-.4.3zm0-.6a.2.2 0 10.2.3.2.2 0 00-.2-.3zM606.1 495a.3.3 0 11.3-.3.3.3 0 01-.3.4zm0-.5a.2.2 0 000 .4.2.2 0 100-.4zM605 497.5a.3.3 0 01-.4-.4.3.3 0 11.7 0 .3.3 0 01-.4.4zm0-.6a.2.2 0 00-.3.2.2.2 0 10.5 0 .2.2 0 00-.3-.2zM612.6 495a.3.3 0 01-.4-.3.3.3 0 11.7 0 .3.3 0 01-.3.4zm0-.5a.2.2 0 100 .4.2.2 0 00.2-.2.2.2 0 00-.2-.2zM608.1 491.3a.3.3 0 11.4-.3.3.3 0 01-.4.3zm0-.6a.2.2 0 100 .5.2.2 0 100-.5zM596.3 490.9a.3.3 0 11.4-.4.3.3 0 01-.4.4zm0-.6a.2.2 0 10.2.2.2.2 0 00-.2-.2zM586.4 493.8a.3.3 0 01-.4-.3.3.3 0 11.7 0 .3.3 0 01-.3.3zm0-.6a.2.2 0 00-.2.3.2.2 0 00.4 0 .2.2 0 00-.2-.3zM595 491.3a.3.3 0 11.4-.3.3.3 0 01-.4.3zm0-.6a.2.2 0 100 .5.2.2 0 100-.5zM587.3 495.4a.3.3 0 11.3-.3.3.3 0 01-.3.3zm0-.5a.2.2 0 100 .4.2.2 0 100-.4zM588.5 493.3a.3.3 0 11.4-.3.3.3 0 01-.4.3zm0-.6a.2.2 0 100 .5.2.2 0 100-.4zM582.2 494.8a.3.3 0 11.4-.4.3.3 0 01-.4.4zm0-.6a.2.2 0 00-.2.2.2.2 0 10.4 0 .2.2 0 00-.2-.2zM591 497.8a.3.3 0 010-.7.3.3 0 110 .7zm0-.5a.2.2 0 100 .4.2.2 0 100-.4zM593.6 498a.3.3 0 110-.7.3.3 0 010 .7zm0-.6a.2.2 0 100 .5.2.2 0 000-.5z" transform="translate(-37.4 -49.5)" fill="#42312e" opacity=".3"/>
  <circle cx="545.9" cy="446.3" r=".3" fill="#42312e" opacity=".3"/>
  <circle cx="547.9" cy="442.4" r=".3" fill="#42312e" opacity=".3"/>
  <circle cx="550.7" cy="444.1" r=".3" fill="#42312e" opacity=".3"/>
  <circle cx="548.9" cy="441.6" r=".3" fill="#42312e" opacity=".3"/>
  <circle cx="559" cy="443.5" r=".3" fill="#42312e" opacity=".3"/>
  <circle cx="550.2" cy="443.1" r=".3" fill="#42312e" opacity=".3"/>
  <circle cx="549.2" cy="443" r=".3" fill="#42312e" opacity=".3"/>
  <circle cx="551.2" cy="445.1" r=".3" fill="#42312e" opacity=".3"/>
  <circle cx="566.4" cy="443.4" r=".3" fill="#42312e" opacity=".3"/>
  <circle cx="570.5" cy="444.2" r=".3" fill="#42312e" opacity=".3"/>
  <circle cx="569.4" cy="447.7" r=".3" fill="#42312e" opacity=".3"/>
  <circle cx="570.9" cy="446.6" r=".3" fill="#42312e" opacity=".3"/>
  <circle cx="566.3" cy="448" r=".3" fill="#42312e" opacity=".3"/>
  <circle cx="565.3" cy="443.4" r=".3" fill="#42312e" opacity=".3"/>
  <circle cx="561.9" cy="447.4" r=".3" fill="#42312e" opacity=".3"/>
  <circle cx="568" cy="444.3" r=".3" fill="#42312e" opacity=".3"/>
  <circle cx="565.1" cy="448.3" r=".3" fill="#42312e" opacity=".3"/>
  <circle cx="552.8" cy="447.7" r=".3" fill="#42312e" opacity=".3"/>
  <circle cx="569.7" cy="445.3" r=".3" fill="#42312e" opacity=".3"/>
  <circle cx="576.1" cy="444.8" r=".3" fill="#42312e" opacity=".3"/>
  <circle cx="574.2" cy="443.2" r=".2" fill="#42312e" opacity=".3"/>
  <circle cx="567.9" cy="442.7" r=".2" fill="#42312e" opacity=".3"/>
  <circle cx="555.6" cy="445.3" r=".2" fill="#42312e" opacity=".3"/>
  <circle cx="572.4" cy="444.7" r=".2" fill="#42312e" opacity=".3"/>
  <circle cx="566.5" cy="442.4" r=".2" fill="#42312e" opacity=".3"/>
  <circle cx="571.6" cy="443.4" r=".2" fill="#42312e" opacity=".3"/>
  <circle cx="568.5" cy="441.3" r=".2" fill="#42312e" opacity=".3"/>
  <circle cx="566.3" cy="441" r=".2" fill="#42312e" opacity=".3"/>
  <circle cx="556.3" cy="442" r=".2" fill="#42312e" opacity=".3"/>
  <circle cx="558.5" cy="442.2" r=".2" fill="#42312e" opacity=".3"/>
  <circle cx="553" cy="444.2" r=".2" fill="#42312e" opacity=".3"/>
  <circle cx="564.2" cy="444.3" r=".2" fill="#42312e" opacity=".3"/>
  <circle cx="565.5" cy="444.6" r=".2" fill="#42312e" opacity=".3"/>
  <circle cx="558.1" cy="445" r=".2" fill="#42312e" opacity=".3"/>
  <circle cx="561.4" cy="445.3" r=".2" fill="#42312e" opacity=".3"/>
  <circle cx="557.8" cy="442.9" r=".2" fill="#42312e" opacity=".3"/>
  <circle cx="565.2" cy="445.3" r=".2" fill="#42312e" opacity=".3"/>
  <circle cx="564.1" cy="445.5" r=".2" fill="#42312e" opacity=".3"/>
  <circle cx="547.1" cy="442.4" r=".2" fill="#42312e" opacity=".3"/>
  <circle cx="553.8" cy="443.2" r=".2" fill="#42312e" opacity=".3"/>
  <circle cx="551.5" cy="441.6" r=".2" fill="#42312e" opacity=".3"/>
  <circle cx="550.6" cy="445.3" r=".2" fill="#42312e" opacity=".3"/>
  <circle cx="551.7" cy="442.9" r=".2" fill="#42312e" opacity=".3"/>
  <circle cx="545.3" cy="443.7" r=".2" fill="#42312e" opacity=".3"/>
  <circle cx="573" cy="442.9" r=".2" fill="#42312e" opacity=".3"/>
  <circle cx="575.3" cy="442.5" r=".3" fill="#42312e" opacity=".3"/>
  <circle cx="577.2" cy="445.4" r=".3" fill="#42312e" opacity=".3"/>
  <circle cx="575.8" cy="444" r=".3" fill="#42312e" opacity=".3"/>
  <circle cx="576.4" cy="445.9" r=".3" fill="#42312e" opacity=".3"/>
  <circle cx="577.2" cy="444.4" r=".3" fill="#42312e" opacity=".3"/>
  <circle cx="575" cy="444.1" r=".3" fill="#42312e" opacity=".3"/>
  <circle cx="578.1" cy="444.1" r=".3" fill="#42312e" opacity=".3"/>
  <circle cx="552.4" cy="443.6" r=".3" fill="#42312e" opacity=".3"/>
  <circle cx="556.2" cy="440.9" r=".3" fill="#42312e" opacity=".3"/>
  <circle cx="561" cy="446.7" r=".3" fill="#42312e" opacity=".3"/>
  <circle cx="555" cy="440.9" r=".3" fill="#42312e" opacity=".3"/>
  <circle cx="553.3" cy="441.1" r=".3" fill="#42312e" opacity=".3"/>
  <circle cx="560.7" cy="442.6" r=".3" fill="#42312e" opacity=".3"/>
  <circle cx="546" cy="444.5" r=".3" fill="#42312e" opacity=".3"/>
  <circle cx="548.4" cy="447" r=".3" fill="#42312e" opacity=".3"/>
  <circle cx="557.6" cy="448.2" r=".3" fill="#42312e" opacity=".3"/>
  <circle cx="555.5" cy="447" r=".3" fill="#42312e" opacity=".3"/>
  <circle cx="561.9" cy="448.4" r=".3" fill="#42312e" opacity=".3"/>
  <path d="M592 491.3s-11 .5-5.8 4 20 1.5 20 1.5 8.1-2 2.9-4.5-13.2-.9-13.2-.9-9 1.7-2.1 3.1c0 0 8.4.8 8.8-.9s-4.8-.5-4.8-.5 2.7.6.9.9-4-.2-4-.7 2.7-1 3.5-1 5-.6 6.6 1.3a.7.7 0 01-.3 1c-1.4.7-5.3 1.9-11.4 1-8-1.3-1.1-4.3-1.1-4.3z" transform="translate(-37.4 -49.5)" opacity=".1"/>
  <path d="M337.9 388.8s23.8-5.1 33.4.7a78.5 78.5 0 0020.5 8.5s17.6 4.4 23.5 10.6 11.3 2.2 14 10.3 10.2 15.8 10.2 15.8l-3.7 54.6 3 31.6s1.4 13.2-2.3 16.1.8 7.7 4 10.3 11.8 12.5 10.7 16.2 8.8 7.7 8.8 7.7.4 6.2-4.4 7.7-10.6 23.4-10.6 23.4-64.2 61.7-85.5 56.2-37-25.4-37-25.4S308 569 304 558.7s-14.7-44-14.7-44-5.8-39-8.8-46.6-3-48 5.9-56.5 16.5-13.3 16.5-16.2 8.4-8.8 11.7-8.4 4.4 4 4.4 4z" transform="translate(-37.4 -49.5)" fill="#ff748e"/>
  <path d="M601.6 512c-10.2 18-49.1 14.4-49.1 14.4s-13.6-3-22 1.8-48 10-48 10-15-3.4-18.8-8.2c-3.2-4.1-33.6-22.2-41.4-26.8l-1.6-.9a2 2 0 01-.3-.1l.1-.1 32.6-41 5.3 5.7 26.2 28s25.7 1.1 33 5.5 30.5-1.5 30.5-1.5 11.4 0 12-2.5S612 494 601.7 512z" transform="translate(-37.4 -49.5)" fill="#ffccd0"/>
  <path d="M414.4 316.6a9.5 9.5 0 00-5 3.2c-2 2.6-1.7 6.2-2.5 9.4-1.2 5.1-5.2 9.8-4.5 15 .3 2 1.1 4 0 5.5-1 1.4-3 1.4-4.6.8h-.1c-4-1.7-6.3-6-9.2-9.2s-8.1-5.7-11.5-3c-2.8 2.4-2.3 6.8-2 10.5s-.8 8.3-4.4 9c-1.4.2-3-.3-4.4 0-4.6 1.1-4.2 9-8.6 10.4-1.6.5-3.3 0-4.9-.4a16 16 0 00-4-.4c-4.7.1-9.6 1.6-13.7.4 2.1-3 4.2-6.1 6-9a42.4 42.4 0 1173.4-42.2z" transform="translate(-37.4 -49.5)" opacity=".1"/>
  <path d="M352.7 366.7c1.6.4 3.3.9 4.8.4 4.5-1.5 4.1-9.3 8.6-10.4 1.5-.3 3 .2 4.5 0 3.6-.7 4.6-5.4 4.3-9s-.7-8 2.1-10.4c3.4-2.9 8.6-.4 11.5 2.9s5 7.5 9.1 9.2c1.6.6 3.8.6 4.8-.8s.3-3.5 0-5.4c-.8-5.3 3.3-10 4.5-15.1.7-3.2.5-6.8 2.4-9.4 4.1-5.5 14.6-2.7 18-8.7a9.4 9.4 0 004.6-.5c1.3-.7 2.4-2.4 1.8-3.8-.4-1.1-1.6-1.7-2.6-2.4a11.8 11.8 0 01-5-10c0-2 .6-3.9.4-5.7a8.3 8.3 0 00-8.3-7.6c-1.3 0-2.5.4-3.8.5-6 .2-10.9-6.5-16.7-5.2-1.2.3-2.4 1-3.7 1-2.9 0-4.7-3.4-7.5-4.3-2.2-.7-4.6.3-7 0s-4-1.6-6-2.6c-4.2-2.3-9.8-3.3-13.4-.3a12 12 0 01-2.6 2.1 7.5 7.5 0 01-3.8.3 35.3 35.3 0 00-11.4.7 4.3 4.3 0 00-2.6 1.4 7.3 7.3 0 00-.8 2.6c-1.1 4.3-6.4 5.8-10.9 6.2a6.1 6.1 0 00-3.3.9c-1.6 1.2-1.6 3.6-.8 5.5s1.9 3.6 2.1 5.6c.7 5-4.7 8.9-5.6 13.9-1.3 6.8 6.4 13.6 3.8 20.1-1.2 3-4.3 5.2-4.1 8.3s3.1 4.9 5 7.2 2.5 5.2 3.2 8c1.1 4.5 1.3 13.1 6.5 14.7 5.4 1.6 12-1.3 18 0z" transform="translate(-37.4 -49.5)" fill="#ffedba"/>
  <path d="M354.4 514.3c6.2 8 28.2 27.1 42.9 31.9s-43-32-43-32zM357.7 554.6c2.5 1.9 14.3 23.9 26.8 25.7s-26.8-25.7-26.8-25.7zM360.6 535.5c.7 1.1 29.7 26.5 40.4 28.7s1.4-8.8-11.8-14-28.6-14.7-28.6-14.7zM360.6 589.5s19.4 7 32.7 5.1-32.7-5.1-32.7-5.1zM383.4 631.7s19-14 28.6-14.7-28.6 14.7-28.6 14.7zM297.5 406.8s46.2 5.1 33.4 7.3-33.4-7.3-33.4-7.3zM297.1 430.6s22 0 30.1-3.6-30 3.6-30 3.6zM290.2 476.9c4-1.1 20.9-36.4 27.5-26.8s-27.5 26.8-27.5 26.8zM357 467.7s5.8 5.5 24.1 10.6-24.2-10.6-24.2-10.6zM465.5 592.8s10.3 5.5 2.6 17.2-2.6-17.2-2.6-17.2z" transform="translate(-37.4 -49.5)" opacity=".1"/>
  <path d="M358 639.7l-.1-1.5c.4-5.2.1 1.5.1 1.5z" transform="translate(-37.4 -49.5)" fill="#e4aab4"/>
  <path d="M365 670.2l-29.4-3-5.5-11L299.8 489l-.7-4 46.5.4.5 5.3 11.9 147.6-.2 3c-.8 10.3 7.3 29 7.3 29z" transform="translate(-37.4 -49.5)" fill="#e4aab4"/>
  <path d="M930.5 425l-.8.5c-3.2 2.1-7.4-5.5-11-4.4-3.2.9-5.8 10.6-9.2 10.6a35.8 35.8 0 01-15.3-3.4l-1.5-3-3.4-5.7s5.2-.9 11.8-1.8l9.6-1.3 5-.5c6.3-.6 11.4-.8 11.4.3s1 3.7 2.6 7l.8 1.6z" transform="translate(-37.4 -49.5)" opacity=".1"/>
  <path d="M945.4 393.6a36 36 0 11-36-36 36 36 0 0136 36z" transform="translate(-37.4 -49.5)" fill="#ffc1c7"/>
  <path d="M938.8 462.3l-10.7 1s1-9.6 5.7-12.6c3.1-2 9-5.1 12.5-7a14 14 0 003.8 1.3c-16.5 10.6-11.3 17.3-11.3 17.3z" transform="translate(-37.4 -49.5)" fill="#fff"/>
  <path d="M818.5 508.8l-2.6-.4s-11.2.7-22.2 2-26.6 4.6-15.2 17.8 21.8-2.4 21.8-2.4 10.6 13.2 18.9 8.8-.7-25.8-.7-25.8zM773.1 719.2s7 16.8 6.5 21.6 23.3-4.6 23.3-4.6-5.5-12.8-2.6-15.6-27.1-1.4-27.1-1.4z" transform="translate(-37.4 -49.5)" fill="#ffc1c7"/>
  <path fill="#ffc1c7" d="M702.7 715.1h19v24.2h-19z"/>
  <path d="M777.4 712.4a42 42 0 00-4.2 13.4 134 134 0 00-2 18.9c0 3.6 1.8 2.9 0 8.8a85 85 0 00-3.6 14l-.1.7a36 36 0 01-2.2 8.8s-27.9-1.9-33.8-6 2.2-8 2.2-8v-1c.6-11.2 6.3-119.3 8.8-130.8a14.6 14.6 0 013.6-6.6 38 38 0 0112.5-8.5 59.8 59.8 0 017.7-2.8l3.4 20.5c4.4 27.4 11 73.2 7.7 78.6z" transform="translate(-37.4 -49.5)" fill="#575988"/>
  <path d="M769.7 633.8c-2.1 4-4.3 6.4-5.9 4.5-2.7-3.3-11.5-9.5-17.7-13.6 6.8-7.7 20.3-11.4 20.3-11.4l3.3 20.5z" transform="translate(-37.4 -49.5)" fill="#ffc1c7"/>
  <path d="M933.8 604.2c-.3 4.1-.8 9-1.6 15a46 46 0 01-25 34.9s-67.5 0-79.3-3.3a17.9 17.9 0 00-16 3.5 25.7 25.7 0 00-4.5 4.2s-7.3-29.7-7.3-31.2 4-14.7 11.3-23.8 50.7-10.7 53.2-11c1.7-.3 17.5-7.1 28-11.7l9-4.1 17 5.4.7.2 13.6 4.3s1.8 4 .9 17.6z" transform="translate(-37.4 -49.5)" fill="#575988"/>
  <path d="M919.4 582.2c-3.3 1.4-8.4 3.4-14.4 5.6-13 4.7-29.7 9.8-39.6 9-17.6-1.5-37.8 2.6-37.8 2.6a66.3 66.3 0 00-17.6 11.4c-9.2 8-1.1 10.6 3 20.1 1.6 4 1.2 13.1.2 22.5l-1.2.9a25.7 25.7 0 00-4.6 4.2s-7.3-29.8-7.3-31.2 4-14.7 11.4-23.9 50.6-10.6 53.2-11c1.7-.2 17.4-7 27.9-11.7l9.1-4 17 5.4zM777.4 712.4a42 42 0 00-4.2 13.4 9.2 9.2 0 01-2-1.3c-3.4-2.9-3.1-8.3-2.7-11.7l.5-3c0-1.5 1.4-14.7-1.5-19.5s-3.7-23.5-3.7-23.5-4.6-26.8-5.1-50.7a59.8 59.8 0 017.7-2.8l3.4 20.5c4.3 27.4 10.9 73.2 7.6 78.6z" transform="translate(-37.4 -49.5)" opacity=".1"/>
  <path d="M922 580.7l-3.3 1.3c-3.2 1.4-8.5 3.5-14.8 5.8-13 4.7-29.8 9.8-39.6 9-17.6-1.5-37.8 2.6-37.8 2.6a66.3 66.3 0 00-17.6 11.3c-9.2 8.1-1 10.7 3 20.2 1.7 4 1.2 13.6.1 23.3-1.5 13.4-4.2 27-4.2 27s-1 3.6-.3 5.8.7 19.1.7 19.1a10 10 0 00-1.6 4.8 6.3 6.3 0 001.2 4c3 4 .8 14.7.8 14.7s-6.3 1.1-17-1.5-14.6.4-19.4-3.6c-3.3-2.9-3-8.3-2.6-11.8l.4-3c0-1.4 1.5-14.6-1.4-19.4s-3.7-23.5-3.7-23.5-11.7-67.2 0-83.5a9.6 9.6 0 01.7-.9c6.6-7.5 20.2-8.8 33-8a137.6 137.6 0 0127.2 4.4c7.3 2.2 9.5 1 13.2-.4 2.6-1 2.8-6.2 2.7-9v-.8-1.2l3.2-1.8 13.6-7.4z" transform="translate(-37.4 -49.5)" fill="#575988"/>
  <path d="M929.7 423.3a72.3 72.3 0 008.7 13.7 5.5 5.5 0 01-3.5 0c-1.2-.4-2.1-1.5-3.3-2-3-1.4-6.3.6-9.3-1.3-2.4-1.4-2.9-3.3-3-5.6v-1c0-3.2-.3-9.6-3.7-11.2a5.3 5.3 0 00-4.1.2 5 5 0 00-.8.4c-2.3 1.3-4 4.2-6.5 4a3.9 3.9 0 01-3.1-2.7 17.9 17.9 0 01-1.1-4.5c-.8-5.9-3-11.4-5.2-17-.4-1-1-2.2-2.2-2.3-1.8-.1-2.2 2.7-1.2 4.2s2.7 2.7 3 4.5c.4 3-4.1 4.8-6.6 3s-2.8-5.3-2.3-8.3 1.8-5.8 2-8.8-1.2-6.6-4.1-7.4c-2.6-.8-5.3.8-8 .8a36 36 0 1154.4 41.3z" transform="translate(-37.4 -49.5)" opacity=".1"/>
  <path d="M912.5 416.2c-2.7 1-4.4 4.6-7.3 4.3s-3.8-4.2-4.2-7.1c-.7-6-3-11.5-5.1-17-.5-1-1-2.2-2.2-2.3-1.8-.2-2.3 2.6-1.3 4.2s2.7 2.7 3 4.5c.4 3-4 4.7-6.5 3s-2.9-5.3-2.4-8.3 1.8-5.9 2-9-1.2-6.4-4-7.3-6 1.2-9 .7a5.6 5.6 0 01-4-7.6c1.4-2.5 4.7-4.5 3.8-7.2-1-3.3-6.7-1.9-9-4.6-1.7-2.1-.1-5.5 2.2-7s5-2.1 7.3-3.8c4-3.2 4.8-9.4 8.6-12.8 4.5-4 11.3-3.2 16.8-5.2 5.3-2 10.1-6.8 15.7-5.8 1.3.2 2.6.8 4 1 2.8.2 5.4-1.5 8-2.6a19 19 0 0115.7.8c-.5 3.5 3.2 6.7 6.8 6.6 2.6-.1 6.2-1 7 1.5.5 1 0 2.4.4 3.6.7 2 3.4 2 5.2 3.2 4.1 2.6 2.2 9.7 5.8 13 1.5 1.5 3.8 1.8 5.7 2.7 6.4 2.8 8.8 10.6 10.3 17.4a8.6 8.6 0 01.3 4c-.5 2-2.4 3.4-3.4 5.2-2.5 4.2.1 9.8-1.4 14.4s-6.8 7.2-7.5 12c-.3 1.6 0 3.2-.2 4.8-.7 4.4-5.3 6.9-9.5 8.2-1.2.3-2.5.7-3 1.9-.3.5-.3 1-.5 1.5-.5 1.3-1.8 2-3 2.5q-8.2 3.9-16.8 7c-1.6.7-3.3 1.3-4.9.6-1.2-.4-2-1.5-3.2-2-3-1.5-6.4.5-9.4-1.3-2.7-1.7-3-3.8-3-6.6.1-4.3-.4-14-7.8-11.1z" transform="translate(-37.4 -49.5)" fill="#b97482"/>
  <path d="M767.6 767.5l-.1.6a36 36 0 01-2.2 8.8s-28-1.8-33.8-5.8 2.2-8 2.2-8v-1c9.7 2.4 26.3 6 33.9 5.4z" transform="translate(-37.4 -49.5)" fill="#575988"/>
  <path d="M767.6 767.5l-.1.6a36 36 0 01-2.2 8.8s-28-1.8-33.8-5.8 2.2-8 2.2-8v-1c9.7 2.4 26.3 6 33.9 5.4z" transform="translate(-37.4 -49.5)" opacity=".1"/>
  <path d="M763.3 774.2s-32.3 2.2-33.6 1.6-1.3 17.1-1.3 17.1-7.2 14.3-8 17.8-8.2 12.1-8.2 12.1-10.2 7.5 4.8 10.5 31.6-1 31.6-1 11-19 11.9-18 0 10.1 0 10.1l6.4-1.6s-1.1-12 1.5-18.3-5.1-30.3-5.1-30.3z" transform="translate(-37.4 -49.5)" fill="#d3878a"/>
  <path d="M808.6 728.5s-6.3 1.1-17-1.5-14.6.4-19.4-3.6c-3.3-2.9-3-8.3-2.6-11.7 4.7-1 12-2.6 17.5-3.4s13.6.3 19.5 1.5a6.3 6.3 0 001.2 4c3 4 .8 14.7.8 14.7z" transform="translate(-37.4 -49.5)" opacity=".1"/>
  <path d="M808.6 729.6s-6.3 1.1-17-1.5-14.6.4-19.4-3.6c-3.3-2.9-3-8.3-2.6-11.7 4.7-1 12-2.5 17.5-3.4s13.6.3 19.5 1.5a6.3 6.3 0 001.2 4c3 4.1.8 14.7.8 14.7z" transform="translate(-37.4 -49.5)" fill="#575988"/>
  <path d="M808.6 729.6s-6.3 1.1-17-1.5-14.6.4-19.4-3.6c-3.3-2.9-3-8.3-2.6-11.7 4.7-1 12-2.5 17.5-3.4s13.6.3 19.5 1.5a6.3 6.3 0 001.2 4c3 4.1.8 14.7.8 14.7z" transform="translate(-37.4 -49.5)" opacity=".1"/>
  <path d="M824.3 781.7l-10.8 2.8-3.1-12.9s-2.7 5.2-7.5 12.3l-2 3c-5.6 7.8-24.1 6-30.5 1.3a6.7 6.7 0 01-1.5-1.3c-4.2-5.5 2.2-10.9 5.4-13.8s1.4-22.4 1.4-22.4-1.4-8.6-.3-12.6 28.8-5.5 28.8-5.5 5.6 14.8 8.8 19.4 7 10.3 6.2 14.3 5.1 15.4 5.1 15.4z" transform="translate(-37.4 -49.5)" fill="#d3878a"/>
  <path d="M810 591.1c-4.7 6-35.5 1.5-45-7.7a9.6 9.6 0 01.7-.9c6.5-7.5 20.1-8.9 32.9-8.1 5.8 4.2 15.2 12 11.4 16.7z" transform="translate(-37.4 -49.5)" fill="#ffc1c7"/>
  <path d="M780.3 595.5s-5.3-7.5-10-3.8-6.3-6.4-6.3-6.4 2.6-1.9 8 .9 11.8 7.5 11 8.4-2.7 1-2.7 1z" transform="translate(-37.4 -49.5)" opacity=".1"/>
  <path d="M780.3 594.4s-5.3-7.5-10-3.8-6.3-6.4-6.3-6.4 2.5-1.9 8 .9 11.8 7.5 11 8.4-2.7 1-2.7 1z" transform="translate(-37.4 -49.5)" fill="#575988"/>
  <path d="M879.7 595.5S907 608 900.8 613s-21-17.5-21-17.5zM770.2 681.4s17.3 2 21.1 4.6a19.5 19.5 0 0010 3.5c2.1 0-23.4-14.4-31-8.1zM791 671.3s-6.7 4.6.9 6.4-1-6.4-1-6.4zM754 732.4s9.8 12 13.3 8.8-13.2-8.8-13.2-8.8zM747.8 756.2c.8 0 3.2-.3 8 3s5-2.6 3.2-5-11.2 2-11.2 2zM736.8 486c1.7.5 11.3 3 13.2 8.7s-13.2-8.8-13.2-8.8zM346 490.6l-.8-.2s-28-6.3-45.5-1.5l-.7-4 46.6.4z" transform="translate(-37.4 -49.5)" opacity=".1"/>
  <path d="M321 478.3s70.4.4 95 48.8S446 668 446 668s4 13.2-1.8 13.6-8.4-12.1-8.4-12.1 2.2-9.2.4-13.2S412 540 412 540s-2.6-35.2-66.8-50.6c0 0-75.2-16.9-55.7 25.3 0 0 1 5.9-3 4.8s-8.8-12.1-5.5-26 40-15.2 40-15.2z" transform="translate(-37.4 -49.5)" fill="#e4aab4"/>
  <path d="M458.4 466.8l-.2.1c-5 4-23.5 35.5-36 36.3a4.5 4.5 0 01-.7 0l-.8-1a1 1 0 00-.2-.1l32.6-41z" transform="translate(-37.4 -49.5)" opacity=".1"/>
  <path d="M421.9 427.7l16.5 7s8 8 7.7 15.4 4 1.8 4 1.8 3 1.1 3 4 8 5.9 2.9 10-24.3 36.6-36.7 36.3a251.4 251.4 0 00-23.9-23.9c-12.8-11-24.5-67.5 26.5-50.6z" transform="translate(-37.4 -49.5)" opacity=".1"/>
  <path d="M423 427.7l16.5 7s8 8 7.7 15.4 4 1.8 4 1.8 3 1.1 3 4 8 5.9 2.9 10-24.2 36.6-36.7 36.3a251.4 251.4 0 00-23.8-23.9c-12.9-11-24.6-67.5 26.4-50.6z" transform="translate(-37.4 -49.5)" fill="#ff748e"/>
  <path d="M881.6 488.6L864.5 519l-11.8 6-.5-5.3s-7.7-18 12.1-31.5c17.4-12 8.2-21.6 5.7-23.8l.6-.4 4-.6zM995.5 475.2c-2.7 6-25.9 22.2-25.9 22.2a1 1 0 010 .1l-1-1.2 22-25.3 4 2.6zM933.8 604.2a56.1 56.1 0 01-9.7.3 144 144 0 00-20.2-16.7 140 140 0 00-11.3-7.1c-14.5-8-32.5-14.3-50.9-11.3l-1.2.3 1.2-1a35 35 0 003.1-3l13.6-7.4 63.5 22.4-3.2 1.4 14.2 4.5s1.8 4 .9 17.6z" transform="translate(-37.4 -49.5)" opacity=".1"/>
  <path d="M913.5 457.4s49.1 4.8 71.5 2.2c0 0 11 8.4 9.6 14s-26 22.7-26 22.7-1.9 43-11.8 53.2-18.7 36.7-14.3 45.5-17.3 7.3-17.3 7.3-41-42.9-83.6-34.8c0 0 15.4-12.5 14.3-21.7s-2.6-26-2.6-26-7.7-18 12.1-31.6 5.2-24.2 5.2-24.2-.8-3.3 7.7-4.4a86.8 86.8 0 0012-2.2s8.1-7.3 11.8-5.9 11.4 6 11.4 6z" transform="translate(-37.4 -49.5)" fill="#3bb8d7"/>
  <path d="M969.6 491s5.9 11.6-.5 17.6a77 77 0 00-7 8.3 250.3 250.3 0 00-29.5 51.5c-13.6 31.5-37 85.2-40.4 88-5 4-5.3 12.3-.4 12.5s8-6.6 8-6.6 4.9-14.1 8-19.8 35.6-80.1 35.6-80.1 12-32 25.7-39.3c0 0 11.7-19.4 9.7-28s-9.2-4.1-9.2-4.1z" transform="translate(-37.4 -49.5)" opacity=".1"/>
  <path d="M969.6 489.9s5.9 11.5-.5 17.6a77 77 0 00-7 8.3 250.3 250.3 0 00-29.5 51.4c-13.6 31.6-37 85.3-40.4 88.1-5 4-5.3 12.3-.4 12.5s8-6.6 8-6.6 4.9-14.1 8-19.8 35.6-80.2 35.6-80.2 12-31.9 25.7-39.2c0 0 11.7-19.5 9.7-28s-9.2-4.1-9.2-4.1z" transform="translate(-37.4 -49.5)" fill="#e4aab4"/>
  <path d="M1019.6 528.6a33 33 0 01-1.8 19.6s-15.5.7-31.1-21l-9.4-23s-10.4-17.8-16.7-16.9-11 32.1-25.8 29.2-7-40.4 12.6-44.2l7.6-2a18.3 18.3 0 0115.9 3.4c3.6 2.9 8.6 6.7 14.5 11 4.8 3.6 9.5 7 13.3 10a55 55 0 0120.9 33.9z" transform="translate(-37.4 -49.5)" fill="#ffc1c7"/>
  <path d="M857 527s7.5 9 19.6 11 19-2 29.2 2.1S857 527 857 527zM958.3 509.9s-22.8 19.5-22 24.7 22-24.7 22-24.7z" transform="translate(-37.4 -49.5)" opacity=".1"/>
  <g opacity=".1">
    <path d="M895.8 401.7a4.7 4.7 0 01-5.4.4c-2.2-1.6-2.8-4.5-2.6-7.2l-.6 2.5c-.5 3 0 6.5 2.4 8.3s7 0 6.5-3a4 4 0 00-.3-1zM889.2 389a20 20 0 00.7-4.1c.2-3-1.1-6.5-4-7.4s-6 1.2-9 .7a5.5 5.5 0 01-4.3-4.5 4.4 4.4 0 00-.3.6 5.6 5.6 0 003.8 7.6c3 .5 6.1-1.6 9-.7s4.3 4.3 4.1 7.4v.5zM875.9 366.8a3.7 3.7 0 00.9-3.4c-1.1-3.3-6.8-1.9-9-4.6a3.4 3.4 0 01-.7-1.2c-1 1.6-1.2 3.5 0 4.9 2 2.6 7.5 1.4 8.8 4.3zM965.6 419.9c-1.2.3-2.5.7-3 1.9-.3.5-.3 1-.5 1.5-.5 1.3-1.8 2-3 2.5-5.5 2.6-11 5-16.8 7-1.5.7-3.3 1.3-4.9.6-1.2-.4-2-1.5-3.2-2-3-1.4-6.3.5-9.3-1.3-2.7-1.7-3-3.8-3-6.6 0-4.2-.6-13.8-8-11-2.6 1-4.3 4.6-7.2 4.4s-3.8-4.2-4.2-7.2c-.8-5.9-3-11.4-5.2-17-.4-1-1-2.2-2.2-2.3-1.7-.1-2.2 2.2-1.5 3.8a1.4 1.4 0 01.8-.1c1.1 0 1.7 1.3 2.2 2.3 2.2 5.5 4.4 11 5.1 17 .4 3 1.2 6.9 4.2 7.1s4.6-3.3 7.3-4.3c7.3-2.8 8 6.8 8 11 0 2.8.2 4.9 3 6.6 3 1.8 6.2-.2 9.3 1.2 1.1.6 2 1.7 3.2 2.1 1.6.6 3.3 0 5-.5q8.5-3.2 16.7-7.1c1.2-.6 2.5-1.2 3-2.5.2-.5.2-1 .5-1.6.5-1 1.8-1.5 3-1.9 4.2-1.2 8.8-3.7 9.5-8a9.7 9.7 0 000-1.8c-1.5 3.2-5.3 5-8.8 6.2zM984.1 380.5a9 9 0 00-1 4.4 6.6 6.6 0 01.3-.7c1-1.8 3-3.1 3.4-5.1a5.8 5.8 0 00.1-2.2c-.8 1.2-2 2.3-2.8 3.6zM975.2 406.9a10.8 10.8 0 000 1.6c1.6-3.5 5.5-6.1 6.8-10a10.7 10.7 0 00.5-3c-1.7 4.1-6.6 6.9-7.3 11.4z" transform="translate(-37.4 -49.5)"/>
  </g>
  <path d="M814.8 762.3a109 109 0 00-11.7 9c-4.8 4.4-16.7 8-16.7 8zM756 808.7s-22.5 20.2-26.1 19.8 26.2-19.8 26.2-19.8zM802.9 784l-2 2.9c-5.6 7.8-24.1 6-30.5 1.3 5.7-1.9 23.2-7.3 32.5-4.3z" transform="translate(-37.4 -49.5)" opacity=".1"/>
  <g opacity=".1">
    <path d="M711.3 331.9a14.5 14.5 0 00.6-2.3 14.5 14.5 0 00-.6 2.3zM641.6 356.2a8.9 8.9 0 01.6-1.4c1.6-3.6-.5-6.2-2.8-8.6a13.2 13.2 0 01-4.2-8 21.8 21.8 0 01-.3-2.5 5.4 5.4 0 00-.5.7c-.8 1.8-.6 3.8-.3 5.7a13 13 0 004.2 8c1.8 1.8 3.4 3.7 3.3 6.1zM703.7 388.8c-1.8-.6-3.4 1.2-4.3 2.9s-2 3.6-3.8 3.8c-2.2.3-3.8-2.1-4.7-4.2s-1.9-4.3-1.9-6.5a7.3 7.3 0 010-.9 14.8 14.8 0 00-1.1 4.7c0 2.3.9 4.5 1.8 6.6s2.5 4.5 4.8 4.2c1.9-.2 2.9-2.2 3.8-3.9s2.5-3.4 4.3-2.9c.8.2 1.6 1 2.4.5a1.7 1.7 0 00.7-1.2 14.4 14.4 0 00.3-2.6c-.7.3-1.5-.3-2.3-.5zM715 370.4c-2.4 2-5.3 3.4-6.7 6a9.5 9.5 0 00-1 3.7c1.4-2.6 4.3-4 6.6-5.8a19.6 19.6 0 007-11.8 19.5 19.5 0 01-5.9 8zM690.2 380.1a21.8 21.8 0 001-3.4c.6-3.4-.5-7-1.6-10.3-.8-2.4-2.4-5.4-5-5a5.6 5.6 0 01-1.5.1c-1.4-.2-1.7-2-1.8-3.4a15.2 15.2 0 00-12.4-13 4 4 0 00-2.2.2c-1 .4-1.5 1.4-2.4 2-2.8 2-6.3-1.7-9.7-1.4-2.9.2-4.7 3.2-5.8 5.8s-2.7 5.6-5.5 6.3a1.7 1.7 0 01-1.4-.2 1 1 0 01-.4-.8 6 6 0 01-.5 1.7c-.5 1-1 2.3-.2 3a1.7 1.7 0 001.4.1c2.8-.6 4.3-3.6 5.5-6.3s3-5.6 5.8-5.8c3.4-.3 7 3.4 9.7 1.5.9-.6 1.4-1.6 2.4-2a3.9 3.9 0 012.1-.2 15.2 15.2 0 0112.6 13c.1 1.4.4 3.1 1.8 3.4a5.6 5.6 0 001.5-.2c2.5-.3 4.1 2.6 5 5a22 22 0 011.6 10z" transform="translate(-37.4 -49.5)"/>
  </g>
  <path d="M708.4 495.6s-14 4.2-20.3 4.2l-31.1-.1s-64.7-21.6-45.3 8 50.1 13 50.1 13l5.5 1.3c3 .7 61.5.1 63.4-2.2s-22.3-24.2-22.3-24.2z" transform="translate(-37.4 -49.5)" fill="#cf6f80"/>
  <path d="M748.6 521.5c-8.8.8-26 1-26 1s-13-25.6-24-24.8c0 0 10.2-11.5 14.3-10.1.7.2 1.1-.3 1.3-1.3 10.8 3.3 31.3 11.3 33.4 25.5.5 3.8.8 7 1 9.7z" transform="translate(-37.4 -49.5)" opacity=".1"/>
  <path d="M749.7 521.5c-8.8.8-26 1-26 1s-13-25.6-24-24.8c0 0 10.2-11.5 14.3-10.1.7.2 1.1-.3 1.3-1.3 10.8 3.3 31.4 11.3 33.4 25.5.5 3.8.8 7 1 9.7z" transform="translate(-37.4 -49.5)" fill="#575a89"/>
  <path d="M749.7 521.5c-8.8.8-26 1-26 1s-13-25.6-24-24.8c0 0 10.2-11.5 14.3-10.1.7.2 1.1-.3 1.3-1.3 10.8 3.3 31.4 11.3 33.4 25.5.5 3.8.8 7 1 9.7zM672.5 595.2s24.7-6 28.6-2.8-28.6 2.8-28.6 2.8zM601.5 618.8s10.4 6 11.5 11-11.5-11-11.5-11z" transform="translate(-37.4 -49.5)" opacity=".1"/>
  <g opacity=".1">
    <path d="M425.5 290.4a11.4 11.4 0 00.6 4v-1.2c.1-2 .7-3.8.5-5.7a7.7 7.7 0 00-.5-2.3c0 1.8-.5 3.5-.6 5.2zM324 288.8c.4 1.3 1.1 2.5 1.6 3.8a5.6 5.6 0 000-1c-.3-1.8-1.4-3.5-2.1-5.3a7.2 7.2 0 00.4 2.5zM433.8 305.6a2.7 2.7 0 00-.6-.9 3.7 3.7 0 01-1.8 2 9.5 9.5 0 01-4.5.6c-3.5 5.9-14 3.1-18 8.6-2 2.7-1.7 6.2-2.5 9.4-1.2 5.2-5.2 9.9-4.5 15.1.3 1.9 1.1 4 0 5.4s-3.1 1.4-4.7.8c-4-1.7-6.3-6-9.2-9.2s-8.1-5.8-11.5-3c-2.8 2.4-2.3 6.8-2 10.5s-.7 8.4-4.3 9c-1.5.2-3-.3-4.5 0-4.5 1-4.1 9-8.6 10.4-1.5.5-3.2 0-4.8-.4-5.8-1.4-12.5 1.6-17.9 0-3-1-4.3-4.2-5.1-7.6.7 4.3 1.8 9.1 5.7 10.3 5.4 1.6 12-1.3 17.9 0 1.5.4 3.2 1 4.8.4 4.4-1.4 4-9.3 8.6-10.3 1.4-.4 3 .2 4.4 0 3.6-.7 4.7-5.4 4.4-9s-.8-8 2-10.5c3.4-2.8 8.6-.3 11.5 3s5.1 7.5 9.2 9.1c1.6.7 3.7.7 4.7-.7s.3-3.6 0-5.4c-.7-5.3 3.3-10 4.5-15.2.8-3.1.5-6.7 2.5-9.3 4-5.5 14.5-2.8 18-8.7a9.4 9.4 0 004.5-.6c1.3-.7 2.3-2.3 1.8-3.8zM327.8 349c-.7-2.7-1.4-5.6-3.2-7.8-1.4-1.8-3.4-3.3-4.4-5.3a5.3 5.3 0 000 .7c.1 3 3.1 5 5 7.3s2.5 5.1 3.2 7.9l-.6-2.7zM324.2 322c-.3-3.6-2.7-7.4-3.9-11.3.4 3.9 2.8 7.6 3.9 11.4z" transform="translate(-37.4 -49.5)"/>
  </g>
  <path d="M516.7 664.8s30.8-1 23.4 2.4-28 3-28 3zM643.3 730.4s14.3-2.2 18 .1-18-.1-18-.1z" transform="translate(-37.4 -49.5)" opacity=".1"/>
  <ellipse cx="1031.8" cy="694.5" rx="40.9" ry="5.6" fill="#3bb8d7" opacity=".1"/>
  <path d="M1072 686.4s5.4 7.2-2.6 18-14.6 20-12 26.7c0 0 12.1-20 22-20.4s3.3-12.2-7.5-24.3z" transform="translate(-37.4 -49.5)" fill="#3bb8d7"/>
  <path d="M1072 686.4a8.7 8.7 0 011 2.3c9.6 11.2 14.7 21.7 5.5 22-8.6.3-18.9 15.6-21.3 19.5a9 9 0 00.3.9s12-20.1 21.9-20.4 3.3-12.2-7.5-24.3z" transform="translate(-37.4 -49.5)" opacity=".1"/>
  <path d="M1082.1 695.5c0 2.6-.3 4.6-.6 4.6s-.7-2-.7-4.6.4-1.3.7-1.3.6-1.2.6 1.3z" transform="translate(-37.4 -49.5)" fill="#ffd037"/>
  <path d="M1085.6 698.6c-2.2 1.2-4.1 1.9-4.3 1.6s1.5-1.5 3.7-2.8 1.3-.3 1.5 0 1.3 0-1 1.2z" transform="translate(-37.4 -49.5)" fill="#ffd037"/>
  <path d="M1043 686.4s-5.5 7.2 2.5 18 14.6 20 12 26.7c0 0-12.1-20-22-20.4s-3.3-12.2 7.5-24.3z" transform="translate(-37.4 -49.5)" fill="#3bb8d7"/>
  <path d="M1043 686.4a9 9 0 00-1.1 2.3c-9.6 11.2-14.7 21.7-5.5 22 8.6.3 18.9 15.6 21.4 19.5a7 7 0 01-.3.9s-12.1-20.1-22-20.4-3.3-12.2 7.5-24.3z" transform="translate(-37.4 -49.5)" opacity=".1"/>
  <path d="M1032.8 695.5c0 2.6.3 4.6.6 4.6s.7-2 .7-4.6-.4-1.3-.7-1.3-.6-1.2-.6 1.3z" transform="translate(-37.4 -49.5)" fill="#ffd037"/>
  <path d="M1029.3 698.6c2.2 1.2 4.2 1.9 4.3 1.6s-1.5-1.5-3.7-2.8-1.3-.3-1.5 0-1.3 0 1 1.2z" transform="translate(-37.4 -49.5)" fill="#ffd037"/>
  <path d="M1034.6 730.1s15.3-.4 19.9-3.7 23.5-7.2 24.7-2 23 26.2 5.7 26.4-40.2-2.7-44.8-5.5-5.5-15.2-5.5-15.2z" transform="translate(-37.4 -49.5)" fill="#a8a8a8"/>
  <path d="M1085.2 749c-17.3.1-40.2-2.7-44.8-5.5-3.5-2.1-4.9-9.8-5.3-13.3h-.5s1 12.3 5.5 15.1 27.5 5.6 44.8 5.5c5 0 6.7-1.8 6.6-4.4-.7 1.5-2.6 2.5-6.3 2.6z" transform="translate(-37.4 -49.5)" opacity=".2"/>
  <path d="M735.8 525.4c0 2.8-8.8 6.1-19.7 6.1s-19.7-3.3-19.7-6.1 8.8-4 19.7-4 19.7 1.2 19.7 4z" transform="translate(-37.4 -49.5)" fill="#e8eaf2"/>
  <path d="M735.8 525.4c0 2.8-8.8 6.1-19.7 6.1s-19.7-3.3-19.7-6.1 8.8-4 19.7-4 19.7 1.2 19.7 4z" transform="translate(-37.4 -49.5)" opacity=".1"/>
  <ellipse cx="678.7" cy="475.9" rx="19.7" ry="5.1" fill="#e8eaf2"/>
  <ellipse cx="678.7" cy="475.9" rx="11.2" ry="2.9" opacity=".1"/>
  <path d="M732.3 519.3a8.7 8.7 0 01-7.1 4.5 11.1 11.1 0 01-3.5-.2l1.4-2a6.8 6.8 0 002.6 0 5.1 5.1 0 003.5-2.6c1.4-2.6-.4-3-1.7-3a6.9 6.9 0 00-.7 0l1-1.5 1.1-.1c2.1-.1 6.1.1 3.4 4.9zM723.6 526.2a24.8 24.8 0 01-15.3 0l.2-.7v-.6l14.9-.2v1z" transform="translate(-37.4 -49.5)" fill="#f1cec8"/>
  <path d="M725.7 521.5a12.2 12.2 0 01-.6 2.3 11.1 11.1 0 01-3.4-.2l1.4-2a6.8 6.8 0 002.6 0zM729 514.4a2.2 2.2 0 01-.5.6l-.1.1a8.7 8.7 0 00-.9 1 6.9 6.9 0 00-.7 0l1-1.6h1.1zM723.5 525.6c-2.6 1-12.5 1.3-15-.1v-.6l15-.2z" transform="translate(-37.4 -49.5)" opacity=".1"/>
  <path d="M728.2 515v.1a8.3 8.3 0 00-2.6 5c-.5 4.3-1.4 4.8-1.5 5-.8 1.3-14 1.8-16 0-1.6-1.6-3.2-4.9-2.5-6.7.4-1-.4-2.1-1.3-3-1-1-.7-2.5.9-3.2 3.7-1.6 10.4-1.7 10.4-1.7a29 29 0 0111.5 1.3h.3a2.4 2.4 0 011.3 1.4 1.7 1.7 0 01-.5 1.8z" transform="translate(-37.4 -49.5)" fill="#f1cec8"/>
  <ellipse cx="678.5" cy="465" rx="10.1" ry="1.6" opacity=".1"/>
  <ellipse cx="678.5" cy="465.2" rx="10.1" ry="1.6" fill="#42312e"/>
  <path d="M718 513.7s-7.2.2-7 2a23.3 23.3 0 017-2zM720 514.2s-4.2 0-3.5 1.5c0 0 1-.1.8-.5s2.8-.8 2.8-.8z" transform="translate(-37.4 -49.5)" fill="#fff" opacity=".2"/>
  <path d="M704.7 513.7s-.3 3 11 2.9 11.2-2.2 11.3-2.9h-.6s-.1 2.5-10.5 2.4-10.7-2.4-10.7-2.4z" transform="translate(-37.4 -49.5)" fill="#f6e2df"/>
  <path d="M728.7 513.2l-6.8 2.5a.9.9 0 01-.8 0l-.1-.2c-.3-.3-.2-.6.2-.8l6.2-2.7a2.4 2.4 0 011.3 1.2z" transform="translate(-37.4 -49.5)" opacity=".1"/>
  <path d="M721.2 514.5l17.6-7.6a3.5 3.5 0 011.4-.3c.8 0 2.1 0 1.7 1a2.1 2.1 0 01-1.3 1.1l-18.7 6.9a.8.8 0 01-.8-.1l-.1-.1c-.3-.3-.2-.7.2-.9z" transform="translate(-37.4 -49.5)" fill="#e8eaf2"/>
  <path d="M721.2 514.5l17.6-7.6a3.5 3.5 0 011.4-.3c.8 0 2.1 0 1.7 1a2.1 2.1 0 01-1.3 1.1l-18.7 6.9a.8.8 0 01-.8-.1l-.1-.1c-.3-.3-.2-.7.2-.9z" transform="translate(-37.4 -49.5)" opacity=".1"/>
  <path d="M721.2 514.4l17.6-7.6a3.8 3.8 0 011.4-.3c.8 0 2.1 0 1.7 1a2.2 2.2 0 01-1.3 1.2l-18.7 6.8a.8.8 0 01-.8-.1l-.1-.1c-.3-.3-.2-.7.2-.9z" transform="translate(-37.4 -49.5)" fill="#e8eaf2"/>
  <path d="M720.2 514.6s1.9-.2 1.6.1.9.8.9.8a8 8 0 01-2.3.1c-.3-.2-.2-1-.2-1z" transform="translate(-37.4 -49.5)" opacity=".1"/>
  <path d="M720 514.7s2-.3 1.7 0 .8.8.8.8a8.1 8.1 0 01-2.2.2c-.3-.2-.2-1-.2-1z" transform="translate(-37.4 -49.5)" fill="#42312e"/>
  <path d="M717.1 501.3a4.6 4.6 0 00-1.7 2.1 5 5 0 00.1 2.3 9.3 9.3 0 00.4 1.5c.1.3.4.6.6.4l-.2-2.1a3.9 3.9 0 011-2 10.1 10.1 0 001.2-1.9c.2-.3.7-3 0-2.6-.2.2-.4 1-.5 1.3a4.9 4.9 0 01-.9 1zM717.4 505.8c0 .3.4.5.5.7a1.2 1.2 0 01.1.5 2.5 2.5 0 01-.5 2.2 1.8 1.8 0 001.3-1.1 3.2 3.2 0 00.2-.8 6.6 6.6 0 000-.8c0-.4.2-1.4-.5-1.6a.8.8 0 00-1 .9z" transform="translate(-37.4 -49.5)" fill="#f2dcdc"/>
  <path d="M705.7 517.8s.8.9 3.2 1a8.9 8.9 0 01-3.4-.3z" transform="translate(-37.4 -49.5)" opacity=".1"/>
  <path fill="#e4aab4" d="M438.9 614h37l-12.2 19.3-23.8 12-1-31.2z"/>
</svg>
