<svg id="e37c00f5-ff96-45aa-87ea-1a24b78ba7bd" data-name="Layer 1" xmlns="http://www.w3.org/2000/svg" width="1176.6" height="874" aria-hidden="true">
  <path d="M1095.7 225.5C962 39.6 680-35.7 402.6 45.5 255.9 88.3 114.5 174.3 44.4 340.8c-125.3 297.7 137.8 392.7 309.8 423a930.2 930.2 0 01233 72.8C716 897 944 950.4 1116 699.3c124.6-182 68.7-350-20.2-473.8z" transform="translate(-11.7 -13)" fill="#f2f2f2"/>
  <path d="M321.4 262.2a34.4 34.4 0 00-2.2-8.6 3.9 3.9 0 00-2-2.4 4 4 0 00-2 0l-10 1.5a3.9 3.9 0 00-2.4.9c-1.3 1.4 0 3.6 0 5.5 0 2.2-2 3.9-4 4.5a15.2 15.2 0 01-6.4-.1l-14.1-2.2a23.3 23.3 0 0010.7-7.1c1.8-2.2 2.8-6.3.1-7.4a6.6 6.6 0 00-2.4-.2c-6.4 0-11.4-5.2-17.4-7.5a19.2 19.2 0 00-21.7 6.5l7.5.3a3.3 3.3 0 012 .6c1.7 1.3-.4 4-.1 6 .3 2.8 4 3.4 6.7 3.6s6.2 2.6 4.9 5c-13.9 4.8-28-9.3-42.5-7.6-3.7.4-7.1 1.9-10.7 2.8-22 5.6-44.7-9.3-67.1-6.1a85.2 85.2 0 00-14.6 3.8c-3 1-6.3 2.1-8.5 4.4s-3 6.3-1 8.8a49.1 49.1 0 01-17.2-1.7 9.6 9.6 0 015 8.5 102.1 102.1 0 00-26.2 8 44 44 0 005.4 7.2l-11.4 7.4c3.9 1 5.9 6.2 3.6 9.5 4-1.8 6.5-6.4 10.8-7.3 2.8-.6 5.7.5 8.3 1.6s5.6 2.1 8.4 1.3 4.8-4.4 3-6.6a142.7 142.7 0 0136.3-5.7 4.5 4.5 0 012.7.5c1.6 1.1 1.2 3.5 1.1 5.5s1.4 4.5 3.2 3.6c-2 1.8-.3 5 1.6 7s4.4 4.4 3.2 6.8c-.4.6-.9 1.1-1.2 1.8-.9 1.9.5 4 2.2 5.3s3.7 2.1 4.9 3.9.6 4.7-1.5 5l-5.9-7.5a15.3 15.3 0 00-4 7.5 15.8 15.8 0 012 21.7c-2.6 3-6.4 5-9.8 7.4s-6.3 6-6.3 10c0 7.2-.6 13.8 2 20.4a313 313 0 0017 35.5c1.7 3 4 6.3 7.3 6.8q-6.4-15.7-11.6-32c2.2 0 4.8.2 6.2 2 1 1.6.8 3.6 1.1 5.4a16.7 16.7 0 002.2 5l20.5 36.6c1.7 3 3.7 6.3 7 7.6 2 .7 4.4.6 6.3 1.7 1.5 1 2.6 2.5 4 3.3 4.4 2.4 10.4-2.1 14.5.7 1.1.8 1.9 2 3 3 3.7 3.2 9.8 1 14.1 3.5 2.8 1.5 4.2 4.6 5.7 7.5 3.7 7 9.7 14 17.7 14.5 2.5.2 5-.3 7.5.3s4.9 2.6 4.5 5.1c-.7 4.3 1.4 9 .8 13.2-1 7.7-12 11.1-13 19-.2 1.6.2 3.4-.2 5-.5 2-2 3.7-2.6 5.8-1 3.8 1.7 7.6 4.7 10.2s6.7 4.8 8.3 8.5c1.8 3.8 1 8.2 1.5 12.4 1.2 9.1 9 15.9 17.2 20.2 2.4 1.3 5 2.6 6.7 5 2 3 1.8 6.9 2.5 10.5 1.7 8.7 9.1 16 9.3 25 .2 6.3-3.3 12-5.4 18a42.3 42.3 0 003.4 35c1.6 2.8 3.5 5.3 4.6 8.2 2 5.1 1.3 11 3.2 16.2 2.4 6.9 9 12.6 8.4 19.9 3 6.3 9.8 9.3 16.5 11.2l12 3.4c2.4.6 4.8 1.3 7.1.8s4.6-2.4 4.6-4.8c-6-1.3-12-2.8-17-6.4s-8.1-10-6.3-15.8c.9-2.6 2.7-5.7 1-8-1-1.2-2.9-1.5-4-2.7-1.7-1.8-1.1-4.8.1-7s3.1-4.1 3.6-6.6a6.9 6.9 0 00-3.2-7.1 17 17 0 006-3.8c1.5-1.8 2.3-4.6 1-6.6 3.7.4 8 .7 10.4-2.2 2-2.2 1.8-5.5 1-8.4s-2-5.6-2-8.6a156.3 156.3 0 0025.3-.8 16.4 16.4 0 00-7.7-9.7c3.8-.6 7.3-5.2 8.5-8.9s.9-7.6.2-11.4a6.2 6.2 0 01-.2-3c.5-1.4 1.8-2.2 3-3l19-10.8a11 11 0 003-2.2c2-2.4 1.7-5.9.7-8.8s-2.7-5.6-3-8.6c-1.2-9 8.5-15.6 11.8-24.1 1.2-3.4 1.5-7 1.8-10.6.2-3.8.2-8.3-2.7-10.8-2.8-2.3-7.3-1.8-10.2-4-2.7-2-3.7-6-6.6-7.6-2.7-1.5-6.1-.6-9.1-1.3-5.3-1.2-8.6-7.3-14-7.8-3-.3-6.5 1.1-9-.6-2.1-1.6-2.2-4.7-2.7-7.4a20.5 20.5 0 00-16.5-16.6c-3.2-.5-6.6-.3-9.2-2-2.7-1.8-4-5-6-7.5-3.5-3.9-8.9-5.2-14-6.4l-20.4-4.8c-3.7-.9-8.4-1.4-10.3 1.8a14.7 14.7 0 00-1.2 3.9 11.9 11.9 0 01-11.2 8.4 13.2 13.2 0 00-7.8-6c-2-.6-4.3-.7-6.2-1.6A8.8 8.8 0 01253 470a11 11 0 00-1.9-13.2c-3.4-3.2-8.5-4-13.2-3.6-1.2-2.7.9-5.7 3-7.6s5-3.9 5.4-6.8c.8-4.5-5-8-9.5-6.7s-7.2 5.7-9 10c-1.1 2.4-2 5-3.7 7s-4.4 3.5-7 2.8c-3.6-1-5-5.2-5.8-9-1.1-4.8-2.2-9.8-2-14.9s2-10.2 5.6-13.6c6.1-5.5 15.4-5 23.5-4-1.9-2.3-1.4-6 .7-8a9 9 0 018-2 11.2 11.2 0 016.4 3.8c2.3 2.8 3 6.6 4.7 9.9s5.7 6 9 4.2c2.7-1.5 3.1-5.4 2.5-8.4s-2.2-6.1-2-9.3c.5-6 6.7-9.6 12.2-12s11.8-5.9 12.7-11.9a10.7 10.7 0 01.7-3.4 6.7 6.7 0 012.4-2.3c16-10.6 32.4-21.3 50.7-27.1 1-.3 1 0 2-.2 1.4-.8.5-3-.8-3.9s-3-1.5-3.4-3c-.2-1.2.4-2.3.6-3.4.4-2.8-3-5.4-5.5-4.3-1.5-2 1.4-4.2 3.8-4.9a103.2 103.2 0 0121.6-3.5 3.9 3.9 0 012.5.4c1.2.9 1 2.8.2 4s-2.2 2-3.3 3a9 9 0 00-2.3 9.2c3.8 1.9 8 4 12.2 3.2s8-5.4 6-9.2c-1.9-3.6-7.4-4.4-8.4-8.2-1.1-4.6 5.3-8.6 3.9-13-.7-2-2.6-3.2-4.1-4.6a12.2 12.2 0 01-2.7-13.5 15.4 15.4 0 01-13.5-4.3c-3.2-3.2-5.8-8.4-10.4-8.2-4.2.1-7.9 5-11.8 3.5-1-.4-2-1.1-3-.7a2.4 2.4 0 00-1 1.8c-1 4.8.7 10.3-2 14.4-2.8 4.5-9.3 5.2-12.8 9.2-1.8 2.2-2.6 5.2-4.3 7.5s-5.3 3.8-7.4 1.8a10.2 10.2 0 00-2.8-12.5 27.3 27.3 0 00-6.1-3 36.4 36.4 0 01-6.9-3.8 6.8 6.8 0 01-2.5-2.7 6.1 6.1 0 01.2-4.2 17.4 17.4 0 0113.8-11.5c2.8-.4 6-.3 7.8-2.3 1-1.2 1.5-2.8 2.9-3.3a4.2 4.2 0 012.6.3l10.2 3.7a7.2 7.2 0 003.7.6 2.5 2.5 0 002.1-2.6c-.3-1.7-3-2.6-2.7-4.3a2.8 2.8 0 01.9-1.4 36.6 36.6 0 0129-11.5c1.3 2.1-.7 4.6-2.4 6.5s-3 5-1 6.4a5.6 5.6 0 002.7.6 23.8 23.8 0 017.3 2.2q5.3 2.3 10.4 5c-.3-2.2-.6-4.5.2-6.6s3.3-3.8 5.4-3c2 .8 3.1 3.5 5.3 3.8 2.9.3 4-4 2.8-6.6s-3.6-4.9-3.8-7.8c-.1-2 .6-4.4-1-5.6a4.3 4.3 0 00-1.8-.6l-39-7.2c-2.4-.4-5.8-.1-5.9 2.3 0 1.3 1.1 2.6.6 3.8-.5 1.3-2.4 1.2-3.7 1.6-2 .7-3 3.2-2.9 5.3a14.8 14.8 0 002.5 6c-2.6-1-6.4-1.2-9-2.3zM290.2 229a12.7 12.7 0 00-13.9 4.2c-.6.9-1.1 2-.6 3 .8 1.3 2.7.7 4.2.3a10.5 10.5 0 016.6-.2c1.4.5 2.6 1.3 4 1.8a4 4 0 004-.6c1-1 1-2.5 1-3.8a3 3 0 00-.8-2.5 4 4 0 00-1.8-.6 6.2 6.2 0 01-3.6-2M304.3 225.1a3.2 3.2 0 00-3 4.6 13 13 0 005.1.3 4.4 4.4 0 003.7-3.3 8.4 8.4 0 01-6-1.2M351.6 218.6a59.9 59.9 0 00-13.3 4.5 10 10 0 016.4 10 5.2 5.2 0 000 2.6c.5 1.2 2 1.6 3.2 1.9a20.8 20.8 0 007 .9 7 7 0 005.7-3.5 25 25 0 011.2-2.8c3-4.6 11.8 1 15-3.5 1.2-1.5 1-3.9 2.5-5.1a5.6 5.6 0 012.6-1 180.7 180.7 0 0119.6-2.8c3-.2 7.1-1.4 7.2-4.5A54.1 54.1 0 00374 220c-3.8 1.9-9 6-12.6 3.4-1.4-1-1.4-3.5-3.3-4.6-2-1.1-4.5-.7-6.6-.2z" transform="translate(-11.7 -13)" fill="#3f3d56"/>
  <path d="M390 225.7l5.4 1a7.1 7.1 0 00-7.4 7.8c5.2 1.7 10.8 0 16.2.3s11.7 4 10.8 9.4c-.3 1.7-1.2 3.3-.7 4.8.3 1.1 1.3 2 1.8 3 1.2 2 .3 4.7-1.2 6.6s-3.4 3.5-4.6 5.5c-3.2 5-1.4 11.6.5 17.3a15.2 15.2 0 003 5.8c2.7 3 7.2 3.2 11.3 3.3 2.9 0 6.3-.1 8.1-2.4 2.5-3 .8-7.6 2.4-11.1 1.4-3.2 5.1-4.6 8.5-5.5 6.1-1.8 12.4-3.3 18.2-6 7.2-3.3 14-8.5 22-8.9 2.1-.1 4.4.2 6.6-.5s4.1-2.4 4-4.6c-.2-2-1.8-3.3-3-4.8s-2.3-3.6-1.1-5.1l20.8-3.9c-1.5-4-2.6-9.3.8-12 1.2-.9 2.8-1.2 3.9-2.4 1.7-2 .8-5.3-1.2-7s-4.8-2-7.4-2.2c-9.2-.7-18.3-.2-27.5.3l-53.6 2.9c-3.5.2-7.7-.1-11 1.1-2.8 1-4.8 3-8 3.6-5.9 1.3-12.3.4-17.7 3.7zM488.4 269.2a2.2 2.2 0 00-1.6.4 2 2 0 00-.5 1.2 8.1 8.1 0 001.2 5.8 5.7 5.7 0 005.2 2.5c2.5-.3 4.3-2.4 6.6-3.4 3.5-1.6 18.4-4 8-9.7-3.5-1.9-5.8-.2-8.6 1a19.7 19.7 0 01-10.3 2.2zM578.7 222.6a5.9 5.9 0 00-3 2.5 2.5 2.5 0 001 3.3 3.8 3.8 0 001.4.2l5 .2c2 0 4.6.5 5.2 2.5.4 1.5-.6 3.4.6 4.5a3.2 3.2 0 001.6.6 11.3 11.3 0 005 .2c3.5-1 1.7-3.2 2.8-5.1 1.7-3 1.4-1.2 4.4-2.9 2.2-1.2 5.1-3.5 3.3-6.7-3.3-5.5-22.6-1.7-27.3.7zM675.2 219.8l-2.8.4c-6.4.8-12.9 1.7-19 3.6a31.7 31.7 0 008.3 2 25.6 25.6 0 014.6.7c2.8.8 5.5 3 8.2 1.9 1.6-.7 2.1-2.4 3.5-3.3.9-.6 4.4-1.6 4.8-2.3 3.2-5-5.1-3.3-7.6-3zM687.7 232.7a53.3 53.3 0 00-10.5 7.7c-1.3 1.2-2.7 2.8-2.6 4.6.2 2.5 2.8 3.9 5 4.8l9.1 3.9c1.1-1.6 0-3.7-1-5.3s-2.5-3.2-2-5c.5-2.2 3-2.9 5.2-3.3 3.5-.5 13-.5 11.8-6.1-1.3-6.7-11.5-3.2-15-1.3zM685.9 607.8c-.9 2.5-1 5.5.5 7.7 1.7 2.4 5 3.3 8 2.7a14.3 14.3 0 007.3-4.7 25.4 25.4 0 004.3-6.5 50.8 50.8 0 003.1-11.5l2.8-14.8c.7-3.3.6-13.5-5.4-10.2-1.7 1-5.6 8-7.3 10-3.1 3.7-3.5 7.3-5.2 11.7-2 5.5-6.2 10.1-8.1 15.6zM1007 683.6a44.3 44.3 0 01-5.7-2.8 48.7 48.7 0 00-3 16l13.7-7.7c2-1.2 4.3-2.8 4.3-5.1a1.6 1.6 0 00-.8-1.5 1.8 1.8 0 00-1-.1c-2 .2-3.8 1.2-5.7 1.9s-4.1 1-5.9 0M1078.9 688.2a29.5 29.5 0 00-4.4 1.5c-3.1 1.6-5.2 4.6-8 6.7a32 32 0 01-9.2 4.2c-.9.8-.5 2.5.5 3.2a6.3 6.3 0 003.6.8c3.3.1 6.8.1 9.7-1.4a30.5 30.5 0 004.6-3.7c3.4-2.8 7.4-4.6 11.4-6.4a13.2 13.2 0 004-2.4c2.6-2.5 2.7-6.4-.9-7.2-3-.7-8.5 3.8-11.3 4.7zM1110.6 667.4a11.4 11.4 0 00-3.5-9.3c0 3.5-.1 7.1-2 10-1.4 2-3.6 3.3-5 5.3s-2.2 5-.5 6.6a6.6 6.6 0 004 1.4c3.5.4 7.5.6 10-2 1.3-1.3 2-3.4 3.6-4.4a4.4 4.4 0 001.6-1.1c.7-1.1-.4-2.5-1.6-3s-2.5-.1-3.8-.5-2.3-1.7-1.7-2.8M1054.2 541.8a15.8 15.8 0 01-5.6.3c-3.2-.6-5.6-3-8.1-4.9a35.7 35.7 0 00-20.9-7.2c-6.8-.2-13.8 1.7-20.5.4.4 2.4 2.5 4.3 4.8 5.4s4.7 1.6 7 2.7a16.6 16.6 0 018 8.3c.7 1.7 1.1 3.6 2.2 5 2.3 3 6.5 3.7 10.3 3.5 4.9-.4 10-1.8 14.5 0 3.5 1.5 6 4.5 8.9 6.9s7 4 10.3 2.4a17 17 0 01-11.8-16.4c3.3.3 12.7.1 12.2-5.4-.5-4.7-8.5-1.5-11.3-1zM1011.4 580c.6-3.1 3.8-6 2.8-9-.7-2.1-3.2-3.2-5.4-3.2s-4.4.6-6.7.6a32.5 32.5 0 00-4.4.1c-4.4.7-7.1 5.4-11.3 7-2.6 1-5.4.9-8 1.6-6 1.5-9.9 7.2-14 11.8a50 50 0 01-25.5 14.8c-3.4.8-7 1.3-9.8 3.5-3.6 3-4.5 8-5.3 12.6a207.3 207.3 0 01-10 37l14.2 1.8c2.7.4 5.5.7 8.2 0a23.6 23.6 0 005.3-3 53.4 53.4 0 0120.9-7.5c3.7-.5 7.6-.6 11.1.8s6.6 4.6 6.9 8.3a8.8 8.8 0 018.7 2.2 15.2 15.2 0 014.2 8.3c.4 2 .8 4.3 2.6 5.1 1.4.7 3.1 0 4.8-.2 5.4-.4 10 6 15.4 4.9 5.8-1.2 7.2-9.9 12.8-11.6 3.3-1 7.8.2 9.4-2.8 1.3-2.6-1.4-5.7-1.1-8.7.3-3.6 4.7-5.2 8-6.8a25 25 0 0011.4-32.2c-3.3-6.8-9.8-12-11-19.5-1-5.7 1.3-12.4-2.3-16.9-1.9-2.2-5-3.5-6.1-6.2-.7-1.8-.4-3.7-.8-5.5s-2-3.7-3.8-3.3c-5.2 1.4-6.8 17.5-9.6 21.4-4.2 5.9-13 2-11.6-5.3zM915.3 547.8c-1.8-.5-3.7-1-5.4-.2s-2.7 3.2-1.3 4.4c10.7-.4 21.4-.8 32 .6 12.2 1.7 24.3 5.8 36.6 4.6a186 186 0 00-21.4-5l-12-2.2a92.8 92.8 0 00-9.7-1.5c-6.9-.6-12 1.2-18.8-.7zM926 510.6c-.9 0-2-.1-2.4.6-.5.8 0 1.7-.2 2.5-.3 1.2-1.8 1.4-3 1.3s-2.3-.5-3.4 0a2.9 2.9 0 00-1 3.3 8.5 8.5 0 001.9 3.2 32.2 32.2 0 005.1 5.1c3.7 2.7 8.7 4 11 8a5.3 5.3 0 001.5 2c1 .7 2.5.1 3.7-.4l4.2-2a4.8 4.8 0 002-1.3c1-1.3.3-3.1-.5-4.5s-1.8-2.9-1.6-4.5c.3-2.8 4-4 5.5-6.4 1.5-2.5.5-5.6.7-8.5.2-3.4 2.3-7.8-1.1-10.4-3-2.1-5.7-.1-7.8 2.3-4.4 5-6.5 10.4-14.6 9.7zM951.5 460c1.4 2.7 4.4 4.4 6 7 1.6 3 1.4 6.7 3.3 9.5 1.9 2.9 5.6 4.4 6.7 7.7 1.2 3.5-1.5 7.9.6 11a4.6 4.6 0 006.8.6 5 5 0 00-.2-7c-1.2-1-3-1.5-4-2.9a6.1 6.1 0 01-1-2.5 16.7 16.7 0 01.2-8 3.6 3.6 0 00.2-2c-.5-1.4-2.3-1.5-3.6-2.2-2.9-1.4-2.8-5.5-2.3-8.7-.3 2.1-8-1.5-8.7-2.7-1.6-2.4-.7-7-1-9.7-3.5 1.7-4.8 6.6-3 10zM875 502.2c-1.4-1.6-3.5-3.2-5.4-2.3-1.4.7-1.8 2.7-1.2 4.2a9.3 9.3 0 003 3.7c4 3.2 8.2 6.1 11.6 9.8 6 6.8 9.3 15.8 16 22a9 9 0 005 2.7c2 .2 4.1-1 4.3-3 .2-1.6-.9-3-2-4.2-2.6-2.8-5.4-5.3-7.8-8.3a7 7 0 01-2-4.2c0-1.5 1.4-3.2 3-2.8-2-.5-3.3-3.6-6-4.2-2.3-.5-2.9 1-5.6-.2-5.2-2.2-9.2-9.2-12.9-13.2zM996.8 349.5a42.9 42.9 0 01-4.4-1.5c-3.9-1.2-9 1.6-8.4 5.6.3 2.7 2.8 4.4 4.1 6.7 2 3.4 1.5 7.8.4 11.6a9 9 0 01-1.4 3.3 11.1 11.1 0 01-3.5 2.4 46.1 46.1 0 00-13.4 11.5 3.3 3.3 0 00-.9 1.5c-.1 1.4 1.2 2.4 2 3.5 1.7 2.5.4 5.8.6 8.8a2.5 2.5 0 001 2.2c1 .6 2.3-.3 2.9-1.3 1.8-3.4.4-8.7 3.9-10.3.6-.3 1.4-.5 1.8-1 .7-1 0-2.3.4-3.4.5-1.6 2.8-1.7 4.5-1.6a25.4 25.4 0 008.7-1.2 5.8 5.8 0 003-1.6c1-1.3.8-3.2.6-4.8a64.5 64.5 0 00-7.6-23.3c3 .4 6.4.8 9-.8 1.4-.9 3.2-3.5 2.5-5.3-1.2-2.9-3.3-.5-5.8-1zM608 394.4c.3 2 .6 4 0 5.9s-2.6 3.4-4.5 2.9c-1.5-.5-2.4-2-3.4-3-5.8-6.4-19-2.7-22.5-10.5-1.5-3.1-.5-7-1.5-10.3a9.2 9.2 0 00-9.3-6.3 19 19 0 00-5.3 1.6 134.7 134.7 0 01-35.4 8.9 29 29 0 00-6.8 1.2c-5 1.8-8.4 6.4-10.8 11.1s-4.2 9.9-7.5 14c-3.4 4.5-8.2 7.6-12.7 10.9a13 13 0 00-4.2 4.4c-1 2-.9 4.3-.8 6.5l1 26.8c0 3.5.2 7 1.7 10.2 2 3.8 5.8 6.3 8.4 9.7a19.2 19.2 0 014 12.3c0 1.8-.2 3.9 1.2 5a5 5 0 002.8.8l36.3 3c6.4.5 13.5 1.4 17.6 6.2 2 2.3 3.6 5.6 6.6 5.9 1.3 0 2.5-.5 3.8-.6 3.3-.2 6.2 2.3 8 5a22 22 0 013.5 14c-.3 3.2-1.3 6.2-1.5 9.3-.8 11.9 9.3 22.2 9.5 34.1.1 7-3.2 13.5-6.4 19.7 5.2 8 .9 18.5 3 27.7 2 8.8 9.3 15.7 11.1 24.5.8 4 .9 9 4.4 11a10.1 10.1 0 005 1 66.2 66.2 0 0030.2-6.8c4.4-2.2 9-5.4 9.8-10.3.6-3.9-1.4-8.3.6-11.7 2.4-4 8.5-3.7 12-6.7 5.7-5 1.2-14.6 3.5-21.8 2.1-6.5 9.2-10 12.7-15.8a28 28 0 003-8 114.2 114.2 0 003-20.4 122.4 122.4 0 011-12.5c3.7-23.7 27.1-39.5 34.7-62.2.7-2.2 1-5-.9-6.3a5.5 5.5 0 00-3.6-.4l-16.8 2.2c-2 .2-4.3.5-6.2-.4s-3.3-3.3-2.2-5.1c2.8-5.2-3-11.7-5.6-17a249.9 249.9 0 00-25-40.3 4.1 4.1 0 01-1-2.4l4.7.2c-1.6-5.8-4.2-12-9.8-14.2-3.2-1.2-6.6-.8-10-.6-9.6.6-20-.9-29.5-2.4z" transform="translate(-11.7 -13)" fill="#3f3d56"/>
  <path d="M637.4 264.8c2.5 2.6 5.3 5.5 9 6 6.4.8 11-5.9 14-11.7a5.7 5.7 0 006 5.3 11.7 11.7 0 004.4-1.8 87.8 87.8 0 0141.6-10.7 4.5 4.5 0 013.4-5c3-.5 5.6 2 7 4.7s2.3 5.7 4.6 7.7 6.7 1.9 7.6-1c.8-2.8-2-5.1-4.5-6.7s-4.9-4.7-3.3-7c12.3-2.8 24.5-5.5 37-6a15.5 15.5 0 006.3-1.1c1.9-1 3.4-3 2.9-5.1a14.1 14.1 0 01-14.7-5.6c17.3-1.4 35.7-2.6 51.1 5.5 1.9 4-7.5 7.3-5 10.8.8 1.2 2.4 1.3 3.8 1.3 10.7.2 21.4.4 32-1.2 3.8-.6 7.7-1.4 11.6-1 6.4.9 12 5.2 18.3 6.6 2.6.6 5.5.6 7.7-1s3-4.8 1.3-6.8c6-5.9 15.9-4.4 23.8-1.6s15.3 7.3 23.7 8c6 .4 12-1.2 18-.2 3.7.7 7.1 2.3 10.8 3.3 6.8 2 14 1.5 21.2 1.6a149 149 0 0153.1 10.6 15.8 15.8 0 016 3.5c1.5 1.7 2.3 4.3 1.2 6.3L1020 270c1.6 3.2 5.9 3.8 9.3 4.9s7 5 5 7.9c-3.7-1.2-7.1 2.6-9 6s-4.2 7.6-8.2 7.8c-3.5.2-7.7-2.8-10-.1a68.6 68.6 0 018 12.9c2.3 4.7 4 10.6.9 14.9a3.9 3.9 0 01-2 1.6c-2.6.6-4.2-2.4-6-4.3-2.3-2.3-5.7-3-8.7-4s-6.3-3.3-6.6-6.6c-.1-2 1-3.9 1.7-5.7a22.2 22.2 0 001.7-10c-.1-2.7-1-5.5-2.9-7.5s-5.3-2.5-7.4-.7c-1 .8-1.8 2.1-3 2.1-2.3.1-4-3.8-5.9-2.5a6.2 6.2 0 01-.8 4.2c-5.5 4.7-13.8 2.7-20.8 4.4a39 39 0 00-9.4 4 6 6 0 00-2.7 2.4c-1 1.6 0 3.8 1.6 5a13 13 0 005.4 1.8c8.5 1.6 17.1 4 23.8 9.6s11.2 14.5 9 22.9l-16.7-16q1 10 1 20.2a9.1 9.1 0 01-.5 4c-1.2 2.6-4.4 3.4-7.3 4a5.7 5.7 0 00-4.4 7.3c1 3.3 3.6 6 5.9 8.5s4.5 5.4 4.9 8.9-2.3 7.3-5.8 7c-2.6-.2-4.5-2.5-5.6-4.8s-1.8-5-3.5-7c-5-6.1-16.4-3.5-21-10a10.2 10.2 0 00-2 9.7c2-1.3 5 0 6.6 1.9s2.3 4.3 3.5 6.5c1.7 2.9 4.4 5.5 4.6 8.8a28.8 28.8 0 000 3.8c.5 2 2.2 3.5 3.4 5.2 2.7 4 2.6 9.3.8 13.8s-5 8.2-8.1 11.8a142.8 142.8 0 01-17.8 18c-1.8 1.4-3.8 2.9-5 5s-1.2 5 .6 6.6c-1.3.1-3.6.7-5 .8a113.1 113.1 0 01-.2-15.5c-5-2.4-10.5 4.1-9.9 9.7s4.7 10 7.6 14.9c2 3.5 3.7 7.6 3 11.6s-4.4 7.8-8.5 7.5c-6.5-.6-9.2-10-15.6-11a2.6 2.6 0 00-1.7.2c-1 .5-1.1 1.8-1.2 2.9a36 36 0 001.6 15.8c3 7.2 11 13.3 9.3 21-9-4.2-13.6-14.2-15.7-23.8s-2.4-19.7-6.2-28.8c-2.9 3.7-8.9.6-11.5-3.2-2.5-3.7-4-7.9-6.4-11.6s-6.1-7-10.5-7.2c-4.7-.2-8.7 3-12.2 6-2.9 2.4-5.9 5-7.6 8.4-2.4 5-1.8 10.8-2 16.3 0 6-1.3 12.3-5.4 16.7s-11.6 6-16.1 2c-2.4-2-3.5-5.2-4.5-8.1a396.7 396.7 0 01-12.2-43.5c-.8 3.3-3.7 7.7-6.5 5.7a5.8 5.8 0 01-1.5-2c-5.3-8.9-15-14.2-24.9-17.4s-20.2-4.7-29.9-8.2a75.8 75.8 0 01-15.5-7.8 12.2 12.2 0 00-.8 12.5c2.2 3.8 7 6 11.3 4.7 2.1-.7 4-2.2 6.1-3s5-.3 6 1.8c.9 2-.5 4.3.2 6.4 1 3.1 5.7 3.4 7.4 6.2 1.2 2.2.2 5-1.6 6.7s-4 2.7-6.2 3.9c-7 3.9-12 10.5-18 15.6s-14.7 9-22 5.6c1.7-8.7-8.7-15.2-10.6-23.9-.7-2.9-.4-6-1.3-8.7-1.3-4-4.9-6.9-7.8-10a39 39 0 01-10.7-28.3c.2-3.6.8-7.2 0-10.7s-3.7-7-7.3-6.8c-8.3.4-18.6 1-23-6-1.5-2.6-2.2-6.2 0-8.2 1.6-1.3 4-1.2 6-1l18.6 1.8c4.3.5 9 .8 12.7-1.4s5.4-8.3 2-11c-2.6-2-7.1-1.9-7.8-5-.7-2.5 2.2-5.5.7-7.6-1.1-1.6-3.6-1.2-5.1 0s-2.6 2.9-4.3 3.7c-3 1.6-6.5.1-9.7-.9s-7.5-1-9 1.9c-1.8 3.3 1.5 7.6-.2 11-2.3 4.4-10 1.9-13.2 5.6-3.6 4.4 2.5 10.8 1.3 16.3a10.2 10.2 0 01-10-.5 9.7 9.7 0 01-4.2-9c.3-2.6 1.6-5 .7-7.4-.7-2-2.6-3-4.4-4l-18-10c-1.7 3 .4 7 3 9.3s6 4 7.8 7.1a9.4 9.4 0 01-3.5 12.4 2.2 2.2 0 01-1.8.3 2.5 2.5 0 01-1.2-1.5c-3.2-8.2-8-16.2-15.6-20.5s-18.6-3.3-23.6 3.8c-1.2 1.7-2 3.7-3 5.5-5.6 9.5-17.4 14-28.4 13.8a5.6 5.6 0 01-3.1-.8c-1.8-1.2-1.7-3.8-1.4-6l1.1-9c.3-2 .6-4 2-5 2-1.7 5-.7 7.6-.7a9.6 9.6 0 008.8-6.7 10.8 10.8 0 00-3-10.8c-1.2-1.2-2.8-2.6-2.2-4a3.3 3.3 0 012.3-1.7c4.7-1.3 9.6-1.7 14.2-3.3s9.1-4.9 10.2-9.6c.3-1.5.5-3.2 1.8-4a5.4 5.4 0 012-.4 10 10 0 008.7-10.5c2.2-1.5 5.3-.4 7.4 1.3s4 3.8 6.6 4.5c4.9 1.3 9.5-3 14.5-3 2.2 0 4.3.7 6.3 0s3.2-2.7 4.8-4.2 4.2-2.4 5.6-.8l-1.2-9a17.7 17.7 0 0014.4-2.6l-15.7-5.3a3.4 3.4 0 01-1.4-.7c-1.2-1.3 0-3.2.9-4.6 2.2-3.3 2.6-8.8-1-10.5-2.6-1.1-5.4.3-7.8 1.6l-11.4 6.4c-.4 2.1 2.2 3.4 3.9 4.8a6.6 6.6 0 01-4.3 11.6 8.2 8.2 0 011.5 7l-7.7.5a3.3 3.3 0 01-2.5-.5c-.9-.7-.7-2-1-3-.4-2.7-3-4.5-5.6-5s-5.3.2-7.9.8a4.7 4.7 0 01-3.3-.1 3.4 3.4 0 01-1.4-1.7c-1.1-2.8 0-6 1.8-8.4s4.3-4 6.5-6a38.2 38.2 0 0011.4-17.6c4.2-1.8 8.6-4.2 12.9-6a39.4 39.4 0 0121.1-4l14.4.2c4.2 0 8.6.2 12.5 1.8s7.4 5.1 7.6 9.4a2.9 2.9 0 01-.9 2.6 3.4 3.4 0 01-1.8.4c-4 .1-5.6 1.1-9.6 1.3zM523 309.7a4.2 4.2 0 001.2-4.2 7.9 7.9 0 00-8.2 1.5 13.7 13.7 0 00-2.1 3c-2 3-3.6 6.7-2.5 10.1a2.9 2.9 0 001.3 1.8 3.5 3.5 0 001.6.3 51.8 51.8 0 006.2-.4c1.3-.2 2.7-.5 3.2-1.7.7-1.6-.9-3.3-.4-5a5.4 5.4 0 011.3-1.8 2.5 2.5 0 00.8-2.1c-.2-.8-1.4-1.2-1.8-.6" transform="translate(-11.7 -13)" fill="#3f3d56"/>
  <path d="M533.8 295.8a17.4 17.4 0 00-5.6-.4 2.5 2.5 0 00-1.2.3 2 2 0 00-.8 1 5.3 5.3 0 003.1 6.6 6.7 6.7 0 012 .7c1.5 1.3.5 3.8.8 5.8.4 2.2 2.5 4.1 2.1 6.3-.3 1.8-2.1 3.2-1.8 5 .3 1.8 2.6 2.3 4.5 2.5a5.7 5.7 0 003.2-.4 5 5 0 002-3 18.7 18.7 0 001-7 6.7 6.7 0 00-.9-3 17.4 17.4 0 00-1.8-2.2c-3.6-4.1.2-10.3-6.6-12.2z" transform="translate(-11.7 -13)" fill="#3f3d56"/>
  <path d="M991.2 607.8S718 451 600.4 480.7c0 0-249.3 26.8-278.2 85.8 0 0-79.2-247.6-108.1-255.9" fill="none" stroke="#3bb8d7" stroke-miterlimit="10" stroke-width="2" opacity=".8"/>
  <path d="M322.2 566.5C368 444.4 780.7 309 780.7 309c-58.6 14.9-180.3 171.7-180.3 171.7S342.8 293.3 214 310.7c0 0 567 18.5 777 297" fill="none" stroke="#3bb8d7" stroke-miterlimit="10" stroke-width="2" opacity=".8"/>
  <circle cx="214.1" cy="310.6" r="12" fill="#3bb8d7"/>
  <circle cx="322.2" cy="566.5" r="12" fill="#3bb8d7"/>
  <circle cx="780.7" cy="309" r="12" fill="#3bb8d7"/>
  <circle cx="991.2" cy="607.8" r="12" fill="#3bb8d7"/>
  <circle cx="600.4" cy="480.7" r="12" fill="#3bb8d7"/>
</svg>
