<svg id="b759170a-51c3-4e2f-999d-77dec9fd6d11" data-name="Layer 1" xmlns="http://www.w3.org/2000/svg" width="1140.6" height="787.3" aria-hidden="true">
  <defs>
    <linearGradient id="c518dc33-18b9-48bc-b516-0f83ad79191e" x1="852.4" y1="835.9" x2="852.4" y2="338.3" gradientUnits="userSpaceOnUse">
      <stop offset="0" stop-color="gray" stop-opacity=".3"/>
      <stop offset=".5" stop-color="gray" stop-opacity=".1"/>
      <stop offset="1" stop-color="gray" stop-opacity=".1"/>
    </linearGradient>
  </defs>
  <path d="M38.5 470.8c20.1-33 65.7-27.2 98-10s64.7 42.9 100.2 38c30-4.2 54.6-30.4 68-60.6s17.1-64.2 20.9-97.5l14-125.7c1.8-15.3 3.8-31.5 12.4-43.6 11.4-16 32.3-21 50.1-16.1s33.1 17.7 46.2 32C490 233.4 513.6 295.8 550 347c7.5 10.4 15.9 20.8 27 25.8 16 7.3 34.3 2.1 50-6 51-26.2 85.2-79.9 118.9-130 16.4-24.3 36.3-50.3 63.6-53 28.7-2.8 53.5 21.6 70.4 47.5 54 83.2 65.7 196.9 131 269.5 8.1 9 17 17.3 27.4 22.9a70.7 70.7 0 0010.6 4.6c57 19.8 76 99 33.8 146l-2.8 3a46.6 46.6 0 01-21.8 14.8c-7.9 1.8-16-.3-23.8-2.6-49.8-14.5-99.1-36.8-150.7-35.7-50.1 1-97.7 24.2-147.3 32.5-33.3 5.6-67.3 4.5-101 3.3q-168.5-6-336.8-14.1c-55.8-2.6-111.5-5-167.2-7.9-43-2.2-70.3-7.1-75.3-57-4.3-43.5-43.5-97.5-17.6-139.8z" transform="translate(-29.7 -56.4)" fill="#3bb8d7" opacity=".1"/>
  <ellipse cx="789.9" cy="749.5" rx="270" ry="37.7" fill="#30374e"/>
  <path d="M178.5 643.1s13.2-3 21.8 5.9c0 0-5.6 5-18.6-.5zM177 643s-7.8 11-2.9 22.4c0 0 6.8-3.2 6.6-17.4zM168.2 626.3s4.7-10.2 27 2.1c0 0-2.4 6.8-11.9 6.9s-12.3-4-15.1-9zM166.8 625.7s-11.2-.5-10.6 24.9c0 0 7.2 1 11.6-7.4s2.1-12.7-1-17.5zM159 605.9s5-17.7 28.5-6.9c0 0-4.1 16.2-25.8 12.6zM150.3 580.5s10.6-18.2 32.5-3.4c0 0-6.2 16.9-30.3 9.5zM146.2 556.1s12.6-17 34.3-2.3c0 0-12 15-34 6.4zM142.4 532.4s12.8-17.6 33.6-3.1c0 0-14.7 15.8-33.3 7zM142.2 511.2s13.2-22.6 32.7-9.2c0 0-14.4 19.6-32.4 13.3zM144 486.2s14-22.4 33-7.2c0 0-17 19.8-32.8 11.2zM147.6 463.7s17-21.3 33.6-14.3c0 0-17.7 22.6-34 19.7zM152.6 442.3s19.6-26 32.4-18.6c0 0-14.3 20-33.6 23.4zM160.3 417.4s17.1-21.3 31-17.3c0 0-14.5 22-33.2 23.7zM167.1 394s19.2-20.5 28.3-17.8c0 0-13.3 22.4-29 22.2zM173.9 372.5s16-24.1 25.8-23c0 0-9.3 21.2-25.7 25.3zM180.9 343.6s14.4-18.7 22.8-19.2c0 0-10.7 24.4-23.1 25zM184.9 324.4l12.5-37.7s3 33.1-14 44.6zM188.3 283.5s.4-30.8-1.4-33.1c0 0 12.5 24.7 2.2 46.7zM158.4 605.5s-16.3-8.6-24.8 15.7c0 0 14.5 8.3 27-9.8zM149.7 579.6s-19.7-7.5-27.3 17.9c0 0 15.4 9.1 29.5-11.8zM145.4 557.7s-14.8-15.1-34.4 2.3c0 0 14 13.2 34.6 1.8zM142 532.5s-15-15.8-33.8 1.3c0 0 16.7 13.8 34 2.6z" transform="translate(-29.7 -56.4)" fill="#3bb8d7"/>
  <path d="M142.3 511.8s-11.4-23.5-31.9-11.7c0 0 12.9 20.6 31.3 15.7zM145.2 486s-11.4-23.9-32-11c0 0 14.6 21.5 31.2 14.9zM149.7 463.7s-5.6-26.6-23.6-27.9c0 0 5.7 28.2 21.6 33zM153 442.3s-3.6-32.3-18.4-32.4c0 0 2.2 24.6 17.1 37.1zM161.7 416.4s-6.2-26.7-20.4-29c0 0 3.4 26 19.5 35.7zM168.8 394.1s-2-28-11-31.6c0 0-3.5 25.8 8.7 35.4zM174.5 372.2s-3.1-28.9-12.3-32.4c0 0-1.5 23.1 11.1 34.3zM182.3 345.8s-1.7-23.5-8.4-28.6c0 0-4.6 26.2 5.4 33.6z" transform="translate(-29.7 -56.4)" fill="#3bb8d7"/>
  <path d="M184 323.3l-8.8-38.8s-6.2 32.7 9.6 45.8zM182.6 284.3S165 259 165.1 256c0 0 3.6 27.4 24.4 39.8zM184 276.4s-17.5-36.4-24.4-39c0 0 22 9.4 25.6 37.8z" transform="translate(-29.7 -56.4)" fill="#3bb8d7"/>
  <path d="M180.5 349.6l-1-.2c9.9-42 11.3-68.5 4-74.6l.6-.8c7.8 6.4 6.5 32.6-3.6 75.6z" transform="translate(-29.7 -56.4)" fill="#444053"/>
  <path d="M152.3 448.3l-1.6-.5 3.5-11.6c11-33.7 20.2-65 25.8-89l1.3-.7c-5.7 24-14.6 56.4-25.5 90.2a312 312 0 00-3.5 11.6z" transform="translate(-29.7 -56.4)" fill="#444053"/>
  <path d="M199.3 672.7c-.2-.2-22.2-21.9-39.1-60.3a232.4 232.4 0 01-18.6-70.7c-3-30.6 1-65.2 10-97l1.3 1.4a246.2 246.2 0 009.2 165.4c16.7 38 38.5 59.4 38.7 59.6z" transform="translate(-29.7 -56.4)" fill="#444053"/>
  <path d="M223.5 558.5s8-1.9 13.3 3.5c0 0-3.4 3-11.3-.3zM222.7 558.4s-4.8 6.7-1.8 13.6c0 0 4.1-2 4-10.6zM217.3 548.3s2.9-6.1 16.3 1.3c0 0-1.4 4-7.1 4.1s-7.4-2.4-9.2-5.4zM216.5 548s-6.8-.4-6.4 15c0 0 4.3.6 7-4.5s1.3-7.7-.6-10.6zM211.8 536s3-10.7 17.2-4.2c0 0-2.5 9.8-15.6 7.6zM206.5 520.6s6.4-11 19.6-2c0 0-3.7 10.1-18.3 5.7zM204 505.9s7.6-10.3 20.8-1.4c0 0-7.3 9-20.6 3.8zM201.7 491.5s7.8-10.7 20.4-1.9c0 0-9 9.6-20.2 4.3zM201.6 478.7s8-13.6 19.8-5.6c0 0-8.8 11.9-19.6 8zM202.7 463.6s8.5-13.6 20-4.4c0 0-10.4 12-19.9 6.7zM204.9 450s10.3-12.9 20.3-8.7c0 0-10.7 13.7-20.5 12zM208 437s11.7-15.6 19.5-11.2c0 0-8.7 12.2-20.3 14.1zM212.5 422s10.4-12.9 18.8-10.4c0 0-8.7 13.2-20 14.3zM216.7 407.9s11.6-12.5 17-10.8c0 0-8 13.5-17.4 13.4zM220.8 394.9s9.7-14.6 15.6-14c0 0-5.7 12.9-15.5 15.4zM225 377.4s8.7-11.3 13.8-11.6c0 0-6.5 14.7-14 15zM227.4 365.8L235 343s1.8 20-8.5 27zM229.5 341s.2-18.5-.8-20c0 0 7.5 15 1.2 28.2zM211.4 535.7s-9.8-5.2-15 9.5c0 0 8.7 5 16.3-5.9zM206.2 520s-12-4.5-16.6 10.8c0 0 9.4 5.5 17.9-7zM203.5 506.8s-9-9.1-20.7 1.4c0 0 8.4 8 20.9 1zM201.5 491.6s-9.1-9.6-20.4.8c0 0 10 8.3 20.5 1.5z" transform="translate(-29.7 -56.4)" fill="#3bb8d7"/>
  <path d="M201.7 479s-7-14.2-19.3-7c0 0 7.8 12.4 18.9 9.5zM203.4 463.4s-6.8-14.4-19.4-6.6c0 0 8.9 13 19 9zM206.2 450s-3.5-16.1-14.3-16.9c0 0 3.4 17 13 20zM208.2 437s-2.2-19.5-11.2-19.6c0 0 1.3 14.9 10.3 22.5zM213.4 421.4s-3.7-16.2-12.4-17.6c0 0 2.2 15.7 11.8 21.6zM217.7 408s-1.2-17-6.6-19.2c0 0-2.2 15.6 5.2 21.4zM221.2 394.6s-2-17.4-7.5-19.5c0 0-.9 14 6.7 20.7zM225.8 378.7s-1-14.2-5-17.3c0 0-2.7 15.9 3.3 20.3z" transform="translate(-29.7 -56.4)" fill="#3bb8d7"/>
  <path d="M227 365l-5.4-23.3s-3.8 19.7 5.8 27.6zM226 341.5s-10.6-15.3-10.5-17c0 0 2.1 16.6 14.7 24zM226.9 336.7s-10.6-22-14.8-23.5c0 0 13.4 5.7 15.5 22.9z" transform="translate(-29.7 -56.4)" fill="#3bb8d7"/>
  <path d="M224.8 381l-.6-.1c6-25.4 6.8-41.4 2.3-45.1l.4-.5c4.7 3.9 4 19.7-2.1 45.7z" transform="translate(-29.7 -56.4)" fill="#444053"/>
  <path d="M207.7 440.7l-1-.3a706.8 706.8 0 0017.7-60.8l.8-.4a703.4 703.4 0 01-17.5 61.5z" transform="translate(-29.7 -56.4)" fill="#444053"/>
  <path d="M236.1 576.3c0-.1-13.4-13.2-23.6-36.4a140.7 140.7 0 01-11.3-42.8 164 164 0 016.1-58.6l.8.8c-12.1 43.1-3.8 78.8 5.5 100 10.2 23 23.3 36 23.5 36z" transform="translate(-29.7 -56.4)" fill="#444053"/>
  <path d="M266.2 626.3a38.2 38.2 0 00-7.5 2.2c-54 21.5-53 162.5-53 162.5h-15.9s-5-60.5-26.8-146.8c-19.6-77.7 60.9-147.3 77.2-160.5l2.9-2.3c81 29.8 23.1 145 23.1 145z" transform="translate(-29.7 -56.4)" fill="#afc0e0"/>
  <path d="M249 483.9c-1.9-.9-3.8-1.7-5.8-2.4l-3 2.2c-16.3 13.2-96.8 82.8-77.1 160.5 21.8 86.3 26.7 146.8 26.7 146.8h9s-5-60.5-26.9-146.8c-19.5-77.4 60.2-146.7 77.1-160.3z" transform="translate(-29.7 -56.4)" fill="#fff" opacity=".2"/>
  <path d="M533.8 644.2A991.3 991.3 0 00507 791h-16s1-147.4-56.6-163.8a31.5 31.5 0 00-3.9-.9s-58-115 23.2-144.9l2.3 1.8c15 12 97.6 82.4 77.8 161z" transform="translate(-29.7 -56.4)" fill="#afc0e0"/>
  <path d="M266.2 626.3a38.2 38.2 0 00-7.5 2.2 979.2 979.2 0 01-18.5-144.8l2.9-2.3c81 29.8 23.1 145 23.1 145zM456 483.3a901 901 0 01-21.6 144 31.5 31.5 0 00-3.8-1s-58-115 23.1-144.8l2.3 1.8z" transform="translate(-29.7 -56.4)" opacity=".1"/>
  <path d="M426.3 648.1q-8.4 33.2-19.7 68s-35.7 37.2-122 0c0 0-8.6-24.3-18-65.6-21-90.8-46-263.9 7.3-441.7a661.8 661.8 0 0167.2-152.4s45.6 52.3 79 152.4 54.8 248 6.2 439.3z" transform="translate(-29.7 -56.4)" fill="#e3e8f4"/>
  <circle cx="318.7" cy="293.6" r="71.6" fill="#afc0e0"/>
  <path d="M399.2 350a50.8 50.8 0 01-83 39.3 51.3 51.3 0 01-9.5-10.3 50 50 0 01-3.3-5.4 50.7 50.7 0 01-5.8-23.6v-1.2a50.9 50.9 0 0137-47.7 52.5 52.5 0 0112.2-1.9h1.5a50.8 50.8 0 0150.9 50.8z" transform="translate(-29.7 -56.4)" fill="#3bb8d7"/>
  <path d="M420.1 208.8c-81.3 38.9-146.2 0-146.2 0a661.8 661.8 0 0167.2-152.4s45.6 52.3 79 152.4zM426.3 648.1q-5.7 22.5-12.7 45.7-3.3 11-7 22.3s-35.7 37.2-122 0c0 0-2.8-7.9-7-22.3-3.1-11-7-25.5-11.1-43.3 0 0 32.1 13.7 77.7 13.7a214.1 214.1 0 0082.1-16z" transform="translate(-29.7 -56.4)" fill="#afc0e0"/>
  <path d="M413.6 693.8q-3.3 11-7 22.3s-35.7 37.2-122 0c0 0-2.8-7.9-7-22.3 0 0 88 25.3 136 0z" transform="translate(-29.7 -56.4)" fill="#e3e8f4"/>
  <path d="M334.6 301l-37 47.7v1.2a50.7 50.7 0 005.8 23.6l43.5-74.4zM346.4 344l-30.2 45.3a51.3 51.3 0 01-9.5-10.4l36-38.6z" transform="translate(-29.7 -56.4)" fill="#fff" opacity=".2"/>
  <path d="M304 716.1s-8.7-24.3-18.2-65.6c-20.9-90.8-45.9-264 7.4-441.7a664.2 664.2 0 0158.9-138.1c-6.8-9.5-11-14.3-11-14.3a661.7 661.7 0 00-67.2 152.4c-53.3 177.8-28.3 350.9-7.4 441.7a655.4 655.4 0 0018 65.6c34.2 14.7 60.3 17.8 79.6 16.1a189.4 189.4 0 01-60.2-16z" transform="translate(-29.7 -56.4)" fill="#fff" opacity=".2"/>
  <path d="M937 729s46.7-58.2 43.6-116.5a113 113 0 0118.6-69 190.2 190.2 0 0122-27" fill="none" stroke="#535461" stroke-miterlimit="10" stroke-width="2"/>
  <path d="M1049.1 536.1c-3.3 8.1 1.7 37.7 1.7 37.7s24.3-17.5 27.7-25.6a15.9 15.9 0 00-29.4-12zM1006.3 571c1.6 8.7 22 30.8 22 30.8s11-28 9.3-36.5a15.9 15.9 0 00-31.3 5.8zM975.8 648.3c5.7 6.6 34.4 15.5 34.4 15.5s-4.7-29.6-10.4-36.3a15.9 15.9 0 00-24 20.8zM965.8 712c4.6 7.4 31.3 21 31.3 21s.5-30-4-37.5a15.9 15.9 0 10-27.3 16.4zM1058.4 616c-8.1 3.3-37.7-2-37.7-2s17.8-24.2 26-27.4a15.9 15.9 0 0111.7 29.5zM1045.8 690.3c-8.7.7-35.3-13.2-35.3-13.2s24.1-17.8 32.9-18.4a15.9 15.9 0 012.4 31.6zM1023.7 760.8c-8.5 2.2-37-7-37-7s20.7-21.6 29.2-23.8a15.9 15.9 0 117.8 30.8z" transform="translate(-29.7 -56.4)" fill="#3bb8d7"/>
  <path d="M1049.1 536.1c-3.3 8.1 1.7 37.7 1.7 37.7s24.3-17.5 27.7-25.6a15.9 15.9 0 00-29.4-12zM1006.3 571c1.6 8.7 22 30.8 22 30.8s11-28 9.3-36.5a15.9 15.9 0 00-31.3 5.8zM975.8 648.3c5.7 6.6 34.4 15.5 34.4 15.5s-4.7-29.6-10.4-36.3a15.9 15.9 0 00-24 20.8zM965.8 712c4.6 7.4 31.3 21 31.3 21s.5-30-4-37.5a15.9 15.9 0 10-27.3 16.4zM1058.4 616c-8.1 3.3-37.7-2-37.7-2s17.8-24.2 26-27.4a15.9 15.9 0 0111.7 29.5zM1045.8 690.3c-8.7.7-35.3-13.2-35.3-13.2s24.1-17.8 32.9-18.4a15.9 15.9 0 012.4 31.6zM1023.7 760.8c-8.5 2.2-37-7-37-7s20.7-21.6 29.2-23.8a15.9 15.9 0 117.8 30.8z" transform="translate(-29.7 -56.4)" opacity=".3"/>
  <path d="M937.4 726.5s66.3-34.2 87-88.7a113 113 0 0145-55.7 190 190 0 0131-15.7" fill="none" stroke="#535461" stroke-miterlimit="10" stroke-width="2"/>
  <path d="M1143.4 588.5c-6.3 6-13.7 35-13.7 35s29.3-6 35.7-12a15.9 15.9 0 00-22-23zM1090.2 603c-2 8.6 7.5 37 7.5 37s21.3-21 23.4-29.6a15.9 15.9 0 00-31-7.3zM1031 661.3c2.5 8.4 25.1 28 25.1 28s7.8-29 5.2-37.3a15.9 15.9 0 00-30.4 9.3zM996 715.4c1.2 8.7 20.1 32 20.1 32s12.6-27.3 11.5-36a15.9 15.9 0 00-31.5 4zM1119.5 665.3c-8.7-.3-33.6-17.1-33.6-17.1s26-15 34.8-14.6a15.9 15.9 0 11-1.2 31.7zM1078 728.1c-8.3-3-27-26.4-27-26.4s29.3-6.5 37.5-3.5A15.9 15.9 0 111078 728zM1029.1 783.6c-8.6-1.5-31-21.5-31-21.5s27.8-11.3 36.4-9.8a15.9 15.9 0 11-5.4 31.3z" transform="translate(-29.7 -56.4)" fill="#3bb8d7"/>
  <path d="M1061.4 750.7l-51.4-74.5s-1-18.5-4.3-22.8-.7-13.9-.7-13.9 3.6-5.2.4-5.7-.4-12.2-.4-12.2l-.3-18.7s2.9-18 .5-22.3a7 7 0 01.2-7.7s3-10.3 0-13-2.1-18.6-1.4-31.3-5-20-5-21.8-19-20.6-19-22.3-12-8.6-19.3-10.6-10.8-3.3-10.5-4.3-11.3-4.8-11.3-4.8-10.1-.7-14-5.7-15.6-6.5-15.9-6.6l-.2-1-.2-1 2.5-4.7.6-1.5c4.2-.2 8.6-1 11.9-3.7a16.1 16.1 0 005.7-11.5 25.2 25.2 0 00-2.8-12.7c-2-4.3-5.2-8.8-4.1-13.5.4-2 1.7-3.8 2.3-5.8 1.1-3.7 0-7.8-1.8-11.3s-4.3-6.6-6.3-10a38.7 38.7 0 01-5-14c-.5-2.5-.7-5.3-2-7.6a14.2 14.2 0 00-4.2-4.2 42 42 0 00-25.8-7.8c-6.5.2-13 2-19.6 1.1-3.9-.4-7.6-1.8-11.4-3-8-2.3-17.3-3.3-24.3 1.3s-9.9 13.7-14.6 20.8c-4.2 6.2-10.4 11.5-13.6 18.1l.1-.3a21.8 21.8 0 00-1.8 4.8 34.5 34.5 0 001.1 15.9c.7 2.7 1.6 5.6 3.9 7s5.6 1.3 8.4 1.7l-.3 1.4a54.9 54.9 0 0038 64v1.5a36.3 36.3 0 01-.2 4s-24.1-5-30.6-1.5-19.3 6-21.2 7.9-6.7.5-11 11.7-4.8 22.8-10.3 28-8.4 9-8.6 12.7.7 4.8-1.5 6-5.3 6.3-4.3 8.2c0 0 1.2 4.8-2.7 7.2s-3.3 7.2-3.3 7.2-1.5 5.2-4.8 6.4-5.6 9.1-5.6 9.1L730.5 596 709 572.1a9.1 9.1 0 00-12.8-.7l-10.6 9.6a21 21 0 00-10.6 6.3 27.4 27.4 0 00-5.5 8.2l-5.8 5.2A14.8 14.8 0 00662 617l13.8 15.3.1.1c-5.2.7-9.8 2.4-13.4 5.5-20.6 18.2-20.9 35-17.7 42.6s29.3 37.2 29.3 37.2 15.2 19.7 37.1 30.3l-.1.1c-.5.5-1 1-1.3 1.5l-.4.5-.3.4-.4.6-.3.5-.4.7-.3.5-.5.9-.1.3-.6 1.3-.2.5-.4 1-.2.6-.3 1-.2.6-.3 1-.2.7-.4 1.7v.7l-.3 1.2-.1 1-.2 1.1v1l-.2 1.3v.8l-.1 2.3c-.5 28 1.2 32.2 1.2 32.2s3.3 8.9 12.7 9.5a16.3 16.3 0 004.1-.2c12.5-2.1 41.8-7.2 52.1-5.3a89 89 0 0026-2l2-.5 1.6 4.8 4.7-1.3 4 2.3 2.6 1.5c4.7 16 24 10.6 24 10.6l4.5 2.6 46.4 1.2s10 6 16.4 7.9a15.2 15.2 0 002.3.5 105.2 105.2 0 0013 .2c3.5 0 6.2-.2 6.2-.2l-1.1-26.7c17.7-.7 33.4-1.8 43-3.5 24.7-4.4 35-26.9 38.8-38.9a113.2 113.2 0 012.4 15 106.7 106.7 0 003.9 12.9 43.7 43.7 0 005.3 9.6c18.2-6.3 7.2-15.6 3.3-19.7s2.7-7.4 2.7-7.4 5-3.4 4.5-6.5-.7-6.5 15.6-6.2 15.7-13.5 15.7-13.5zm-253.7-153a111 111 0 004.6 20c.4.8.6 3.7.5 8-9.7-.9-19.7-1.3-19.7-1.3a2.3 2.3 0 01.5 1.3l-1.5-.4-2.2-.5 17.8-27.1zM772.4 654l16.8 2.7 1.4.2a55.1 55.1 0 00-.9 8c0 .2.4.5 1 .8a21.6 21.6 0 00-.4 4c.3 1.3 8 4.2 17 6.6 0 .5-.2 1-.3 1.4-8-4.2-20.4-6.2-21.9-9.3s-44-18-44-18l-4.2-2 11.2 2 3-.3a168 168 0 0021.3 3.9z" transform="translate(-29.7 -56.4)" fill="url(#c518dc33-18b9-48bc-b516-0f83ad79191e)"/>
  <path d="M1006.7 761.1s-6.7 40.3-40.5 46.2-146.6 4.8-146.6 4.8-64.5-9.3-87.9-63.8-38.3-76.2-18.3-77.1 127.8 36.4 134 36.8 165.3-82.8 159.3 53.1z" transform="translate(-29.7 -56.4)" fill="#434175"/>
  <path d="M1006.7 761.1s-6.7 40.3-40.5 46.2-146.6 4.8-146.6 4.8-64.5-9.3-87.9-63.8-38.3-76.2-18.3-77.1 127.8 36.4 134 36.8 165.3-82.8 159.3 53.1z" transform="translate(-29.7 -56.4)" opacity=".1"/>
  <path d="M704 805.9s3.4 8.9 12.7 9.5a16.4 16.4 0 004-.2c12.5-2.2 41.5-7.2 51.7-5.3a88 88 0 0025.7-2c5.4-1 9.3-2 9.3-2s-9.5-31.7-10.7-32.6-42.8-26-42.8-26l-33-2.4h-.1s-6.1.4-11.2 6.6c-3.5 4.2-6.5 11.1-6.7 22.5-.4 27.9 1.2 31.9 1.2 31.9z" transform="translate(-29.7 -56.4)" fill="#565387"/>
  <path d="M704 805.9s3.4 8.9 12.7 9.5a135.5 135.5 0 01-9-13l.2-23.2a40.6 40.6 0 0113-34.2h-.1s-17.4 1.1-17.9 29 1.2 31.9 1.2 31.9zM847.2 755.4l30.7-24 48.3-47.6-13-.6c-2 1.3-7.5 5.2-7.7 10-.2 5.8-13 .4-19.7 3.7s-39.3 45.1-45 44.9-10.3-3-12.6 1.1l-.2.3z" transform="translate(-29.7 -56.4)" opacity=".1"/>
  <path d="M709.6 751.5c1 .6 2.2 1 3.3 1.5 23.4 10 52.2 31 54.3 34.8 1.3 2.3 18 12.5 30.9 20 5.4-1 9.3-2 9.3-2s-9.5-31.6-10.7-32.5-42.8-26-42.8-26l-33-2.4h-.1s-6.1.5-11.2 6.6z" transform="translate(-29.7 -56.4)" opacity=".1"/>
  <path d="M644.8 683.3c3.1 7.6 29 36.9 29 36.9s16.5 21.4 39.8 31.4 52.1 31 54.3 34.8c1.4 2.4 20 13.6 33 21.3l3 1.7 6.5 3.8 3.4 2 16-12.8c8-6.4 15.6-12.8 15.7-13.1.2-.8 3.3-8.9 2.6-9.3-.4-.3-2-3.6-5-7.4a33.8 33.8 0 00-12.1-10c-11-5-15.7-16.4-15.7-16.4l-2.7-1.7a31.8 31.8 0 00-10.7-4.8c-5.2-.7-15-11.4-15-11.4s-6.6-4.3-9.3-9.7c-2.5-5.3-39.4-30.6-42.8-33l89.5 57.5 21.4 13.8 30.7-24 48.4-47.6-16-.7c-23.5-1-65.2-2.7-70.5-1.5a40.2 40.2 0 01-13 .9s-12 .5-19.8-3.6-20.3-6.1-21.7-9.2-43.6-17.8-43.6-17.8-57.4-30.5-77.8-12.4-20.7 34.7-17.6 42.3z" transform="translate(-29.7 -56.4)" fill="#434175"/>
  <path d="M829.8 508.6l7.4 24.5 9.5 55.2 35 2.4 10.1-16.8L902 557s6.3-22.3 10.8-43.9c4-19.1 6.7-37.6 2.3-39.6-3.9-1.8-6.4-8.3-8-15.2l-.6-2.6a134.6 134.6 0 01-2.3-17.7s-73.3-3.8-63.1 26.4a48.2 48.2 0 012.8 16 38.2 38.2 0 01-.3 4.2 34.3 34.3 0 01-13.8 23.9z" transform="translate(-29.7 -56.4)" fill="#ee8e9e"/>
  <path d="M814.6 504.5l2.6 41.7 6 35.4 6.6 16.5 6 89.8s57.4 6.7 71.3 0a6.1 6.1 0 002.6-2c16.8-25.5 11.3-99.3 11.3-99.3l6.4-47.6-4.3-24.7-10.3-1.1-8-.9-4.4 5.7c-7 9.3-20 27.6-19.2 35.3 1.2 10.5-1.4 21.2-5.5 22.8s-7.3 4.6-8 1.7-1.5-3.6-.8-7.6-3-16.4-3-16.4-6.5-14.6-6-20.8-.8-13.3-2.7-15-4.5-3.3-2.4-11-9.4-22.4-9.4-22.4z" transform="translate(-29.7 -56.4)" fill="#e3e8f4"/>
  <path d="M890.4 608.5l2.4 71.2 13.7 7.7a6.2 6.2 0 002.6-2c16.8-25.5 11.3-99.3 11.3-99.3l6.4-47.6-4.3-24.7-10.3-1c4-19.2 6.6-37.7 2.3-39.7-4-1.8-6.5-8.3-8.1-15.2l-7.4 50.4s.6 4.6.8 9.2c.2 3.5.2 7-.6 9-1.6 4.2-.4 11.8-.4 11.8-4.3 7.6-6.5 21.6-7.5 35.1-1.4 18-.9 35.1-.9 35.1z" transform="translate(-29.7 -56.4)" opacity=".1"/>
  <path d="M906.6 456.8s12 1.5 15.8 6.5 13.8 5.7 13.8 5.7 11.5 3.8 11.2 4.8 3.4 2.3 10.5 4.2 19 8.9 19 10.5 18.8 20.3 18.8 22.2 5.7 9 5 21.6-1.4 28.6 1.4 31.2 0 12.9 0 12.9a7 7 0 00-.1 7.6c2.4 4.3-.5 22.1-.5 22.1l.3 18.6s-2.7 11.7.4 12.2-.4 5.7-.4 5.7-2.7 9.5.7 13.8 4.3 22.6 4.3 22.6l51 74s.7 13.6-15.5 13.3-16 3.1-15.5 6.2-4.5 6.5-4.5 6.5-6.4 3.3-2.6 7.3 14.7 13.4-3.4 19.6a43.2 43.2 0 01-5.2-9.6 107.7 107.7 0 01-3.8-12.8s-1.7-18.1-5-20.5-2.9-13.8-2.9-13.8 4.8-9.3-1.9-13.1l-103.4-57.3-2.4-71.2S890 555 900 537.3c0 0-1.1-7.6.5-11.9s-.2-18-.2-18z" transform="translate(-29.7 -56.4)" fill="#565387"/>
  <path d="M844.2 485.4s-23.9-5-30.3-1.6-19 6-21 7.8-6.7.5-11 11.7-4.8 22.6-10.2 27.9-8.4 8.8-8.6 12.6.7 4.7-1.4 6-5.3 6.2-4.3 8 49.6 43.8 49.6 43.8 2.4 16 4.5 20-2.4 59.8-7.1 63.6 32.1 3.5 32.1 3.5 1.7-36.6 3.1-38.5-1-41-1-41-.2-33.3 2.9-42.1 2.7-38.1 2.7-38.1 2.8-17.6 6.1-21.7-6-22-6-22z" transform="translate(-29.7 -56.4)" opacity=".1"/>
  <path d="M843.5 484.7s-24-5-30.4-1.6-19 6-20.9 7.8-6.7.5-11 11.7-4.8 22.6-10.2 27.9-8.4 8.8-8.6 12.6.7 4.7-1.4 6-5.3 6.1-4.3 8 49.5 43.8 49.5 43.8 2.4 16 4.5 20-2.4 59.8-7.1 63.6 32.1 3.4 32.1 3.4 1.7-36.5 3.1-38.4-1-41-1-41-.2-33.3 2.9-42.1 2.7-38.1 2.7-38.1 2.8-17.6 6-21.7-5.9-22-5.9-22z" transform="translate(-29.7 -56.4)" fill="#565387"/>
  <path d="M841 464.5a48.2 48.2 0 012.8 16 54.6 54.6 0 0062.6-24.7 134.6 134.6 0 01-2.3-17.7s-73.3-3.8-63.1 26.4z" transform="translate(-29.7 -56.4)" opacity=".1"/>
  <path d="M804.8 426.9a54.5 54.5 0 101.2-11.3 54.5 54.5 0 00-1.2 11.3z" transform="translate(-29.7 -56.4)" fill="#ee8e9e"/>
  <path d="M769.8 553l-13 4.1s1.1 4.8-2.7 7.1-3.3 7.2-3.3 7.2-1.4 5.2-4.8 6.4-5.5 9-5.5 9l-11 12.6s-4 3.4-3.2 5-4.3 2.2-4.3 2.2l2.6 42.4 22.6 4.3 14-1.4 11.4-4.3 10-6 4.6-11.6 20-30.5z" transform="translate(-29.7 -56.4)" fill="#565387"/>
  <path d="M725.3 610s-29-42-50.7-19.3 8.8 59.3 16 58.1 41.1-3 41.1-3z" transform="translate(-29.7 -56.4)" fill="#ee8e9e"/>
  <rect x="671.3" y="583.9" width="61.4" height="69.8" rx="12.6" ry="12.6" transform="rotate(-42 613.9 629.3)" fill="#30374e"/>
  <rect x="671.3" y="583.9" width="61.4" height="69.8" rx="12.6" ry="12.6" transform="rotate(-42 613.9 629.3)" opacity=".1"/>
  <rect x="672.2" y="580.5" width="61.4" height="69.8" rx="12.6" ry="12.6" transform="rotate(-42 614.7 625.9)" fill="#30374e"/>
  <circle cx="672.4" cy="560.7" r="13.6" fill="#3bb8d7"/>
  <circle cx="672.4" cy="560.7" r="13.6" opacity=".1"/>
  <circle cx="673.1" cy="559" r="13.6" fill="#3bb8d7"/>
  <path d="M706.5 618.8c-.2 31.4 64.8 38 64.8 38l16.6 2.7 7.4 1.2 3.1-30.7s-3.4-.5-7.7-1.5c-6.3-1.5-14.4-4-16.1-7.5-2.9-6-67.9-33.6-68.1-2.2z" transform="translate(-29.7 -56.4)" fill="#ee8e9e"/>
  <path d="M806 415.6a6.5 6.5 0 014 1.7c1.8 2 2 5.4 4.3 6.6a5 5 0 002.9.4c6.3-1 10-8 16-10 3.5-1.2 7.3-.4 10.7.9a8 8 0 013.5 2.3c2 2.6.6 6.4 1.6 9.6 1.3 4.5 6.6 6.2 11.1 6.8s9.7.9 12.8 4.3c2.2 2.5 2.7 6 2.3 9.3a7.3 7.3 0 000 3.4c1.2 3.5 7.4 3 9 .2 1.2-2 .8-3.8 3.6-4.3 1.9-.4 4.1.4 5.8 1a42.7 42.7 0 0015.1 2.3A54.5 54.5 0 10806 415.5z" transform="translate(-29.7 -56.4)" opacity=".1"/>
  <path d="M875.1 449.4a7.3 7.3 0 010-3.4c.5-3.2 0-6.8-2.2-9.2-3-3.4-8.2-3.8-12.8-4.3s-9.8-2.4-11.2-6.8c-.9-3.2.5-7-1.5-9.7a7.8 7.8 0 00-3.5-2.3c-3.4-1.3-7.2-2-10.7-.9-6 2-9.7 9.1-16 10a5 5 0 01-2.9-.3c-2.4-1.2-2.5-4.7-4.3-6.6-3-3-8.4-1-12-3.4-2.3-1.5-3.1-4.3-3.8-7a34.3 34.3 0 01-1-15.8c2-8.9 10-15 15-22.5 4.7-7 7.3-16 14.4-20.6s16.2-3.6 24.1-1.3c3.8 1.1 7.5 2.5 11.3 3 6.5.8 13-1 19.4-1.2A41.6 41.6 0 01903 355a14.2 14.2 0 014.2 4.2c1.3 2.3 1.4 5 1.8 7.6a38.8 38.8 0 005 14c2 3.3 4.5 6.3 6.4 9.8s2.8 7.6 1.7 11.3c-.6 2-1.8 3.7-2.3 5.7-1 4.7 2 9.1 4 13.4a25.1 25.1 0 012.9 12.7A16 16 0 01921 445a20.5 20.5 0 01-12.1 3.7 42.8 42.8 0 01-15.4-2.4c-1.7-.6-4-1.3-5.8-1-2.8.6-2.4 2.3-3.6 4.4-1.5 2.8-7.7 3.3-9-.3z" transform="translate(-29.7 -56.4)" fill="#434175"/>
  <path d="M845.8 756.9l30.7-24 48.3-47.7-16-.7c-1.7 1.8-3.2 4-3.3 6.5-.3 5.8-13.1.4-19.8 3.8s-39.3 45-45 44.8-10.2-3-12.6 1.1a2.5 2.5 0 01-.2.3 6.8 6.8 0 01-3.6 2.1z" transform="translate(-29.7 -56.4)" opacity=".1"/>
  <path d="M783.9 755.2l15.4 49.3 2.4 7.7 7.4-2 16.2-4.5 72.1-19.8s13.6-.2 26-7a78.7 78.7 0 0144.9-9.7c9.5.9 20.1-3.2 29-19.5 0 0 20-59-30.5-76s-52.9 9-52.9 9l-.7.4c-2 1.3-7.4 5.2-7.6 10-.3 5.9-13 .4-19.7 3.8s-39.3 45-45 44.8-10.3-3-12.7 1.1l-.1.3c-1.8 2.4-7.1 3-10.6 3-2 .2-3.3 0-3.3 0l-.5.2-3.7 1z" transform="translate(-29.7 -56.4)" fill="#434175"/>
  <path d="M787.9 659.5l7.4 1.2 3.1-30.7s-3.4-.5-7.7-1.5c1.2 4.3-1.4 20.8-2.8 31z" transform="translate(-29.7 -56.4)" opacity=".1"/>
  <path d="M982.5 516s22.2-6.4 16.7 56.4S952.8 675 952.8 675s-47.2 20.7-68.3 17.4-36.7-4-36.7-4a53.8 53.8 0 00-21.4-5.7c-12-.5-37-7.9-37.4-10.3s6.2-37.4 3.3-40c0 0 33.3 1.4 36.7 3.8s8 .7 11.6 0 14.6-10.2 36.2-1.9c0 0 7.4.7 10.3-1.2s7.4-.4 7.4-.4 4.5-1.7 5.2-2.7 6.4 0 6.4 0a2.5 2.5 0 003.6-1.7 15.6 15.6 0 013.3-5.2s6.5-36.2 18.6-49.8c0 0 3.6-3 2.6-6.9s19.8-58 48.3-50.4z" transform="translate(-29.7 -56.4)" opacity=".1"/>
  <path d="M982 511.2s22.1-6.5 16.7 56.4-46.5 102.6-46.5 102.6-47.1 20.7-68.3 17.4-36.7-4-36.7-4a53.7 53.7 0 00-21.4-5.8c-12-.5-37-7.8-37.4-10.2s6.2-37.4 3.3-40c0 0 33.4 1.4 36.7 3.8s8 .6 11.7 0 14.5-10.2 36.2-2c0 0 7.3.8 10.2-1.1s7.4-.5 7.4-.5 4.5-1.7 5.2-2.6 6.4 0 6.4 0a2.5 2.5 0 003.6-1.7 15.5 15.5 0 013.3-5.2s6.5-36.2 18.6-49.8c0 0 3.6-3 2.6-6.9s19.8-58 48.4-50.4z" transform="translate(-29.7 -56.4)" fill="#565387"/>
  <path d="M810 747.4l31.4 38 .2-.2c.3-.8 3.4-8.9 2.7-9.3s-6.2-12.4-17.2-17.4c-6.7-3-11-8.5-13.4-12.3z" transform="translate(-29.7 -56.4)" opacity=".1"/>
  <path d="M810.4 813.2l3.5 2 15.9-12.8c7.9-6.4 15.6-12.8 15.7-13.1.3-.7 3.4-8.8 2.6-9.3-.3-.3-2-3.6-5-7.4-21.3-6-7.7 8.8-5.9 9.5 0 0-26-6-27.4 22.3a33.4 33.4 0 00.6 8.8z" transform="translate(-29.7 -56.4)" opacity=".1"/>
  <path d="M836.7 825.2l4.5 2.6 46 1.2s10 6 16.3 7.8a14 14 0 002.3.5 103.3 103.3 0 0012.8.3l6.3-.3s-2.2-58-3.9-64c-.7-2.9-4.6-2.2-8.4-.8a55.2 55.2 0 00-8.2 4.2s-19.5 1.9-22.6 3.6-12-1-17.4 0-15.2-6.5-15.2-6.5c-26.7-8.8-11.7 7.6-9.8 8.3 0 0-26-6-27.4 22.4s24.7 20.7 24.7 20.7z" transform="translate(-29.7 -56.4)" fill="#565387"/>
  <path d="M903.1 802.8c.5 12 9.9 26.9 15.5 34.8l6.2-.3s-2.2-58-3.8-64c-.8-2.9-4.6-2.3-8.4-.8-4.6 8.6-9.9 20.6-9.5 30.3z" transform="translate(-29.7 -56.4)" fill="#565387"/>
  <path d="M903.1 802.8c.5 12 9.9 26.9 15.5 34.8l6.2-.3s-2.2-58-3.8-64c-.8-2.9-4.6-2.3-8.4-.8-4.6 8.6-9.9 20.6-9.5 30.3z" transform="translate(-29.7 -56.4)" opacity=".1"/>
  <path d="M895.3 804.4c3.2 11.6 3.1 24.6 8.2 32.4a14 14 0 002.3.5 103.3 103.3 0 0012.8.3l6.2-.3s-2.2-58-3.8-64c-.8-2.9-4.6-2.3-8.4-.8a55.2 55.2 0 00-8.3 4.2s-13 12.9-9 27.7zM736.8 687s22.8 7.4 42.1 33.7z" transform="translate(-29.7 -56.4)" opacity=".1"/>
  <g opacity=".1">
    <path d="M922.2 401.3a4.7 4.7 0 01-.1.5 16.1 16.1 0 01-.8 2 15 15 0 011-2.5zM793.1 389.7a21.5 21.5 0 011.8-4.8l-.4 1.2a34.3 34.3 0 001 15.8c.7 2.7 1.6 5.6 4 7 3.5 2.4 9 .4 11.8 3.4 1.9 2 2 5.4 4.4 6.6a5 5 0 002.8.4c6.3-1 10-8 16.1-10 3.5-1.1 7.3-.4 10.7.9a7.8 7.8 0 013.5 2.3c2 2.6.6 6.5 1.5 9.6 1.3 4.5 6.6 6.2 11.2 6.8s9.7.9 12.7 4.4c2.2 2.4 2.8 6 2.3 9.2a7.4 7.4 0 000 3.4c1.3 3.5 7.5 3 9 .2 1.2-2 .8-3.8 3.6-4.3 1.9-.4 4.1.4 5.8 1a42.8 42.8 0 0015.4 2.3c4.3-.2 8.7-1 12.1-3.7a14 14 0 003.7-4.5 15.1 15.1 0 01-5.1 8.1 20.4 20.4 0 01-12 3.7 42.7 42.7 0 01-15.4-2.3c-1.8-.6-4-1.4-5.9-1-2.8.5-2.4 2.2-3.6 4.3-1.6 2.8-7.8 3.3-9-.2a7.4 7.4 0 010-3.5c.4-3.2-.1-6.7-2.3-9.2-3-3.4-8.2-3.8-12.8-4.3s-9.8-2.4-11.1-6.8c-1-3.2.5-7-1.6-9.7a7.9 7.9 0 00-3.5-2.2c-3.4-1.3-7.2-2-10.6-1-6.1 2-9.8 9.2-16.1 10a5 5 0 01-2.9-.3c-2.4-1.2-2.5-4.6-4.3-6.6-2.9-3-8.4-1-12-3.3-2.2-1.5-3.1-4.4-3.8-7a34.5 34.5 0 01-1-15.9z" transform="translate(-29.7 -56.4)"/>
  </g>
  <path d="M926 580.3c-4.4 5.9-9.4 11.3-13.3 17.5s-6.6 13.5-5.8 20.8c4-4 5.9-9.8 8.4-14.9 4.2-8.7 10.6-16 16-24 1-1.6 7.6-10.4 4.3-10.8-2.8-.4-8.2 9.4-9.7 11.4z" transform="translate(-29.7 -56.4)" opacity=".1"/>
</svg>
