<svg id="ab82d996-d758-4a94-9ad9-9e4bd5f70489" data-name="Layer 1" xmlns="http://www.w3.org/2000/svg" width="949.6" height="703.6" aria-hidden="true">
  <path d="M808.5 515.6l7.5-4.6 2.1-1.4a71.3 71.3 0 01-59.2-67 70.6 70.6 0 016.2-32.5 71.5 71.5 0 0145.8-39.5l-.3 29.4 16.1-32a.6.6 0 01.2 0 71.3 71.3 0 0174.6 68v4a85.3 85.3 0 0014-20.9c7-15.2 7-32.5 6.5-53.5-1-41.6-2.8-83.5-5.2-125.3a71.3 71.3 0 01-63.3-67.5v-6.5-1.6l.7-6 .2-1q.4-2.7 1-5.2l.5-1.8a54 54 0 011.7-5.4l.7-1.8 1.6-3.8 1-2 .2-.5a71.3 71.3 0 0183.8-36.2l-.5 38.3 16-31.6a70.9 70.9 0 0134 76.8l-.3 1.5a67.6 67.6 0 01-1.9 6.4l-.9 2.6-1.6 3.7-1 2.2q-1.3 2.7-3 5.4l-1.2 1.8-2.3 3.5-1.6 2a49.6 49.6 0 01-7 7.6 51.3 51.3 0 01-5 4.4l-1.7 1.4-5.3 3.5-1 .6-4.6 2.5-2 .9a75.4 75.4 0 01-10.3 3.7l-2.4.6-4.5 1h-.2q1.4 26.4 2.6 52.9a71.3 71.3 0 0199-31l-12.6 34.6 26-25a71.1 71.1 0 0123 49.3 69.8 69.8 0 01-1.9 19.7 71.3 71.3 0 01-131.2 19.4l.2 5.4c.5 18.5 1 41.6-8.2 62.1-6.2 14-16.3 25.3-26.2 35.5-6.5 6.6-13.2 13-20 19.2a71.3 71.3 0 01-25.8 21.4q-17 13-35.1 24.4l-7.4 4.8c-6.8 4.2-13.8 8.5-20.6 13l3.6-.3a71.4 71.4 0 0170.3 46.4L827.7 628l49-11.4a71.4 71.4 0 01-102.3 64.3l3.3 4.1 6.5 8.1c29 36.8 37.1 71.6 22.7 98.2l-17.4-9.4c14-25.9-7-59-20.9-76.5l-6.4-8c-18.5-23-39.5-49-39-81.1.8-48.2 47.7-77.3 85.3-100.6z" transform="translate(-125.2 -98.2)" fill="#f2f2f2"/>
  <ellipse cx="455.5" cy="682.6" rx="455.5" ry="21" fill="#3f3d56"/>
  <path d="M823.5 674.8c3-5.5-.4-12.2-4.3-17.2s-8.6-10-8.5-16.3c.1-9 9.7-14.3 17.3-19a84.8 84.8 0 0015.6-12.5 22.8 22.8 0 004.8-6.4c1.5-3.6 1.5-7.6 1.4-11.4q-.5-19.3-1.9-38.5" fill="none" stroke="#3f3d56" stroke-miterlimit="10" stroke-width="4"/>
  <path d="M987.6 651a14 14 0 00-7-11.5l-3.1 6.2v-7.5a14 14 0 00-18 14.1 14 14 0 0028-1.3zM962.6 746a14 14 0 11.7-11.3l-8.8 7.1 9.6-2.2a14 14 0 01-1.5 6.4zM955.7 718.7a14 14 0 01-14.7-13.4 13.8 13.8 0 011.2-6.3 14 14 0 019-7.8v5.8l3.1-6.3a14 14 0 011.3 28zM989.7 696a14 14 0 01-1.3-28 13.9 13.9 0 017.5 1.8l-2.5 6.8 5.1-5a14 14 0 014.6 9.8 13.7 13.7 0 01-.4 3.8 14 14 0 01-13 10.8z" transform="translate(-125.2 -98.2)" fill="#57b793"/>
  <path d="M985.7 654.7c-3.2.4-6.4 1.4-9.6 1.6s-6.8-.6-8.9-3.1c-1.1-1.4-1.7-3.1-2.6-4.6a10 10 0 00-3.5-3.3 14 14 0 1026.2 9.3l-1.6.1zM989.7 696a14 14 0 01-13.3-20 10.4 10.4 0 012.8 2.8c1 1.5 1.6 3.3 2.8 4.7 2.2 2.5 5.9 3.4 9.3 3.2s6.6-1 10-1.4h1.4a14 14 0 01-13 10.7zM955.7 718.7a14 14 0 01-14.7-13.4 13.8 13.8 0 011.2-6.3 11.5 11.5 0 013 2.8c1.1 1.5 1.8 3.3 3 4.7 2.4 2.7 6.4 3.6 10 3.5s6.8-1 10.2-1.2a14 14 0 01-12.7 10zM962.6 746a14 14 0 01-25.6-11.5 14.6 14.6 0 013 2.8c1.4 1.6 2.3 3.4 3.8 5 3 2.8 7.5 4 11.7 4a60.1 60.1 0 007-.3z" transform="translate(-125.2 -98.2)" opacity=".1"/>
  <path d="M927.5 766.6s11.1-.3 14.4-2.7 17-5.2 18-1.4 16.6 19 4 19-29-2-32.3-4-4-10.9-4-10.9z" transform="translate(-125.2 -98.2)" fill="#656380"/>
  <path d="M964.2 780.3c-12.5 0-29-2-32.4-4-2.5-1.6-3.6-7.1-3.9-9.7h-.4s.7 9 4 11 20 4 32.4 4c3.6 0 4.9-1.3 4.8-3.2-.5 1.1-1.8 1.8-4.5 1.9z" transform="translate(-125.2 -98.2)" opacity=".2"/>
  <path d="M194.4 644c-7.2-13.5 1-30 10.5-42s21-24.3 20.7-39.6c-.4-22-23.6-35-42.2-46.5a206.3 206.3 0 01-38-30.5c-4.5-4.7-9-9.7-11.6-15.6a63.4 63.4 0 01-3.5-27.8q1.2-47 4.6-93.8" fill="none" stroke="#3f3d56" stroke-miterlimit="10" stroke-width="4"/>
  <path d="M224.8 444.7a34.2 34.2 0 0117-28l7.7 15.1-.2-18.3a34.2 34.2 0 11-24.5 31.2zM285.8 676.2a34.2 34.2 0 0064.6-14 33.8 33.8 0 00-2.3-13.8 34.2 34.2 0 00-64 .3l21.4 17.4-23.5-5.5a33.8 33.8 0 003.8 15.6zM302.7 609.8a34.2 34.2 0 0010.8-67.1l.2 14-7.7-15.2a34.2 34.2 0 00-3.3 68.3zM219.6 554.5a34.2 34.2 0 10-15.1-64l6 16.6-12.4-12a34 34 0 00-11.1 23.7 33.4 33.4 0 00.9 9.4 34.2 34.2 0 0031.7 26.3z" transform="translate(-125.2 -98.2)" fill="#57b793"/>
  <path d="M229.4 453.8c7.9.9 15.5 3.3 23.5 3.8s16.6-1.4 21.6-7.6c2.7-3.3 4-7.5 6.3-11a24.3 24.3 0 018.6-8.2 34.2 34.2 0 11-64 22.7c1.4 0 2.7.2 4 .3zM219.6 554.5a34.2 34.2 0 0032.6-48.8 25.3 25.3 0 00-7 7c-2.4 3.6-3.8 7.9-6.7 11.2-5.3 6.3-14.4 8.3-22.7 8s-16.2-2.7-24.4-3.5l-3.5-.2a34.2 34.2 0 0031.7 26.3zM302.7 609.8a34.2 34.2 0 0032.8-48.1 27.7 27.7 0 00-7.2 7c-2.7 3.7-4.4 8-7.5 11.5-5.7 6.4-15.4 8.7-24.2 8.5-8.5-.2-16.6-2.3-25-3a34.2 34.2 0 0031 24.1zM285.8 676.2a34.2 34.2 0 0064.6-14 33.8 33.8 0 00-2.3-13.8 34.3 34.3 0 00-7.5 6.7c-3.2 4-5.4 8.4-9.1 12.1-7 6.9-18.3 9.7-28.4 10a146.8 146.8 0 01-17.3-1z" transform="translate(-125.2 -98.2)" opacity=".1"/>
  <path fill="#2cc2e8" d="M431.2 664l-132 27-3-.4-116-11.6V532l142-24 103 12V520.9l6 143z"/>
  <path opacity=".1" d="M431.2 664l-132 27-3-.4V540l129-19.4 6 143.4z"/>
  <path opacity=".1" d="M425.3 521l-129 19-116-8 142-24 103 12V520.9z"/>
  <path fill="#3f3d56" d="M576.2 670l-132 27-3-.4-116-11.6V538l142-24 103 12V526.9l6 143z"/>
  <path opacity=".1" d="M576.2 670l-132 27-3-.4V546l129-19.4 6 143.4z"/>
  <path opacity=".1" d="M570.3 527l-129 19-116-8 142-24 103 12V526.9z"/>
  <path fill="#3f3d56" d="M485.2 526l-132 27-3-.4-116-11.6V394l142-24 103 12V382.8l6 143z"/>
  <path opacity=".1" d="M485.2 526l-132 27-3-.4V402l129-19.3 6 143.4z"/>
  <path opacity=".1" d="M479.3 383l-129 19-116-8 142-24 103 12V382.8z"/>
  <path fill="#3f3d56" d="M560.2 532.1l-68.9 14.1-1.5-.2-60.6-6v-76.8l74.1-12.5 53.8 6.3v.5l3.1 74.6z"/>
  <path opacity=".1" d="M560.2 532.1l-68.9 14.1-1.5-.2v-78.6l67.3-10.1 3.1 74.8z"/>
  <path opacity=".1" d="M557.1 457.5l-67.3 9.9-60.6-4.2 74.1-12.5 53.8 6.3v.5z"/>
  <path fill="#3f3d56" d="M375.2 383.1l-68.9 14.1-1.5-.1-60.6-6.2v-76.7l74.1-12.5 53.8 6.3v.5l3.1 74.6z"/>
  <path opacity=".1" d="M375.2 383.1l-68.9 14.1-1.5-.1v-78.7l67.3-10.1 3.1 74.8z"/>
  <path opacity=".1" d="M372.1 308.5l-67.3 9.9-60.6-4.2 74.1-12.5 53.8 6.3v.5z"/>
  <path fill="#2cc2e8" d="M496.2 380.1l-68.9 14.1-1.5-.1-60.6-6.2v-76.7l74.1-12.5 53.8 6.3v.5l3.1 74.6z"/>
  <path opacity=".1" d="M496.2 380.1l-68.9 14.1-1.5-.1v-78.7l67.3-10.1 3.1 74.8z"/>
  <path opacity=".1" d="M493.1 305.5l-67.3 9.9-60.6-4.2 74.1-12.5 53.8 6.3v.5z"/>
  <path fill="#3f3d56" d="M532.2 303.1l-68.9 14.1-1.5-.1-60.6-6.2v-76.7l74.1-12.5 53.8 6.3v.5l3.1 74.6z"/>
  <path opacity=".1" d="M532.2 303.1l-68.9 14.1-1.5-.1v-78.7l67.3-10.1 3.1 74.8z"/>
  <path opacity=".1" d="M529.1 228.5l-67.3 9.9-60.6-4.2 74.1-12.5 53.8 6.3v.5z"/>
  <path d="M704.4 244.4c-.8 6.5-5.7 11.8-7.6 18-2.7 9.5 2 19.7 8.6 27a59.8 59.8 0 0041.6 19.8 18 18 0 006.9-.8 15 15 0 005.2-3.5c5-5 7.6-11.8 8.6-18.7s.7-14 .3-21a11.8 11.8 0 00-.8-4.2 10.7 10.7 0 00-2.7-3.3 63 63 0 00-11.7-8.5c-1.8-1-3.7-2-4.8-3.7a12.2 12.2 0 01-1.6-4.5l-1.2-6.5a12.9 12.9 0 00-2-5.4c-2.2-3-6.6-3.4-10.4-3.6l-14-.5c-4.3-.2-10-1.5-14.3-.6-4 .8-2.6 4.5-2 7.8a56.2 56.2 0 011.9 12.3z" transform="translate(-125.2 -98.2)" fill="#ffc0c6"/>
  <path d="M704.4 244.4c-.8 6.5-5.7 11.8-7.6 18-2.7 9.5 2 19.7 8.6 27a59.8 59.8 0 0041.6 19.8 18 18 0 006.9-.8 15 15 0 005.2-3.5c5-5 7.6-11.8 8.6-18.7s.7-14 .3-21a11.8 11.8 0 00-.8-4.2 10.7 10.7 0 00-2.7-3.3 63 63 0 00-11.7-8.5c-1.8-1-3.7-2-4.8-3.7a12.2 12.2 0 01-1.6-4.5l-1.2-6.5a12.9 12.9 0 00-2-5.4c-2.2-3-6.6-3.4-10.4-3.6l-14-.5c-4.3-.2-10-1.5-14.3-.6-4 .8-2.6 4.5-2 7.8a56.2 56.2 0 011.9 12.3z" transform="translate(-125.2 -98.2)" opacity=".1"/>
  <path d="M793.3 537.2l-6 65.1c-1.5 17.1-3.1 34.3-6.2 51.1-1 5.8-2.2 11.6-3.7 17.3-4 16-10 31.5-11.8 47.8l-.2 1.4c-.4 3.6-.7 7.3-2 10.6-1 2.5-2.4 4.8-3.4 7.3-2 4.9-2.4 10.3-2.6 15.7a67.6 67.6 0 00-23.3-8c-4-.6-8.4-1-11-4-3-3.3-2.7-8.3-2.2-12.7l4.7-40.8a106.3 106.3 0 013-17.3l1.9-5.6c1-2.5 1.8-5.1 2.5-7.7a93.3 93.3 0 002-12.9c1.6-13.7 3.5-27.3 5.3-41v-.7a419.3 419.3 0 003.6-71.7c-.3-4.5-.7-6.9 3-9.7 4-3 9.5-5.2 14.2-7.3 2.5-1 30.4-11 31-8.8a54.3 54.3 0 012 14.2 158.2 158.2 0 01-.8 17.7z" transform="translate(-125.2 -98.2)" fill="#605d82"/>
  <path d="M781.1 653.4c-1 5.8-2.2 11.6-3.7 17.3-4 16-10 31.5-11.8 47.8l-.2 1.4c-12.4-17.7-22.9-36.8-35-54.7 1-2.6 1.8-5.1 2.5-7.8a93.3 93.3 0 002.1-12.9c1.6-13.7 3.5-27.3 5.3-41v-.7a42.5 42.5 0 003 8.4c8.2 16.6 27.5 25 37 40.7l.9 1.5z" transform="translate(-125.2 -98.2)" opacity=".1"/>
  <path d="M680.4 508c.4 13.3 2.5 26.4 4.6 39.5l4.4 27c2.4 14.8 4.9 29.9 11.9 43.1 5.2 10 12.8 18.4 19.6 27.3 16.8 21.9 29.4 46.6 45.3 69.1 4.6 6.6 11.2 13.7 19.1 12.3 5.2-.9 9-5.2 13-8.5 4.8-4 10.6-6.8 14.4-11.7s4.5-13.1-.6-16.6c-1.8-1.2-3.9-1.7-5.9-2.4-8-3-13-10.8-16.3-18.6s-5.3-16.3-9.6-23.6c-9.5-15.8-28.8-24.2-37-40.7-4.5-9.3-5-20-5.3-30.3l-.9-26.3c0-2.9-.2-5.9 1-8.5 3.1-7 12.5-7.6 20.1-8.5a68.8 68.8 0 0024.7-7.8c4.4-2.4 8.7-5.4 11-9.8 2.1-4 2.4-8.7 2.7-13.2l2.6-47.7a30 30 0 00-1-12.2c-3.6-9.7-15.8-12.8-26.1-12.4-19.2.9-36.9 9.1-55 14.7-4.5 1.4-9 2.6-13.6 3.6-4 .8-9 .4-12.9 1.7-6.9 2.4-6.7 17.4-7.7 23.7a198.3 198.3 0 00-2.5 36.8z" transform="translate(-125.2 -98.2)" fill="#605d82"/>
  <path d="M782.7 728.3c1.7 1.7 2.3 4.2 2.7 6.6a224.2 224.2 0 013.8 39.7 6.6 6.6 0 00.7 3.6 4.6 4.6 0 001.9 1.5c4.9 2.3 10.5-1 14.6-4.5 7.6-6.6 14-15.5 14.4-25.5.1-2.6-.2-5.2.3-7.7.6-3.8 2.8-7.1 4.8-10.4a88 88 0 008-17.8c.7-2.4 1.2-5.3-.6-7a6.4 6.4 0 00-2.2-1l-22.1-8.3c-2-.7-6.7 11.5-7.4 12.9-1.9 3.3-3.7 5.1-7.4 5.9s-8.3-.4-11.9 1.5c-6 3.2-3 7.1.4 10.5zM748.6 735.9a6.7 6.7 0 00-1.6-2.2 7.5 7.5 0 00-3.4-1.1c-4.2-.7-9.2-1.2-12.1 2-2.7 2.9-2.3 7.6-4.5 11-.8 1-1.7 1.8-2.4 3a11.3 11.3 0 00-1 5.3c0 5.1-.2 10.2.2 15.3.3 4.3 1 8.7 3.6 12 4.3 5.4 12 6.2 18.9 6.5l5.5.3a11 11 0 004.6-.4 7.5 7.5 0 003.9-4.3c2.9-7.2-1.7-15-4.5-22.1-3.3-8.3-2.7-17.5-7.2-25.3z" transform="translate(-125.2 -98.2)" fill="#535070"/>
  <path d="M702.8 207.8a4.5 4.5 0 01.3-2.1c.8-1.5 2.9-1 4.5-.7 6.4 1.6 13.2.2 19.8.6s14.1 3.6 15.4 10.1a48.2 48.2 0 0012.3-12.5c1.8-2.8 3.4-6 3.2-9.2-.4-4.8-4.4-8.3-8-11.4l-11-9a16.7 16.7 0 00-5-3.1c-2.5-.9-5.3-.4-8-.4-8 0-16.6-3.7-23.7 0-3 1.5-5.2 4.1-7.4 6.7l-9.8 11.6a6.2 6.2 0 00-1.6 2.7c-.3 1.4.5 2.8.7 4.2.5 2.6-.6 5.4.2 8 1.5 4 6.5 4.6 9.6 7 1.1.9 3 4 4.3 3.9 2.4 0 4-4.5 4.1-6.4z" transform="translate(-125.2 -98.2)" fill="#3f3d56"/>
  <circle cx="594.2" cy="112.5" r="31.5" fill="#ffc0c6"/>
  <path d="M726.8 279.6a15.3 15.3 0 00-14.8-10.3 4.5 4.5 0 01-2.7-.3 3.8 3.8 0 01-1.2-1.4 55.7 55.7 0 01-4.6-10.9c-.5-1.6-1.2-3.6-2.8-4-1.4-.4-2.8.5-3.7 1.6a35 35 0 01-2.6 3.2c-4 3.6-11 .4-15.2 3.6l-2 1.7a9.1 9.1 0 01-2.3 1 221.4 221.4 0 00-23.9 9.3c2.8 16.9 5.7 34 12.2 49.8 3.1 7.5 6.7 14.8 9.2 22.6 5.5 17.1 5.8 35.4 5.8 53.4 0 12.4 0 25-4 36.6-.9 2.6-2 5.3-2.2 8s.5 5.8 2.8 7.5a9.5 9.5 0 004.3 1.5c7 1 14-.8 20.7-2.4 18.2-4.2 36.8-6.6 55.4-9l31-4a18.2 18.2 0 006.5-1.7c5.7-3 6.3-11.6 2.7-17-1.7-2.7-4-4.8-5.5-7.6s-1.5-6.6 1-8.5c5-4 3.4-11.2 3.7-17.5q1-26.5-.3-53a103.7 103.7 0 01-.2-11 97 97 0 013.4-18.3l9.5-37.2c-2.5-4-7.2-6.4-11.7-7.5s-9.1-1.5-13.5-2.9c-9-2.8-17.1-9.9-26.5-9.2a4.8 4.8 0 00-2.1.5c-2.1 1.2-1.8 4.3-2 6.7-.2 5.4-4.2 10-8.6 13.1s-9.4 5.5-13.4 9a6 6 0 00-2.4 4.6z" transform="translate(-125.2 -98.2)" fill="#3f3d56"/>
  <path d="M602 314.9a37 37 0 01-6.6 3.4c-2.2.8-4.6 1.5-6.4 3a10 10 0 00-2.2 2.8 12.1 12.1 0 0011.2 18c2.9-.1 5.6-1.3 8.3-2.4l22.2-9.7c3.8-1.6 7.8-3.5 9.6-7.2a1.7 1.7 0 00.2-1.2 1.9 1.9 0 00-1-1 49.8 49.8 0 01-12.8-12.2c-1-1.2-2-4.1-3.4-4.9-4.7-2.6-15.3 9-19.1 11.4zM839.5 307l8.2 9.4c1.8 2 3.5 4 5.1 6.1a71.7 71.7 0 019.4 17.7c1.8 4.7 3.3 9.6 2.6 14.6a36 36 0 01-2 7.4 91.9 91.9 0 01-5.6 13.4 76.3 76.3 0 01-6.2 9.4 219.1 219.1 0 01-20.8 23.8c-2.8 2.7-4 7.2-5.2 11a46 46 0 01-12.7 17.3 35.2 35.2 0 01-5.5 4.8 17.8 17.8 0 01-10 2.8 11 11 0 01-4.5-1c-3.5-1.6-5.3-5.7-5.7-9.6a20.7 20.7 0 011.7-10.4c4.7-10.4 16.8-14.9 25.3-22.5 5-4.4 8.8-10 12.6-15.6a54 54 0 006.4-11.1c1.9-5.1 1.1-11.1 2.8-16.3.7-2.2 2-4.2 2.7-6.3s1-4.8-.4-6.6a9.6 9.6 0 00-3.7-2.8c-5.4-2.7-11.5-6.3-12.6-12.3a13.2 13.2 0 012.5-9.4 39 39 0 016.9-7.2c2.3-2.2 6.3-4.5 8.7-6.6z" transform="translate(-125.2 -98.2)" fill="#ffc0c6"/>
  <path d="M596.7 328c-1.4-3-3.2-6-6.1-7.4a11.4 11.4 0 00-9 0 34.1 34.1 0 00-8 4.7l-7 5.2a17.4 17.4 0 00-4.2 3.9 16.1 16.1 0 00-2.1 6c-1 4.9-1.8 9.9-1.1 14.8 1 8 5.9 15 11.2 21 3.3 3.8 7.3 7.6 12.4 7.8 2.1 0 4.5-.8 5.4-2.8a6.8 6.8 0 00.5-2.4c.6-9-2.6-17.6-6.3-25.7-1-2.2-2.1-4.5-2-6.9a1.9 1.9 0 01.3-1.1 2 2 0 011.2-.6c5-1 13.8 3 17.3-2.7 2.3-3.7-.8-10.6-2.5-13.9z" transform="translate(-125.2 -98.2)" fill="#ffc0c6"/>
  <path d="M701 197.9a4.7 4.7 0 01.4-2.2c.8-1.4 3-1 4.5-.6 6.5 1.6 13.3.2 19.9.5s14 3.7 15.4 10.2a48.5 48.5 0 0012.2-12.5c1.9-2.8 3.5-6 3.2-9.2-.3-4.8-4.3-8.4-8-11.4l-11-9a16.7 16.7 0 00-5-3.1c-2.5-.9-5.2-.5-8-.5-8 0-16.5-3.6-23.6 0-3 1.6-5.2 4.2-7.4 6.8l-9.8 11.6a6.2 6.2 0 00-1.6 2.7c-.3 1.4.4 2.8.7 4.2.5 2.6-.7 5.4.2 7.9 1.4 4.1 6.5 4.7 9.5 7.1 1.2.9 3 3.9 4.4 3.9 2.3 0 4-4.5 4-6.4zM634.2 284.2a13 13 0 00-3.3 3c-1.2 1.8-1.4 4-2.4 5.9-2.1 4-7 5.3-10.2 8.6a3.2 3.2 0 00-1 1.6 3.7 3.7 0 00.9 2.5l14.9 23.4c5 .5 9.7-2.6 14.7-2.2 1.9.1 3.8.8 5.6.2a16.1 16.1 0 003.5-2.1c3-2 7-2.2 9.4-4.6s2.7-6.1 2.7-9.5a37.4 37.4 0 00-.9-8.7c-2.2-9-9-16-13.4-24-2.1-3.8-3.3-6-7.7-3.4s-8.6 6.2-12.8 9.3zM815.6 272.3a35 35 0 017.5 6.6c2.3 3 3.6 6.5 5.8 9.5s5 5.2 7.4 7.9c3.6 4 6 9 8.5 13.9a208.6 208.6 0 01-19.3 21.8 6.2 6.2 0 01-3 2 4.7 4.7 0 01-4-1.8c-1.2-1-2-2.5-3-3.7a14.8 14.8 0 00-9-4.4 62.7 62.7 0 00-10.4-.1 4 4 0 01-2.3-.4 3.6 3.6 0 01-1.2-1.4c-4-6.8-2.7-15.5-1.3-23.3l3.3-18a40.4 40.4 0 012.7-10c1.3-2.7 4-7.2 7.4-6.4s8 5.8 10.9 7.8z" transform="translate(-125.2 -98.2)" fill="#3f3d56"/>
  <path fill="#2cc2e8" d="M405.2 306.1l-68.9 14.1-1.5-.1-60.6-6.2v-76.7l74.1-12.5 53.8 6.3v.5l3.1 74.6z"/>
  <path opacity=".1" d="M405.2 306.1l-68.9 14.1-1.5-.1v-78.7l67.3-10.1 3.1 74.8z"/>
  <path opacity=".1" d="M402.1 231.5l-67.3 9.9-60.6-4.2 74.1-12.5 53.8 6.3v.5z"/>
  <path fill="#3f3d56" d="M441.2 230.1l-68.9 14.1-1.5-.1-60.6-6.2v-76.7l74.1-12.5 53.8 6.3v.5l3.1 74.6z"/>
  <path opacity=".1" d="M441.2 230.1l-68.9 14.1-1.5-.1v-78.7l67.3-10.1 3.1 74.8z"/>
  <path opacity=".1" d="M438.1 155.5l-67.3 9.9-60.6-4.2 74.1-12.5 53.8 6.3v.5z"/>
</svg>
