<?xml version="1.0" encoding="UTF-8" standalone="no"?>
<!-- Created with Inkscape (http://www.inkscape.org/) -->

<svg
   xmlns:dc="http://purl.org/dc/elements/1.1/"
   xmlns:cc="http://creativecommons.org/ns#"
   xmlns:rdf="http://www.w3.org/1999/02/22-rdf-syntax-ns#"
   xmlns:svg="http://www.w3.org/2000/svg"
   xmlns="http://www.w3.org/2000/svg"
   xmlns:sodipodi="http://sodipodi.sourceforge.net/DTD/sodipodi-0.dtd"
   xmlns:inkscape="http://www.inkscape.org/namespaces/inkscape"
   width="210mm"
   height="297mm"
   viewBox="0 0 744.09448819 1052.3622047"
   id="svg2"
   version="1.1"
   inkscape:version="0.91 r13725"
   sodipodi:docname="sep.svg">
  <defs
     id="defs4" />
  <sodipodi:namedview
     id="base"
     pagecolor="#ffffff"
     bordercolor="#666666"
     borderopacity="1.0"
     inkscape:pageopacity="0.0"
     inkscape:pageshadow="2"
     inkscape:zoom="0.25395508"
     inkscape:cx="832.04857"
     inkscape:cy="-22.338915"
     inkscape:document-units="px"
     inkscape:current-layer="layer1"
     showgrid="false"
     inkscape:window-width="1410"
     inkscape:window-height="855"
     inkscape:window-x="298"
     inkscape:window-y="1103"
     inkscape:window-maximized="1" />
  <metadata
     id="metadata7">
    <rdf:RDF>
      <cc:Work
         rdf:about="">
        <dc:format>image/svg+xml</dc:format>
        <dc:type
           rdf:resource="http://purl.org/dc/dcmitype/StillImage" />
        <dc:title></dc:title>
      </cc:Work>
    </rdf:RDF>
  </metadata>
  <g
     inkscape:label="Calque 1"
     inkscape:groupmode="layer"
     id="layer1">
    <rect
       style="opacity:1;fill:none;fill-opacity:1;fill-rule:evenodd;stroke:none;stroke-width:1.95099998;stroke-linecap:round;stroke-linejoin:round;stroke-miterlimit:4;stroke-dasharray:none;stroke-dashoffset:0;stroke-opacity:1"
       id="rect4178"
       width="1592.8014"
       height="212.63603"
       x="-124.03768"
       y="534.55408"
       inkscape:export-xdpi="113.01"
       inkscape:export-ydpi="113.01" />
    <path
       style="opacity:1;fill:#ffffff;fill-opacity:1;fill-rule:evenodd;stroke:none;stroke-width:1.95099998;stroke-linecap:round;stroke-linejoin:round;stroke-miterlimit:4;stroke-dasharray:none;stroke-dashoffset:0;stroke-opacity:1"
       d="m 1620.8347,695.84546 c -0.17,0.0189 -0.3522,0.0297 -0.522,0.0488 -4.2152,0.47166 -8.3452,1.00741 -12.4559,1.5941 -4.1106,0.58665 -8.203,1.22472 -12.3423,1.90087 -4.1392,0.67614 -8.3263,1.39042 -12.6273,2.13048 -8.602,1.48012 -17.6592,3.06266 -27.7075,4.645 -5.0239,0.7912 -10.2965,1.58237 -15.8821,2.36077 -5.5856,0.7784 -11.4842,1.54353 -17.7644,2.28358 -6.2802,0.74006 -12.9422,1.45502 -20.0502,2.13116 -7.1079,0.67615 -14.6632,1.31354 -22.7323,1.90023 -8.069,0.58669 -16.6519,1.12243 -25.8154,1.59406 -9.1633,0.47166 -18.9064,0.87968 -29.2973,1.21074 -10.3907,0.33107 -21.4286,0.58531 -33.1801,0.7502 -11.7515,0.16492 -24.2165,0.23995 -37.4619,0.21313 -6.6227,-0.0135 -13.0323,-0.0655 -19.2455,-0.15439 -6.2134,-0.0889 -12.23,-0.21401 -18.0617,-0.37346 -5.8317,-0.15945 -11.4792,-0.35291 -16.9575,-0.578 -5.4782,-0.22506 -10.7874,-0.4822 -15.94,-0.768 -5.1527,-0.28579 -10.1501,-0.6006 -15.005,-0.9422 -4.855,-0.34157 -9.5669,-0.71007 -14.1522,-1.10251 -4.5851,-0.39244 -9.0427,-0.80864 -13.386,-1.24702 -4.3435,-0.43839 -8.5728,-0.89894 -12.7024,-1.37833 -8.2594,-0.9588 -16.1196,-1.99455 -23.6915,-3.08786 -7.5719,-1.09335 -14.8559,-2.24386 -21.964,-3.4323 -7.1078,-1.18845 -14.0401,-2.41506 -20.9078,-3.65925 -6.8678,-1.24418 -13.6704,-2.50627 -20.5215,-3.76681 -6.851,-1.26053 -13.7508,-2.51941 -20.8089,-3.7569 -7.058,-1.2375 -14.2747,-2.4532 -21.7633,-3.62824 -7.4887,-1.17506 -15.2492,-2.30895 -23.3919,-3.38216 -4.0714,-0.53659 -8.2395,-1.05798 -12.5162,-1.56174 -4.2768,-0.50375 -8.6631,-0.99018 -13.1735,-1.45619 -4.5103,-0.46599 -9.1436,-0.91211 -13.9152,-1.33543 -4.7717,-0.42329 -9.6807,-0.82384 -14.7418,-1.19952 -5.0609,-0.37569 -10.2743,-0.72595 -15.6525,-1.04907 -5.37825,-0.32315 -10.92225,-0.61912 -16.64565,-0.88481 -5.7236,-0.26566 -11.6267,-0.50136 -17.7234,-0.70466 -6.0967,-0.20329 -12.3877,-0.37403 -18.88552,-0.51003 -6.49791,-0.13597 -13.20303,-0.23712 -20.12997,-0.30086 -6.92694,-0.0637 -14.07495,-0.09 -21.45889,-0.0765 -7.38393,0.0135 -14.59764,0.0645 -21.65219,0.15178 -7.05456,0.0873 -13.94856,0.21043 -20.69051,0.36684 -6.74197,0.15641 -13.33343,0.34599 -19.77959,0.56675 -6.44615,0.22077 -12.7474,0.47251 -18.91456,0.75283 -6.16717,0.28035 -12.20014,0.5899 -18.10511,0.92505 -5.90498,0.33518 -11.68197,0.69621 -17.34156,1.08142 -5.6596,0.38521 -11.20021,0.79408 -16.63119,1.22459 -5.43099,0.43052 -10.75234,0.88289 -15.97153,1.35391 -10.43841,0.94204 -20.47027,1.96022 -30.1623,3.03573 -9.69204,1.07552 -19.04532,2.20802 -28.12539,3.37886 -9.08006,1.17084 -17.88704,2.37972 -26.48957,3.60779 -8.60252,1.22804 -17.00029,2.47547 -25.25967,3.72259 -16.51874,2.49425 -32.48638,4.9887 -48.43895,7.33038 -7.9763,1.17088 -15.94755,2.30335 -23.9839,3.37886 -8.03637,1.07551 -16.13726,2.09369 -24.36809,3.03573 -8.23081,0.94204 -16.59124,1.80807 -25.15095,2.5785 -4.27984,0.38522 -8.60984,0.74624 -12.99711,1.08142 -4.38728,0.33519 -8.83357,0.64469 -13.34506,0.92505 -4.5115,0.28036 -9.08881,0.53207 -13.74133,0.75283 -4.65251,0.22076 -9.37799,0.41035 -14.18832,0.56676 -4.81034,0.15641 -9.70596,0.27957 -14.69093,0.36687 -4.98496,0.0873 -10.06061,0.13833 -15.23699,0.15175 -10.35276,0.0267 -20.40169,-0.0196 -30.18888,-0.13132 -9.78718,-0.11168 -19.31227,-0.28842 -28.62071,-0.52057 -9.30845,-0.23215 -18.3994,-0.51984 -27.31593,-0.85445 -8.91653,-0.3346 -17.65824,-0.7158 -26.26969,-1.13486 -8.61144,-0.41907 -17.09363,-0.87634 -25.48681,-1.36181 -8.39318,-0.48548 -16.69831,-0.9995 -24.96006,-1.5334 -16.52351,-1.06774 -32.86981,-2.21436 -49.38856,-3.3676 -16.51875,-1.15328 -33.20927,-2.31331 -50.41787,-3.40788 -8.60431,-0.5473 -17.33852,-1.07794 -26.24553,-1.58352 -8.90701,-0.50561 -17.98796,-0.98589 -27.28452,-1.43177 -9.29654,-0.44589 -18.80914,-0.85711 -28.58205,-1.22527 -9.77292,-0.36812 -19.80445,-0.6929 -30.14055,-0.96528 -10.33611,-0.27238 -20.976285,-0.49261 -31.962422,-0.65121 -10.986123,-0.15861 -22.319842,-0.25624 -34.042825,-0.28306 -5.861486,-0.0135 -11.689135,0.004 -17.486538,0.0488 -5.797414,0.0451 -11.564518,0.1186 -17.302909,0.21839 -11.476768,0.19959 -22.839499,0.50464 -34.110484,0.90063 -11.270997,0.39602 -22.449061,0.88248 -33.55474,1.44498 -11.105652,0.56247 -22.139022,1.20121 -33.119802,1.90023 -10.98079,0.69898 -21.90936,1.45822 -32.8057,2.26375 -4.76729,0.35245 -9.51137,0.74242 -14.26806,1.11112 l 0,74.68484 1799.99997,0 0,-86.88389 z"
       id="path4176"
       inkscape:connector-curvature="0" />
    <path
       style="opacity:0.6;fill:#ffffff;fill-opacity:1;fill-rule:evenodd;stroke:none;stroke-width:1.95099998;stroke-linecap:round;stroke-linejoin:round;stroke-miterlimit:4;stroke-dasharray:none;stroke-dashoffset:0;stroke-opacity:1"
       d="m 1620.8347,843.39834 0,-229.45392 c -4.7566,0.96574 -9.5007,1.98715 -14.268,2.91026 -10.8963,2.10989 -21.825,4.09856 -32.8057,5.92939 -10.9808,1.83082 -22.0142,3.50388 -33.1199,4.97716 -11.1056,1.47327 -22.2837,2.74746 -33.5547,3.78471 -11.2709,1.03725 -22.6336,1.83623 -34.1105,2.35897 -5.7383,0.26137 -11.5054,0.454 -17.3028,0.57202 -5.7975,0.11803 -11.6251,0.16301 -17.4866,0.12789 -11.7229,-0.0703 -23.0567,-0.32594 -34.0429,-0.74139 -10.9861,-0.41545 -21.6262,-0.99226 -31.9623,-1.70571 -10.3361,-0.71346 -20.3677,-1.56407 -30.1406,-2.52833 -9.7728,-0.96426 -19.2855,-2.04137 -28.582,-3.20923 -9.2966,-1.16787 -18.3775,-2.42588 -27.2846,-3.75015 -8.9069,-1.32428 -17.6412,-2.71414 -26.2454,-4.14764 -17.2086,-2.86697 -33.8993,-5.9054 -50.4179,-8.92605 -16.5188,-3.02064 -32.8651,-6.0239 -49.3886,-8.82063 -8.2618,-1.39836 -16.5668,-2.7447 -24.96,-4.01629 -8.3931,-1.27158 -16.8754,-2.46934 -25.4868,-3.56696 -8.6114,-1.09762 -17.3531,-2.09603 -26.2697,-2.97248 -8.9165,-0.87644 -18.0075,-1.6299 -27.3159,-2.23798 -9.3085,-0.60808 -18.8335,-1.07103 -28.6207,-1.36354 -9.7872,-0.29252 -19.8362,-0.41415 -30.18898,-0.34391 -5.1762,0.0351 -10.25189,0.16884 -15.2369,0.39749 -4.9849,0.22864 -9.88059,0.55117 -14.691,0.96087 -4.8103,0.40968 -9.5358,0.90626 -14.1882,1.4845 -4.6525,0.57824 -9.2299,1.23755 -13.7413,1.97186 -4.5116,0.7343 -8.9578,1.54501 -13.3451,2.4229 -4.3873,0.87789 -8.7173,1.8235 -12.9971,2.83249 -8.5598,2.01796 -16.9202,4.28628 -25.151,6.75373 -8.2308,2.46744 -16.3317,5.13432 -24.368,7.95135 -8.0364,2.81704 -16.0076,5.78327 -23.984,8.85001 -15.9526,6.13349 -31.9202,12.66707 -48.4389,19.20009 -8.2594,3.26651 -16.6572,6.53382 -25.2597,9.75039 -8.6025,3.21657 -17.4095,6.38294 -26.4896,9.44969 -9.08,3.06674 -18.4333,6.03298 -28.1254,8.85001 -9.692,2.81703 -19.7239,5.48391 -30.1623,7.95135 -5.2191,1.23373 -10.5405,2.41864 -15.9715,3.54623 -5.431,1.1276 -10.9716,2.19852 -16.6312,3.2075 -5.6596,1.00899 -11.4366,1.9546 -17.3415,2.8325 -5.905,0.87788 -11.938,1.68859 -18.10514,2.4229 -6.16717,0.7343 -12.4684,1.39362 -18.91457,1.97185 -6.44615,0.57825 -13.03761,1.07483 -19.77958,1.48451 -6.74195,0.40969 -13.63595,0.73223 -20.69051,0.96087 -7.05455,0.22864 -14.26825,0.36236 -21.65219,0.39748 -7.38396,0.0351 -14.53197,-0.0335 -21.45889,-0.20047 -6.92692,-0.16698 -13.63211,-0.43187 -20.12995,-0.78804 -6.49782,-0.35618 -12.78885,-0.80341 -18.88555,-1.33589 -6.0967,-0.53248 -11.99983,-1.14981 -17.72334,-1.8457 -5.72352,-0.69589 -11.26739,-1.47109 -16.64568,-2.31749 -5.37829,-0.8464 -10.59159,-1.76379 -15.65254,-2.74781 -5.0611,-0.98401 -9.97003,-2.03309 -14.74177,-3.14183 -4.77161,-1.10872 -9.40491,-2.27728 -13.91523,-3.49783 -4.51033,-1.22055 -8.8967,-2.49462 -13.17346,-3.8141 -4.27688,-1.31947 -8.4449,-2.6851 -12.51629,-4.0906 -8.14279,-2.811 -15.90331,-5.78093 -23.3919,-8.85865 -7.48872,-3.07772 -14.7054,-6.262 -21.76335,-9.50326 -7.05807,-3.24127 -13.95792,-6.53863 -20.8089,-9.84026 -6.8511,-3.30164 -13.65366,-6.60736 -20.52134,-9.86618 -6.8678,-3.25883 -13.80006,-6.47165 -20.90799,-9.58449 -7.10805,-3.11284 -14.39203,-6.12631 -21.96388,-8.98999 -7.57198,-2.86369 -15.43221,-5.57653 -23.69153,-8.08789 -4.12967,-1.25567 -8.35892,-2.46192 -12.70236,-3.61016 -4.34344,-1.14825 -8.80094,-2.23834 -13.38612,-3.26626 -4.5853,-1.02793 -9.29715,-1.9931 -14.15215,-2.88779 -4.85487,-0.8947 -9.85238,-1.71927 -15.00502,-2.46785 -5.15253,-0.74857 -10.46192,-1.42204 -15.94005,-2.0116 -5.47826,-0.58956 -11.12564,-1.09624 -16.95747,-1.51388 -5.8317,-0.41765 -11.84836,-0.74532 -18.0616,-0.97815 -6.21324,-0.23284 -12.622807,-0.36927 -19.245537,-0.4044 -13.24545,-0.0702 -25.7104,0.12629 -37.4619,0.55821 -11.7515,0.43191 -22.78943,1.09782 -33.18021,1.96493 -10.390778,0.86713 -20.133908,1.93585 -29.297328,3.17122 -9.16343,1.23536 -17.74639,2.63862 -25.81544,4.17528 -8.06906,1.53667 -15.62434,3.20615 -22.73227,4.97716 -7.10805,1.771 -13.77,3.64363 -20.05016,5.58202 -6.28017,1.93839 -12.17893,3.94241 -17.76445,5.98124 -5.585525,2.03882 -10.858045,4.11112 -15.882155,6.18342 -10.04822,4.14461 -19.10549,8.28961 -27.70738,12.16639 -4.30101,1.9384 -8.4882,3.80928 -12.62739,5.5803 -4.13919,1.771 -8.23174,3.44222 -12.34235,4.97888 -4.11061,1.53666 -8.24052,2.93991 -12.45579,4.17528 -0.16974,0.0497 -0.35197,0.0787 -0.52195,0.12789 l 0,197.50159 1799.99994,0 z"
       id="rect4152"
       inkscape:connector-curvature="0" />
    <path
       style="opacity:0.49800002;fill:#ffffff;fill-opacity:1;fill-rule:evenodd;stroke:none;stroke-width:1.95099998;stroke-linecap:round;stroke-linejoin:round;stroke-miterlimit:4;stroke-dasharray:none;stroke-dashoffset:0;stroke-opacity:1"
       d="m 1620.8347,541.7317 c -1.8088,0.21909 -3.6917,0.39201 -5.4776,0.62506 -6.1672,0.80487 -12.2002,1.69159 -18.1052,2.65377 -5.9049,0.96227 -11.6819,1.99873 -17.3416,3.10464 -5.6595,1.1059 -11.2025,2.28164 -16.6335,3.5176 -5.431,1.23586 -10.75,2.53273 -15.9692,3.88497 -10.4384,2.70449 -20.4701,5.62758 -30.1622,8.71525 -9.692,3.08777 -19.0453,6.33896 -28.1254,9.70031 -9.08,3.36136 -17.887,6.83387 -26.4895,10.35942 -8.6025,3.52565 -17.0004,7.10493 -25.2598,10.68528 -16.5186,7.1607 -32.4864,14.32197 -48.4389,21.04469 -7.9763,3.36146 -15.9475,6.61264 -23.9839,9.70032 -8.0364,3.08767 -16.1372,6.01076 -24.3681,8.71524 -8.2308,2.70449 -16.5912,5.19077 -25.1509,7.40258 -4.2798,1.1059 -8.6099,2.14431 -12.9971,3.10658 -4.3873,0.96218 -8.8336,1.8489 -13.3451,2.65377 -4.5115,0.80487 -9.0888,1.52749 -13.7413,2.16128 -4.6526,0.63379 -9.3804,1.17806 -14.1907,1.6271 -4.8103,0.44903 -9.7036,0.80263 -14.6886,1.05324 -4.9849,0.2506 -10.0606,0.39899 -15.237,0.43749 -10.3528,0.0766 -20.4016,-0.0582 -30.1888,-0.37882 -9.7872,-0.32062 -19.3123,-0.82804 -28.6207,-1.49452 -9.3085,-0.66647 -18.3994,-1.49238 -27.316,-2.453 -8.9165,-0.96063 -17.6582,-2.05499 -26.2697,-3.25808 -8.6114,-1.20308 -17.0936,-2.51401 -25.4867,-3.90776 -8.3932,-1.39375 -16.6983,-2.8713 -24.9601,-4.40403 -16.5235,-3.06537 -32.8698,-6.35719 -49.3886,-9.66802 -16.5188,-3.31093 -33.20927,-6.63931 -50.41787,-9.78178 -8.6042,-1.57114 -17.3385,-3.0965 -26.2455,-4.54795 -8.907,-1.45156 -17.9879,-2.83038 -27.2845,-4.11047 -9.2965,-1.28008 -18.8092,-2.46067 -28.582,-3.5176 -9.773,-1.05683 -19.8045,-1.98923 -30.1406,-2.77121 -10.3361,-0.78198 -20.9763,-1.41422 -31.9625,-1.86955 -10.9861,-0.45534 -22.3198,-0.73378 -34.0427,-0.81079 -5.8615,-0.0388 -11.6891,0.01 -17.4866,0.1383 -5.7974,0.12938 -11.5646,0.34051 -17.3029,0.627 -11.4768,0.57298 -22.8395,1.44874 -34.1105,2.58559 -11.271,1.13694 -22.4491,2.5335 -33.5547,4.14838 -11.1057,1.61478 -22.139,3.44855 -33.1198,5.45533 -10.9807,2.00669 -21.9094,4.1864 -32.8057,6.49898 -10.8964,2.31267 -21.7601,4.75841 -32.6124,7.29085 -21.7047,5.06497 -43.3617,10.48316 -65.133,15.91144 -21.7713,5.42818 -43.6578,10.8648 -65.8191,15.96818 -11.0808,2.55174 -22.2289,5.02133 -33.4678,7.36281 -11.2389,2.34148 -22.569,4.5561 -34.0066,6.60139 -11.4375,2.04519 -22.9824,3.92115 -34.6589,5.58413 -11.6766,1.66288 -23.4833,3.11279 -35.4394,4.30744 -11.9562,1.19464 -24.0623,2.13277 -36.3384,2.77305 -6.138,0.32024 -12.3192,0.56571 -18.5448,0.73126 -6.2256,0.16545 -12.4949,0.25187 -18.813,0.25187 -12.6366,0 -24.3423,-0.23597 -35.2559,-0.67811 -10.9136,-0.44215 -21.0353,-1.09165 -30.5102,-1.91698 -9.475,-0.82524 -18.3019,-1.82621 -26.6224,-2.97576 -8.3207,-1.14954 -16.1347,-2.44748 -23.5853,-3.86228 -7.4505,-1.41489 -14.5385,-2.94772 -21.4033,-4.5689 -6.8648,-1.62108 -13.508699,-3.33071 -20.071899,-5.09921 -13.1265,-3.537 -25.93315,-7.30831 -39.55921,-11.08117 -6.81304,-1.88643 -13.83119,-3.77451 -21.19551,-5.63146 -7.36434,-1.85694 -15.073616,-3.68305 -23.273506,-5.45155 -8.19991,-1.7685 -16.88955,-3.47813 -26.20929,-5.09921 -9.31975,-1.62118 -19.27171,-3.1541 -29.99557,-4.5689 -10.72385,-1.4148 -22.22015,-2.71273 -34.6324,-3.86228 -12.41224,-1.14955 -25.739645,-2.15052 -40.124565,-2.97575 -14.38491,-0.82534 -29.82785,-1.47484 -46.46969,-1.91698 -2.25313,-0.0601 -4.96827,-0.0388 -7.26573,-0.0912 l 0,168.5907 1799.99994,0 0,-253.22229 z"
       id="path4173"
       inkscape:connector-curvature="0" />
  </g>
</svg>
